HelveticaNeueLTPro-Lt.ufo
<glyph name="exclam" format="1">
  <advance width="241"/>
  <unicode hex="0021"/>
  <outline>
    <contour>
      <point x="163" y="0" type="line"/>
      <point x="79" y="0" type="line"/>
      <point x="79" y="106" type="line"/>
      <point x="163" y="106" type="line"/>
    </contour>
    <contour>
      <point x="102" y="178" type="line"/>
      <point x="87" y="501" type="line"/>
      <point x="87" y="714" type="line"/>
      <point x="155" y="714" type="line"/>
      <point x="155" y="501" type="line"/>
      <point x="140" y="178" type="line"/>
    </contour>
  </outline>
</glyph>
<glyph name="quotedbl" format="1">
  <advance width="370"/>
  <unicode hex="0022"/>
  <outline>
    <contour>
      <point x="220" y="471" type="line"/>
      <point x="220" y="714" type="line"/>
      <point x="283" y="714" type="line"/>
      <point x="283" y="471" type="line"/>
    </contour>
    <contour>
      <point x="87" y="471" type="line"/>
      <point x="87" y="714" type="line"/>
      <point x="150" y="714" type="line"/>
      <point x="150" y="471" type="line"/>
    </contour>
  </outline>
</glyph>
<glyph name="dollar" format="1">
  <advance width="556"/>
  <unicode hex="0024"/>
  <outline>
    <contour>
      <point x="29" y="228" type="curve"/>
      <point x="92" y="228" type="line"/>
      <point x="93" y="112"/>
      <point x="152" y="50"/>
      <point x="257" y="38" type="curve"/>
      <point x="257" y="334" type="line"/>
      <point x="144" y="358"/>
      <point x="47" y="394"/>
      <point x="47" y="534" type="curve" smooth="yes"/>
      <point x="47" y="654"/>
      <point x="141" y="729"/>
      <point x="257" y="729" type="curve"/>
      <point x="257" y="807" type="line"/>
      <point x="296" y="807" type="line"/>
      <point x="296" y="729" type="line"/>
      <point x="412" y="729"/>
      <point x="511" y="643"/>
      <point x="508" y="512" type="curve"/>
      <point x="445" y="512" type="line"/>
      <point x="444" y="612"/>
      <point x="384" y="676"/>
      <point x="296" y="676" type="curve"/>
      <point x="296" y="388" type="line"/>
      <point x="411" y="364"/>
      <point x="527" y="325"/>
      <point x="527" y="185" type="curve" smooth="yes"/>
      <point x="527" y="53"/>
      <point x="413" y="-15"/>
      <point x="296" y="-15" type="curve"/>
      <point x="296" y="-100" type="line"/>
      <point x="257" y="-100" type="line"/>
      <point x="257" y="-14" type="line"/>
      <point x="101" y="1"/>
      <point x="34" y="76"/>
    </contour>
    <contour>
      <point x="257" y="397" type="curve"/>
      <point x="257" y="676" type="line"/>
      <point x="177" y="676"/>
      <point x="110" y="632"/>
      <point x="110" y="527" type="curve" smooth="yes"/>
      <point x="110" y="434"/>
      <point x="182" y="416"/>
    </contour>
    <contour>
      <point x="296" y="326" type="curve"/>
      <point x="296" y="38" type="line"/>
      <point x="380" y="38"/>
      <point x="464" y="80"/>
      <point x="464" y="184" type="curve" smooth="yes"/>
      <point x="464" y="279"/>
      <point x="374" y="307"/>
    </contour>
  </outline>
</glyph>
<glyph name="percent" format="1">
  <advance width="889"/>
  <unicode hex="0025"/>
  <outline>
    <contour>
      <point x="228" y="706" type="curve" smooth="yes"/>
      <point x="341" y="706"/>
      <point x="387" y="624"/>
      <point x="387" y="517" type="curve" smooth="yes"/>
      <point x="387" y="410"/>
      <point x="341" y="328"/>
      <point x="228" y="328" type="curve" smooth="yes"/>
      <point x="115" y="328"/>
      <point x="69" y="410"/>
      <point x="69" y="517" type="curve" smooth="yes"/>
      <point x="69" y="624"/>
      <point x="115" y="706"/>
    </contour>
    <contour>
      <point x="667" y="318" type="curve" smooth="yes"/>
      <point x="582" y="318"/>
      <point x="561" y="237"/>
      <point x="561" y="173" type="curve" smooth="yes"/>
      <point x="561" y="110"/>
      <point x="582" y="30"/>
      <point x="667" y="30" type="curve" smooth="yes"/>
      <point x="750" y="30"/>
      <point x="773" y="110"/>
      <point x="773" y="173" type="curve" smooth="yes"/>
      <point x="773" y="237"/>
      <point x="750" y="318"/>
    </contour>
    <contour>
      <point x="667" y="363" type="curve" smooth="yes"/>
      <point x="780" y="363"/>
      <point x="826" y="281"/>
      <point x="826" y="174" type="curve" smooth="yes"/>
      <point x="826" y="67"/>
      <point x="780" y="-15"/>
      <point x="667" y="-15" type="curve" smooth="yes"/>
      <point x="554" y="-15"/>
      <point x="508" y="67"/>
      <point x="508" y="174" type="curve" smooth="yes"/>
      <point x="508" y="281"/>
      <point x="554" y="363"/>
    </contour>
    <contour>
      <point x="190" y="-34" type="line"/>
      <point x="643" y="725" type="line"/>
      <point x="690" y="725" type="line"/>
      <point x="238" y="-34" type="line"/>
    </contour>
    <contour>
      <point x="228" y="661" type="curve" smooth="yes"/>
      <point x="143" y="661"/>
      <point x="122" y="580"/>
      <point x="122" y="516" type="curve" smooth="yes"/>
      <point x="122" y="453"/>
      <point x="143" y="373"/>
      <point x="228" y="373" type="curve" smooth="yes"/>
      <point x="311" y="373"/>
      <point x="334" y="453"/>
      <point x="334" y="516" type="curve" smooth="yes"/>
      <point x="334" y="580"/>
      <point x="311" y="661"/>
    </contour>
  </outline>
</glyph>
<glyph name="ampersand" format="1">
  <advance width="611"/>
  <unicode hex="0026"/>
  <outline>
    <contour>
      <point x="284" y="661" type="curve" smooth="yes"/>
      <point x="232" y="661"/>
      <point x="189" y="629"/>
      <point x="189" y="569" type="curve" smooth="yes"/>
      <point x="189" y="519"/>
      <point x="237" y="463"/>
      <point x="269" y="425" type="curve"/>
      <point x="319" y="457"/>
      <point x="379" y="499"/>
      <point x="379" y="569" type="curve" smooth="yes"/>
      <point x="379" y="629"/>
      <point x="336" y="661"/>
    </contour>
    <contour>
      <point x="541" y="0" type="line"/>
      <point x="465" y="93" type="line"/>
      <point x="413" y="28"/>
      <point x="339" y="-15"/>
      <point x="255" y="-15" type="curve" smooth="yes"/>
      <point x="132" y="-15"/>
      <point x="39" y="56"/>
      <point x="39" y="185" type="curve" smooth="yes"/>
      <point x="39" y="286"/>
      <point x="134" y="354"/>
      <point x="214" y="397" type="curve"/>
      <point x="175" y="447"/>
      <point x="126" y="500"/>
      <point x="126" y="569" type="curve" smooth="yes"/>
      <point x="126" y="656"/>
      <point x="197" y="714"/>
      <point x="284" y="714" type="curve" smooth="yes"/>
      <point x="371" y="714"/>
      <point x="442" y="656"/>
      <point x="442" y="569" type="curve" smooth="yes"/>
      <point x="442" y="480"/>
      <point x="373" y="429"/>
      <point x="302" y="384" type="curve"/>
      <point x="458" y="196" type="line"/>
      <point x="475" y="231"/>
      <point x="479" y="261"/>
      <point x="479" y="316" type="curve"/>
      <point x="542" y="316" type="line"/>
      <point x="542" y="276"/>
      <point x="533" y="206"/>
      <point x="500" y="145" type="curve"/>
      <point x="620" y="0" type="line"/>
    </contour>
    <contour>
      <point x="426" y="140" type="curve"/>
      <point x="248" y="356" type="line"/>
      <point x="179" y="319"/>
      <point x="102" y="265"/>
      <point x="102" y="179" type="curve" smooth="yes"/>
      <point x="102" y="95"/>
      <point x="177" y="38"/>
      <point x="257" y="38" type="curve" smooth="yes"/>
      <point x="329" y="38"/>
      <point x="386" y="83"/>
    </contour>
  </outline>
</glyph>
<glyph name="quotesingle" format="1">
  <advance width="278"/>
  <unicode hex="0027"/>
  <outline>
    <contour>
      <point x="108" y="471" type="line"/>
      <point x="108" y="714" type="line"/>
      <point x="171" y="714" type="line"/>
      <point x="171" y="471" type="line"/>
    </contour>
  </outline>
</glyph>
<glyph name="parenleft" format="1">
  <advance width="241"/>
  <unicode hex="0028"/>
  <outline>
    <contour>
      <point x="242" y="-191" type="curve"/>
      <point x="192" y="-191" type="line"/>
      <point x="103" y="-43"/>
      <point x="51" y="92"/>
      <point x="51" y="266" type="curve" smooth="yes"/>
      <point x="51" y="437"/>
      <point x="104" y="593"/>
      <point x="192" y="729" type="curve"/>
      <point x="242" y="729" type="line"/>
      <point x="153" y="586"/>
      <point x="114" y="420"/>
      <point x="114" y="243" type="curve" smooth="yes"/>
      <point x="114" y="99"/>
      <point x="165" y="-69"/>
    </contour>
  </outline>
</glyph>
<glyph name="parenright" format="1">
  <advance width="241"/>
  <unicode hex="0029"/>
  <outline>
    <contour>
      <point x="-1" y="729" type="curve"/>
      <point x="49" y="729" type="line"/>
      <point x="138" y="581"/>
      <point x="190" y="446"/>
      <point x="190" y="272" type="curve" smooth="yes"/>
      <point x="190" y="101"/>
      <point x="137" y="-55"/>
      <point x="49" y="-191" type="curve"/>
      <point x="-1" y="-191" type="line"/>
      <point x="88" y="-48"/>
      <point x="127" y="118"/>
      <point x="127" y="295" type="curve" smooth="yes"/>
      <point x="127" y="441"/>
      <point x="74" y="603"/>
    </contour>
  </outline>
</glyph>
<glyph name="asterisk" format="1">
  <advance width="352"/>
  <unicode hex="002A"/>
  <outline>
    <contour>
      <point x="142" y="556" type="line"/>
      <point x="27" y="595" type="line"/>
      <point x="41" y="632" type="line"/>
      <point x="156" y="591" type="line"/>
      <point x="156" y="714" type="line"/>
      <point x="195" y="714" type="line"/>
      <point x="195" y="591" type="line"/>
      <point x="310" y="632" type="line"/>
      <point x="325" y="595" type="line"/>
      <point x="207" y="556" type="line"/>
      <point x="279" y="458" type="line"/>
      <point x="247" y="435" type="line"/>
      <point x="174" y="535" type="line"/>
      <point x="101" y="435" type="line"/>
      <point x="69" y="458" type="line"/>
    </contour>
  </outline>
</glyph>
<glyph name="plus" format="1">
  <advance width="600"/>
  <unicode hex="002B"/>
  <outline>
    <contour>
      <point x="274" y="278" type="line"/>
      <point x="274" y="503" type="line"/>
      <point x="327" y="503" type="line"/>
      <point x="327" y="278" type="line"/>
      <point x="552" y="278" type="line"/>
      <point x="552" y="225" type="line"/>
      <point x="327" y="225" type="line"/>
      <point x="327" y="0" type="line"/>
      <point x="274" y="0" type="line"/>
      <point x="274" y="225" type="line"/>
      <point x="49" y="225" type="line"/>
      <point x="49" y="278" type="line"/>
    </contour>
  </outline>
</glyph>
<glyph name="comma" format="1">
  <advance width="278"/>
  <unicode hex="002C"/>
  <outline>
    <contour>
      <point x="97" y="106" type="line"/>
      <point x="181" y="106" type="line"/>
      <point x="181" y="-1" type="line" smooth="yes"/>
      <point x="181" y="-59"/>
      <point x="152" y="-121"/>
      <point x="93" y="-137" type="curve"/>
      <point x="93" y="-94" type="line"/>
      <point x="125" y="-83"/>
      <point x="142" y="-31"/>
      <point x="139" y="0" type="curve"/>
      <point x="97" y="0" type="line"/>
    </contour>
  </outline>
</glyph>
<glyph name="slash" format="1">
  <advance width="333"/>
  <unicode hex="002F"/>
  <outline>
    <contour>
      <point x="41" y="-15" type="line"/>
      <point x="-13" y="-15" type="line"/>
      <point x="295" y="729" type="line"/>
      <point x="346" y="729" type="line"/>
    </contour>
  </outline>
</glyph>
<glyph name="zero" format="1">
  <advance width="556"/>
  <unicode hex="0030"/>
  <outline>
    <contour>
      <point x="278" y="706" type="curve" smooth="yes"/>
      <point x="482" y="706"/>
      <point x="522" y="509"/>
      <point x="522" y="346" type="curve" smooth="yes"/>
      <point x="522" y="182"/>
      <point x="482" y="-15"/>
      <point x="278" y="-15" type="curve" smooth="yes"/>
      <point x="74" y="-15"/>
      <point x="34" y="182"/>
      <point x="34" y="345" type="curve" smooth="yes"/>
      <point x="34" y="509"/>
      <point x="74" y="706"/>
    </contour>
    <contour>
      <point x="278" y="653" type="curve" smooth="yes"/>
      <point x="118" y="653"/>
      <point x="97" y="467"/>
      <point x="97" y="346" type="curve" smooth="yes"/>
      <point x="97" y="224"/>
      <point x="118" y="38"/>
      <point x="278" y="38" type="curve" smooth="yes"/>
      <point x="438" y="38"/>
      <point x="459" y="224"/>
      <point x="459" y="346" type="curve" smooth="yes"/>
      <point x="459" y="467"/>
      <point x="438" y="653"/>
    </contour>
  </outline>
</glyph>
<glyph name="one" format="1">
  <advance width="556"/>
  <unicode hex="0031"/>
  <outline>
    <contour>
      <point x="97" y="520" type="line"/>
      <point x="97" y="565" type="line"/>
      <point x="207" y="568"/>
      <point x="275" y="572"/>
      <point x="294" y="700" type="curve"/>
      <point x="345" y="700" type="line"/>
      <point x="345" y="0" type="line"/>
      <point x="282" y="0" type="line"/>
      <point x="282" y="520" type="line"/>
    </contour>
  </outline>
</glyph>
<glyph name="two" format="1">
  <advance width="556"/>
  <unicode hex="0032"/>
  <outline>
    <contour>
      <point x="497" y="58" type="line"/>
      <point x="497" y="0" type="line"/>
      <point x="36" y="0" type="line"/>
      <point x="40" y="208"/>
      <point x="255" y="260"/>
      <point x="373" y="378" type="curve" smooth="yes"/>
      <point x="412" y="417"/>
      <point x="431" y="454"/>
      <point x="431" y="510" type="curve" smooth="yes"/>
      <point x="431" y="601"/>
      <point x="359" y="653"/>
      <point x="274" y="653" type="curve" smooth="yes"/>
      <point x="159" y="653"/>
      <point x="113" y="561"/>
      <point x="116" y="458" type="curve"/>
      <point x="53" y="458" type="line"/>
      <point x="50" y="602"/>
      <point x="125" y="706"/>
      <point x="277" y="706" type="curve" smooth="yes"/>
      <point x="399" y="706"/>
      <point x="494" y="639"/>
      <point x="494" y="509" type="curve" smooth="yes"/>
      <point x="494" y="392"/>
      <point x="410" y="319"/>
      <point x="318" y="260" type="curve" smooth="yes"/>
      <point x="250" y="215"/>
      <point x="124" y="151"/>
      <point x="108" y="58" type="curve"/>
    </contour>
  </outline>
</glyph>
<glyph name="three" format="1">
  <advance width="556"/>
  <unicode hex="0033"/>
  <outline>
    <contour>
      <point x="33" y="223" type="curve"/>
      <point x="96" y="223" type="line"/>
      <point x="91" y="112"/>
      <point x="159" y="38"/>
      <point x="271" y="38" type="curve" smooth="yes"/>
      <point x="363" y="38"/>
      <point x="450" y="93"/>
      <point x="450" y="193" type="curve" smooth="yes"/>
      <point x="450" y="293"/>
      <point x="375" y="341"/>
      <point x="282" y="341" type="curve" smooth="yes"/>
      <point x="229" y="341" type="line"/>
      <point x="229" y="394" type="line"/>
      <point x="282" y="394" type="line" smooth="yes"/>
      <point x="347" y="394"/>
      <point x="424" y="432"/>
      <point x="424" y="521" type="curve" smooth="yes"/>
      <point x="424" y="613"/>
      <point x="355" y="653"/>
      <point x="271" y="653" type="curve" smooth="yes"/>
      <point x="167" y="653"/>
      <point x="109" y="580"/>
      <point x="112" y="476" type="curve"/>
      <point x="49" y="476" type="line"/>
      <point x="49" y="608"/>
      <point x="134" y="706"/>
      <point x="270" y="706" type="curve" smooth="yes"/>
      <point x="379" y="706"/>
      <point x="487" y="652"/>
      <point x="487" y="528" type="curve" smooth="yes"/>
      <point x="487" y="452"/>
      <point x="445" y="392"/>
      <point x="369" y="373" type="curve"/>
      <point x="369" y="371" type="line"/>
      <point x="461" y="356"/>
      <point x="513" y="290"/>
      <point x="513" y="198" type="curve" smooth="yes"/>
      <point x="513" y="61"/>
      <point x="401" y="-15"/>
      <point x="272" y="-15" type="curve" smooth="yes"/>
      <point x="128" y="-15"/>
      <point x="22" y="73"/>
    </contour>
  </outline>
</glyph>
<glyph name="four" format="1">
  <advance width="556"/>
  <unicode hex="0034"/>
  <outline>
    <contour>
      <point x="87" y="227" type="line"/>
      <point x="353" y="227" type="line"/>
      <point x="353" y="608" type="line"/>
      <point x="351" y="608" type="line"/>
    </contour>
    <contour>
      <point x="30" y="174" type="line"/>
      <point x="30" y="235" type="line"/>
      <point x="354" y="700" type="line"/>
      <point x="411" y="700" type="line"/>
      <point x="411" y="227" type="line"/>
      <point x="516" y="227" type="line"/>
      <point x="516" y="174" type="line"/>
      <point x="411" y="174" type="line"/>
      <point x="411" y="0" type="line"/>
      <point x="353" y="0" type="line"/>
      <point x="353" y="174" type="line"/>
    </contour>
  </outline>
</glyph>
<glyph name="five" format="1">
  <advance width="556"/>
  <unicode hex="0035"/>
  <outline>
    <contour>
      <point x="36" y="200" type="curve"/>
      <point x="99" y="200" type="line"/>
      <point x="102" y="103"/>
      <point x="175" y="38"/>
      <point x="271" y="38" type="curve" smooth="yes"/>
      <point x="379" y="38"/>
      <point x="446" y="127"/>
      <point x="446" y="229" type="curve" smooth="yes"/>
      <point x="446" y="332"/>
      <point x="371" y="411"/>
      <point x="267" y="411" type="curve" smooth="yes"/>
      <point x="204" y="411"/>
      <point x="146" y="381"/>
      <point x="111" y="328" type="curve"/>
      <point x="57" y="328" type="line"/>
      <point x="125" y="691" type="line"/>
      <point x="475" y="691" type="line"/>
      <point x="475" y="633" type="line"/>
      <point x="169" y="633" type="line"/>
      <point x="124" y="401" type="line"/>
      <point x="126" y="399" type="line"/>
      <point x="161" y="440"/>
      <point x="219" y="464"/>
      <point x="274" y="464" type="curve" smooth="yes"/>
      <point x="418" y="464"/>
      <point x="509" y="363"/>
      <point x="509" y="222" type="curve" smooth="yes"/>
      <point x="509" y="86"/>
      <point x="400" y="-15"/>
      <point x="266" y="-15" type="curve" smooth="yes"/>
      <point x="136" y="-15"/>
      <point x="39" y="67"/>
    </contour>
  </outline>
</glyph>
<glyph name="six" format="1">
  <advance width="556"/>
  <unicode hex="0036"/>
  <outline>
    <contour>
      <point x="505" y="523" type="curve"/>
      <point x="442" y="523" type="line"/>
      <point x="431" y="600"/>
      <point x="377" y="653"/>
      <point x="296" y="653" type="curve" smooth="yes"/>
      <point x="132" y="653"/>
      <point x="103" y="467"/>
      <point x="103" y="340" type="curve"/>
      <point x="105" y="340" type="line"/>
      <point x="138" y="409"/>
      <point x="211" y="456"/>
      <point x="291" y="456" type="curve" smooth="yes"/>
      <point x="431" y="456"/>
      <point x="522" y="358"/>
      <point x="522" y="222" type="curve" smooth="yes"/>
      <point x="522" y="86"/>
      <point x="424" y="-15"/>
      <point x="285" y="-15" type="curve" smooth="yes"/>
      <point x="115" y="-15"/>
      <point x="40" y="84"/>
      <point x="40" y="357" type="curve" smooth="yes"/>
      <point x="40" y="440"/>
      <point x="61" y="706"/>
      <point x="290" y="706" type="curve" smooth="yes"/>
      <point x="414" y="706"/>
      <point x="490" y="646"/>
    </contour>
    <contour>
      <point x="290" y="403" type="curve" smooth="yes"/>
      <point x="180" y="403"/>
      <point x="116" y="321"/>
      <point x="116" y="218" type="curve" smooth="yes"/>
      <point x="116" y="118"/>
      <point x="168" y="38"/>
      <point x="291" y="38" type="curve" smooth="yes"/>
      <point x="391" y="38"/>
      <point x="459" y="121"/>
      <point x="459" y="218" type="curve" smooth="yes"/>
      <point x="459" y="320"/>
      <point x="397" y="403"/>
    </contour>
  </outline>
</glyph>
<glyph name="seven" format="1">
  <advance width="556"/>
  <unicode hex="0037"/>
  <outline>
    <contour>
      <point x="51" y="633" type="line"/>
      <point x="51" y="691" type="line"/>
      <point x="501" y="691" type="line"/>
      <point x="501" y="633" type="line"/>
      <point x="413" y="542"/>
      <point x="234" y="325"/>
      <point x="218" y="0" type="curve"/>
      <point x="150" y="0" type="line"/>
      <point x="166" y="237"/>
      <point x="244" y="412"/>
      <point x="438" y="633" type="curve"/>
    </contour>
  </outline>
</glyph>
<glyph name="eight" format="1">
  <advance width="556"/>
  <unicode hex="0038"/>
  <outline>
    <contour>
      <point x="278" y="401" type="curve"/>
      <point x="355" y="398"/>
      <point x="427" y="441"/>
      <point x="427" y="531" type="curve" smooth="yes"/>
      <point x="427" y="611"/>
      <point x="362" y="653"/>
      <point x="278" y="653" type="curve" smooth="yes"/>
      <point x="201" y="653"/>
      <point x="128" y="611"/>
      <point x="128" y="531" type="curve" smooth="yes"/>
      <point x="128" y="438"/>
      <point x="203" y="398"/>
    </contour>
    <contour>
      <point x="490" y="531" type="curve" smooth="yes"/>
      <point x="490" y="455"/>
      <point x="448" y="398"/>
      <point x="376" y="377" type="curve"/>
      <point x="376" y="375" type="line"/>
      <point x="467" y="356"/>
      <point x="519" y="291"/>
      <point x="519" y="196" type="curve" smooth="yes"/>
      <point x="519" y="55"/>
      <point x="410" y="-15"/>
      <point x="278" y="-15" type="curve" smooth="yes"/>
      <point x="146" y="-15"/>
      <point x="37" y="55"/>
      <point x="37" y="196" type="curve" smooth="yes"/>
      <point x="40" y="288"/>
      <point x="92" y="359"/>
      <point x="179" y="375" type="curve"/>
      <point x="179" y="377" type="line"/>
      <point x="106" y="400"/>
      <point x="65" y="454"/>
      <point x="65" y="531" type="curve" smooth="yes"/>
      <point x="65" y="651"/>
      <point x="173" y="706"/>
      <point x="277" y="706" type="curve" smooth="yes"/>
      <point x="381" y="706"/>
      <point x="490" y="651"/>
    </contour>
    <contour>
      <point x="278" y="38" type="curve" smooth="yes"/>
      <point x="377" y="38"/>
      <point x="456" y="88"/>
      <point x="456" y="196" type="curve" smooth="yes"/>
      <point x="456" y="296"/>
      <point x="372" y="351"/>
      <point x="278" y="348" type="curve"/>
      <point x="182" y="351"/>
      <point x="100" y="298"/>
      <point x="100" y="196" type="curve" smooth="yes"/>
      <point x="100" y="91"/>
      <point x="179" y="38"/>
    </contour>
  </outline>
</glyph>
<glyph name="nine" format="1">
  <advance width="556"/>
  <unicode hex="0039"/>
  <outline>
    <contour>
      <point x="51" y="168" type="curve"/>
      <point x="114" y="168" type="line"/>
      <point x="125" y="91"/>
      <point x="179" y="38"/>
      <point x="260" y="38" type="curve" smooth="yes"/>
      <point x="424" y="38"/>
      <point x="453" y="224"/>
      <point x="453" y="351" type="curve"/>
      <point x="451" y="351" type="line"/>
      <point x="418" y="282"/>
      <point x="345" y="235"/>
      <point x="265" y="235" type="curve" smooth="yes"/>
      <point x="125" y="235"/>
      <point x="34" y="333"/>
      <point x="34" y="469" type="curve" smooth="yes"/>
      <point x="34" y="605"/>
      <point x="132" y="706"/>
      <point x="271" y="706" type="curve" smooth="yes"/>
      <point x="441" y="706"/>
      <point x="516" y="607"/>
      <point x="516" y="334" type="curve" smooth="yes"/>
      <point x="516" y="251"/>
      <point x="495" y="-15"/>
      <point x="266" y="-15" type="curve" smooth="yes"/>
      <point x="142" y="-15"/>
      <point x="66" y="45"/>
    </contour>
    <contour>
      <point x="266" y="288" type="curve" smooth="yes"/>
      <point x="376" y="288"/>
      <point x="440" y="370"/>
      <point x="440" y="473" type="curve" smooth="yes"/>
      <point x="440" y="573"/>
      <point x="388" y="653"/>
      <point x="265" y="653" type="curve" smooth="yes"/>
      <point x="165" y="653"/>
      <point x="97" y="570"/>
      <point x="97" y="473" type="curve" smooth="yes"/>
      <point x="97" y="371"/>
      <point x="159" y="288"/>
    </contour>
  </outline>
</glyph>
<glyph name="colon" format="1">
  <advance width="278"/>
  <unicode hex="003A"/>
  <outline>
    <contour>
      <point x="181" y="0" type="line"/>
      <point x="97" y="0" type="line"/>
      <point x="97" y="106" type="line"/>
      <point x="181" y="106" type="line"/>
    </contour>
    <contour>
      <point x="181" y="394" type="line"/>
      <point x="97" y="394" type="line"/>
      <point x="97" y="500" type="line"/>
      <point x="181" y="500" type="line"/>
    </contour>
  </outline>
</glyph>
<glyph name="less" format="1">
  <advance width="600"/>
  <unicode hex="003C"/>
  <outline>
    <contour>
      <point x="554" y="47" type="line"/>
      <point x="554" y="-8" type="line"/>
      <point x="46" y="226" type="line"/>
      <point x="46" y="280" type="line"/>
      <point x="554" y="514" type="line"/>
      <point x="554" y="459" type="line"/>
      <point x="108" y="253" type="line"/>
    </contour>
  </outline>
</glyph>
<glyph name="equal" format="1">
  <advance width="600"/>
  <unicode hex="003D"/>
  <outline>
    <contour>
      <point x="552" y="181" type="line"/>
      <point x="552" y="128" type="line"/>
      <point x="49" y="128" type="line"/>
      <point x="49" y="181" type="line"/>
    </contour>
    <contour>
      <point x="552" y="378" type="line"/>
      <point x="552" y="325" type="line"/>
      <point x="49" y="325" type="line"/>
      <point x="49" y="378" type="line"/>
    </contour>
  </outline>
</glyph>
<glyph name="greater" format="1">
  <advance width="600"/>
  <unicode hex="003E"/>
  <outline>
    <contour>
      <point x="46" y="47" type="line"/>
      <point x="492" y="253" type="line"/>
      <point x="46" y="459" type="line"/>
      <point x="46" y="514" type="line"/>
      <point x="554" y="280" type="line"/>
      <point x="554" y="226" type="line"/>
      <point x="46" y="-8" type="line"/>
    </contour>
  </outline>
</glyph>
<glyph name="question" format="1">
  <advance width="537"/>
  <unicode hex="003F"/>
  <outline>
    <contour>
      <point x="231" y="0" type="line"/>
      <point x="231" y="106" type="line"/>
      <point x="315" y="106" type="line"/>
      <point x="315" y="0" type="line"/>
    </contour>
    <contour>
      <point x="117" y="494" type="curve"/>
      <point x="54" y="494" type="line"/>
      <point x="54" y="635"/>
      <point x="137" y="729"/>
      <point x="281" y="729" type="curve" smooth="yes"/>
      <point x="392" y="729"/>
      <point x="484" y="660"/>
      <point x="484" y="544" type="curve" smooth="yes"/>
      <point x="484" y="469"/>
      <point x="448" y="422"/>
      <point x="397" y="374" type="curve" smooth="yes"/>
      <point x="313" y="290"/>
      <point x="307" y="301"/>
      <point x="304" y="179" type="curve"/>
      <point x="241" y="179" type="line"/>
      <point x="238" y="301"/>
      <point x="271" y="335"/>
      <point x="356" y="412" type="curve" smooth="yes"/>
      <point x="393" y="447"/>
      <point x="421" y="489"/>
      <point x="421" y="541" type="curve" smooth="yes"/>
      <point x="421" y="621"/>
      <point x="355" y="676"/>
      <point x="278" y="676" type="curve" smooth="yes"/>
      <point x="170" y="676"/>
      <point x="114" y="597"/>
    </contour>
  </outline>
</glyph>
<glyph name="at" format="1">
  <advance width="800"/>
  <unicode hex="0040"/>
  <outline>
    <contour>
      <point x="614" y="544" type="line"/>
      <point x="518" y="256" type="line" smooth="yes"/>
      <point x="505" y="213"/>
      <point x="498" y="173"/>
      <point x="531" y="173" type="curve" smooth="yes"/>
      <point x="620" y="173"/>
      <point x="700" y="309"/>
      <point x="700" y="421" type="curve" smooth="yes"/>
      <point x="700" y="586"/>
      <point x="571" y="684"/>
      <point x="416" y="684" type="curve" smooth="yes"/>
      <point x="229" y="684"/>
      <point x="100" y="537"/>
      <point x="100" y="353" type="curve" smooth="yes"/>
      <point x="100" y="172"/>
      <point x="236" y="30"/>
      <point x="418" y="30" type="curve" smooth="yes"/>
      <point x="516" y="30"/>
      <point x="618" y="81"/>
      <point x="676" y="163" type="curve"/>
      <point x="727" y="163" type="line"/>
      <point x="666" y="54"/>
      <point x="543" y="-15"/>
      <point x="418" y="-15" type="curve" smooth="yes"/>
      <point x="202" y="-15"/>
      <point x="47" y="149"/>
      <point x="47" y="360" type="curve" smooth="yes"/>
      <point x="47" y="568"/>
      <point x="210" y="729"/>
      <point x="414" y="729" type="curve" smooth="yes"/>
      <point x="606" y="729"/>
      <point x="753" y="602"/>
      <point x="753" y="418" type="curve" smooth="yes"/>
      <point x="753" y="257"/>
      <point x="633" y="128"/>
      <point x="521" y="128" type="curve" smooth="yes"/>
      <point x="486" y="128"/>
      <point x="458" y="151"/>
      <point x="454" y="195" type="curve"/>
      <point x="452" y="195" type="line"/>
      <point x="421" y="163"/>
      <point x="376" y="129"/>
      <point x="325" y="129" type="curve" smooth="yes"/>
      <point x="242" y="129"/>
      <point x="193" y="195"/>
      <point x="193" y="274" type="curve" smooth="yes"/>
      <point x="193" y="412"/>
      <point x="288" y="563"/>
      <point x="430" y="563" type="curve" smooth="yes"/>
      <point x="474" y="563"/>
      <point x="513" y="539"/>
      <point x="536" y="479" type="curve"/>
      <point x="561" y="544" type="line"/>
    </contour>
    <contour>
      <point x="426" y="510" type="curve" smooth="yes"/>
      <point x="324" y="510"/>
      <point x="256" y="372"/>
      <point x="256" y="279" type="curve" smooth="yes"/>
      <point x="256" y="219"/>
      <point x="291" y="182"/>
      <point x="339" y="182" type="curve" smooth="yes"/>
      <point x="431" y="182"/>
      <point x="505" y="329"/>
      <point x="505" y="417" type="curve" smooth="yes"/>
      <point x="505" y="464"/>
      <point x="465" y="510"/>
    </contour>
  </outline>
</glyph>
<glyph name="B" format="1">
  <advance width="667"/>
  <unicode hex="0042"/>
  <outline>
    <contour>
      <point x="140" y="656" type="line"/>
      <point x="140" y="401" type="line"/>
      <point x="374" y="401" type="line" smooth="yes"/>
      <point x="482" y="401"/>
      <point x="535" y="455"/>
      <point x="535" y="522" type="curve" smooth="yes"/>
      <point x="535" y="611"/>
      <point x="481" y="656"/>
      <point x="374" y="656" type="curve" smooth="yes"/>
    </contour>
    <contour>
      <point x="72" y="0" type="line"/>
      <point x="72" y="714" type="line"/>
      <point x="374" y="714" type="line" smooth="yes"/>
      <point x="494" y="714"/>
      <point x="603" y="672"/>
      <point x="603" y="539" type="curve" smooth="yes"/>
      <point x="603" y="464"/>
      <point x="553" y="395"/>
      <point x="479" y="379" type="curve"/>
      <point x="479" y="377" type="line"/>
      <point x="571" y="365"/>
      <point x="630" y="296"/>
      <point x="630" y="203" type="curve" smooth="yes"/>
      <point x="630" y="135"/>
      <point x="606" y="0"/>
      <point x="374" y="0" type="curve" smooth="yes"/>
    </contour>
    <contour>
      <point x="140" y="343" type="line"/>
      <point x="140" y="58" type="line"/>
      <point x="374" y="58" type="line" smooth="yes"/>
      <point x="475" y="58"/>
      <point x="562" y="89"/>
      <point x="562" y="205" type="curve" smooth="yes"/>
      <point x="562" y="297"/>
      <point x="494" y="343"/>
      <point x="374" y="343" type="curve" smooth="yes"/>
    </contour>
  </outline>
</glyph>
<glyph name="F" format="1">
  <advance width="537"/>
  <unicode hex="0046"/>
  <outline>
    <contour>
      <point x="72" y="0" type="line"/>
      <point x="72" y="714" type="line"/>
      <point x="525" y="714" type="line"/>
      <point x="525" y="656" type="line"/>
      <point x="140" y="656" type="line"/>
      <point x="140" y="398" type="line"/>
      <point x="482" y="398" type="line"/>
      <point x="482" y="340" type="line"/>
      <point x="140" y="340" type="line"/>
      <point x="140" y="0" type="line"/>
    </contour>
  </outline>
</glyph>
<glyph name="K" format="1">
  <advance width="648"/>
  <unicode hex="004B"/>
  <outline>
    <contour>
      <point x="72" y="0" type="line"/>
      <point x="72" y="714" type="line"/>
      <point x="140" y="714" type="line"/>
      <point x="140" y="330" type="line"/>
      <point x="555" y="714" type="line"/>
      <point x="647" y="714" type="line"/>
      <point x="328" y="419" type="line"/>
      <point x="662" y="0" type="line"/>
      <point x="574" y="0" type="line"/>
      <point x="277" y="372" type="line"/>
      <point x="140" y="245" type="line"/>
      <point x="140" y="0" type="line"/>
    </contour>
  </outline>
</glyph>
<glyph name="M" format="1">
  <advance width="833"/>
  <unicode hex="004D"/>
  <outline>
    <contour>
      <point x="70" y="0" type="line"/>
      <point x="70" y="714" type="line"/>
      <point x="170" y="714" type="line"/>
      <point x="417" y="88" type="line"/>
      <point x="663" y="714" type="line"/>
      <point x="763" y="714" type="line"/>
      <point x="763" y="0" type="line"/>
      <point x="695" y="0" type="line"/>
      <point x="695" y="617" type="line"/>
      <point x="693" y="617" type="line"/>
      <point x="449" y="0" type="line"/>
      <point x="385" y="0" type="line"/>
      <point x="140" y="617" type="line"/>
      <point x="138" y="617" type="line"/>
      <point x="138" y="0" type="line"/>
    </contour>
  </outline>
</glyph>
<glyph name="N" format="1">
  <advance width="704"/>
  <unicode hex="004E"/>
  <outline>
    <contour>
      <point x="71" y="0" type="line"/>
      <point x="71" y="714" type="line"/>
      <point x="147" y="714" type="line"/>
      <point x="563" y="110" type="line"/>
      <point x="565" y="110" type="line"/>
      <point x="565" y="714" type="line"/>
      <point x="633" y="714" type="line"/>
      <point x="633" y="0" type="line"/>
      <point x="557" y="0" type="line"/>
      <point x="141" y="604" type="line"/>
      <point x="139" y="604" type="line"/>
      <point x="139" y="0" type="line"/>
    </contour>
  </outline>
</glyph>
<glyph name="P" format="1">
  <advance width="630"/>
  <unicode hex="0050"/>
  <outline>
    <contour>
      <point x="140" y="656" type="line"/>
      <point x="140" y="364" type="line"/>
      <point x="374" y="364" type="line" smooth="yes"/>
      <point x="469" y="364"/>
      <point x="533" y="411"/>
      <point x="533" y="510" type="curve" smooth="yes"/>
      <point x="533" y="609"/>
      <point x="469" y="656"/>
      <point x="374" y="656" type="curve" smooth="yes"/>
    </contour>
    <contour>
      <point x="72" y="0" type="line"/>
      <point x="72" y="714" type="line"/>
      <point x="389" y="714" type="line" smooth="yes"/>
      <point x="517" y="714"/>
      <point x="601" y="639"/>
      <point x="601" y="510" type="curve" smooth="yes"/>
      <point x="601" y="381"/>
      <point x="517" y="306"/>
      <point x="389" y="306" type="curve" smooth="yes"/>
      <point x="140" y="306" type="line"/>
      <point x="140" y="0" type="line"/>
    </contour>
  </outline>
</glyph>
<glyph name="Q" format="1">
  <advance width="741"/>
  <unicode hex="0051"/>
  <outline>
    <contour>
      <point x="701" y="-4" type="line"/>
      <point x="667" y="-46" type="line"/>
      <point x="556" y="38" type="line"/>
      <point x="507" y="3"/>
      <point x="446" y="-15"/>
      <point x="371" y="-15" type="curve" smooth="yes"/>
      <point x="146" y="-15"/>
      <point x="34" y="161"/>
      <point x="34" y="357" type="curve" smooth="yes"/>
      <point x="34" y="553"/>
      <point x="146" y="729"/>
      <point x="371" y="729" type="curve" smooth="yes"/>
      <point x="595" y="729"/>
      <point x="707" y="553"/>
      <point x="707" y="357" type="curve" smooth="yes"/>
      <point x="707" y="246"/>
      <point x="671" y="143"/>
      <point x="599" y="74" type="curve"/>
    </contour>
    <contour>
      <point x="444" y="192" type="line"/>
      <point x="548" y="113" type="line"/>
      <point x="612" y="173"/>
      <point x="639" y="265"/>
      <point x="639" y="357" type="curve" smooth="yes"/>
      <point x="639" y="513"/>
      <point x="559" y="671"/>
      <point x="371" y="671" type="curve" smooth="yes"/>
      <point x="182" y="671"/>
      <point x="102" y="513"/>
      <point x="102" y="357" type="curve" smooth="yes"/>
      <point x="102" y="201"/>
      <point x="182" y="43"/>
      <point x="371" y="43" type="curve" smooth="yes"/>
      <point x="422" y="43"/>
      <point x="466" y="55"/>
      <point x="503" y="78" type="curve"/>
      <point x="409" y="149" type="line"/>
    </contour>
  </outline>
</glyph>
<glyph name="R" format="1">
  <advance width="667"/>
  <unicode hex="0052"/>
  <outline>
    <contour>
      <point x="140" y="656" type="line"/>
      <point x="140" y="375" type="line"/>
      <point x="394" y="375" type="line" smooth="yes"/>
      <point x="477" y="375"/>
      <point x="548" y="427"/>
      <point x="548" y="514" type="curve" smooth="yes"/>
      <point x="548" y="602"/>
      <point x="497" y="656"/>
      <point x="394" y="656" type="curve" smooth="yes"/>
    </contour>
    <contour>
      <point x="72" y="0" type="line"/>
      <point x="72" y="714" type="line"/>
      <point x="399" y="714" type="line" smooth="yes"/>
      <point x="516" y="714"/>
      <point x="616" y="657"/>
      <point x="616" y="528" type="curve" smooth="yes"/>
      <point x="616" y="437"/>
      <point x="569" y="365"/>
      <point x="477" y="346" type="curve"/>
      <point x="477" y="344" type="line"/>
      <point x="570" y="331"/>
      <point x="597" y="269"/>
      <point x="602" y="183" type="curve" smooth="yes"/>
      <point x="605" y="134"/>
      <point x="605" y="35"/>
      <point x="635" y="0" type="curve"/>
      <point x="560" y="0" type="line"/>
      <point x="544" y="27"/>
      <point x="544" y="81"/>
      <point x="541" y="111" type="curve" smooth="yes"/>
      <point x="536" y="211"/>
      <point x="526" y="322"/>
      <point x="398" y="317" type="curve"/>
      <point x="140" y="317" type="line"/>
      <point x="140" y="0" type="line"/>
    </contour>
  </outline>
</glyph>
<glyph name="S" format="1">
  <advance width="630"/>
  <unicode hex="0053"/>
  <outline>
    <contour>
      <point x="36" y="235" type="curve"/>
      <point x="104" y="235" type="line"/>
      <point x="101" y="88"/>
      <point x="206" y="43"/>
      <point x="337" y="43" type="curve" smooth="yes"/>
      <point x="412" y="43"/>
      <point x="526" y="84"/>
      <point x="526" y="188" type="curve" smooth="yes"/>
      <point x="526" y="269"/>
      <point x="446" y="301"/>
      <point x="379" y="317" type="curve" smooth="yes"/>
      <point x="220" y="356" type="line" smooth="yes"/>
      <point x="136" y="377"/>
      <point x="59" y="416"/>
      <point x="59" y="528" type="curve" smooth="yes"/>
      <point x="59" y="598"/>
      <point x="104" y="729"/>
      <point x="305" y="729" type="curve" smooth="yes"/>
      <point x="447" y="729"/>
      <point x="569" y="654"/>
      <point x="569" y="507" type="curve"/>
      <point x="501" y="507" type="line"/>
      <point x="496" y="615"/>
      <point x="408" y="671"/>
      <point x="306" y="671" type="curve" smooth="yes"/>
      <point x="213" y="671"/>
      <point x="127" y="635"/>
      <point x="127" y="529" type="curve" smooth="yes"/>
      <point x="127" y="462"/>
      <point x="176" y="433"/>
      <point x="235" y="420" type="curve" smooth="yes"/>
      <point x="409" y="377" type="line" smooth="yes"/>
      <point x="510" y="350"/>
      <point x="594" y="305"/>
      <point x="594" y="189" type="curve" smooth="yes"/>
      <point x="594" y="140"/>
      <point x="574" y="-15"/>
      <point x="321" y="-15" type="curve" smooth="yes"/>
      <point x="152" y="-15"/>
      <point x="28" y="61"/>
    </contour>
  </outline>
</glyph>
<glyph name="T" format="1">
  <advance width="556"/>
  <unicode hex="0054"/>
  <outline>
    <contour>
      <point x="-5" y="656" type="line"/>
      <point x="-5" y="714" type="line"/>
      <point x="561" y="714" type="line"/>
      <point x="561" y="656" type="line"/>
      <point x="312" y="656" type="line"/>
      <point x="312" y="0" type="line"/>
      <point x="244" y="0" type="line"/>
      <point x="244" y="656" type="line"/>
    </contour>
  </outline>
</glyph>
<glyph name="V" format="1">
  <advance width="593"/>
  <unicode hex="0056"/>
  <outline>
    <contour>
      <point x="258" y="0" type="line"/>
      <point x="-7" y="714" type="line"/>
      <point x="66" y="714" type="line"/>
      <point x="298" y="75" type="line"/>
      <point x="300" y="75" type="line"/>
      <point x="530" y="714" type="line"/>
      <point x="602" y="714" type="line"/>
      <point x="337" y="0" type="line"/>
    </contour>
  </outline>
</glyph>
<glyph name="W" format="1">
  <advance width="907"/>
  <unicode hex="0057"/>
  <outline>
    <contour>
      <point x="198" y="0" type="line"/>
      <point x="0" y="714" type="line"/>
      <point x="73" y="714" type="line"/>
      <point x="235" y="89" type="line"/>
      <point x="237" y="89" type="line"/>
      <point x="411" y="714" type="line"/>
      <point x="496" y="714" type="line"/>
      <point x="671" y="89" type="line"/>
      <point x="673" y="89" type="line"/>
      <point x="836" y="714" type="line"/>
      <point x="904" y="714" type="line"/>
      <point x="707" y="0" type="line"/>
      <point x="635" y="0" type="line"/>
      <point x="454" y="639" type="line"/>
      <point x="452" y="639" type="line"/>
      <point x="272" y="0" type="line"/>
    </contour>
  </outline>
</glyph>
<glyph name="X" format="1">
  <advance width="574"/>
  <unicode hex="0058"/>
  <outline>
    <contour>
      <point x="245" y="368" type="line"/>
      <point x="3" y="714" type="line"/>
      <point x="83" y="714" type="line"/>
      <point x="285" y="415" type="line"/>
      <point x="494" y="714" type="line"/>
      <point x="570" y="714" type="line"/>
      <point x="326" y="366" type="line"/>
      <point x="584" y="0" type="line"/>
      <point x="502" y="0" type="line"/>
      <point x="285" y="315" type="line"/>
      <point x="65" y="0" type="line"/>
      <point x="-12" y="0" type="line"/>
    </contour>
  </outline>
</glyph>
<glyph name="Z" format="1">
  <advance width="574"/>
  <unicode hex="005A"/>
  <outline>
    <contour>
      <point x="37" y="656" type="line"/>
      <point x="37" y="714" type="line"/>
      <point x="551" y="714" type="line"/>
      <point x="551" y="654" type="line"/>
      <point x="81" y="58" type="line"/>
      <point x="561" y="58" type="line"/>
      <point x="561" y="0" type="line"/>
      <point x="5" y="0" type="line"/>
      <point x="5" y="60" type="line"/>
      <point x="475" y="656" type="line"/>
    </contour>
  </outline>
</glyph>
<glyph name="bracketleft" format="1">
  <advance width="241"/>
  <unicode hex="005B"/>
  <outline>
    <contour>
      <point x="237" y="-191" type="line"/>
      <point x="76" y="-191" type="line"/>
      <point x="76" y="729" type="line"/>
      <point x="237" y="729" type="line"/>
      <point x="237" y="676" type="line"/>
      <point x="139" y="676" type="line"/>
      <point x="139" y="-138" type="line"/>
      <point x="237" y="-138" type="line"/>
    </contour>
  </outline>
</glyph>
<glyph name="backslash" format="1">
  <advance width="333"/>
  <unicode hex="005C"/>
  <outline>
    <contour>
      <point x="346" y="-15" type="line"/>
      <point x="292" y="-15" type="line"/>
      <point x="-13" y="729" type="line"/>
      <point x="38" y="729" type="line"/>
    </contour>
  </outline>
</glyph>
<glyph name="bracketright" format="1">
  <advance width="241"/>
  <unicode hex="005D"/>
  <outline>
    <contour>
      <point x="4" y="729" type="line"/>
      <point x="165" y="729" type="line"/>
      <point x="165" y="-191" type="line"/>
      <point x="4" y="-191" type="line"/>
      <point x="4" y="-138" type="line"/>
      <point x="102" y="-138" type="line"/>
      <point x="102" y="676" type="line"/>
      <point x="4" y="676" type="line"/>
    </contour>
  </outline>
</glyph>
<glyph name="asciicircum" format="1">
  <advance width="600"/>
  <unicode hex="005E"/>
  <outline>
    <contour>
      <point x="102" y="238" type="line"/>
      <point x="44" y="238" type="line"/>
      <point x="274" y="691" type="line"/>
      <point x="326" y="691" type="line"/>
      <point x="556" y="238" type="line"/>
      <point x="499" y="238" type="line"/>
      <point x="299" y="628" type="line"/>
    </contour>
  </outline>
</glyph>
<glyph name="grave" format="1">
  <advance width="185"/>
  <unicode hex="0060"/>
  <outline>
    <contour>
      <point x="101" y="588" type="line"/>
      <point x="-31" y="729" type="line"/>
      <point x="47" y="729" type="line"/>
      <point x="152" y="588" type="line"/>
    </contour>
  </outline>
</glyph>
<glyph name="c" format="1">
  <advance width="519"/>
  <unicode hex="0063"/>
  <outline>
    <contour>
      <point x="487" y="354" type="curve"/>
      <point x="424" y="354" type="line"/>
      <point x="407" y="431"/>
      <point x="361" y="478"/>
      <point x="278" y="478" type="curve" smooth="yes"/>
      <point x="158" y="478"/>
      <point x="97" y="367"/>
      <point x="97" y="258" type="curve" smooth="yes"/>
      <point x="97" y="149"/>
      <point x="158" y="38"/>
      <point x="278" y="38" type="curve" smooth="yes"/>
      <point x="355" y="38"/>
      <point x="420" y="100"/>
      <point x="428" y="185" type="curve"/>
      <point x="491" y="185" type="line"/>
      <point x="474" y="60"/>
      <point x="394" y="-15"/>
      <point x="278" y="-15" type="curve" smooth="yes"/>
      <point x="121" y="-15"/>
      <point x="34" y="110"/>
      <point x="34" y="258" type="curve" smooth="yes"/>
      <point x="34" y="406"/>
      <point x="121" y="531"/>
      <point x="278" y="531" type="curve" smooth="yes"/>
      <point x="389" y="531"/>
      <point x="472" y="473"/>
    </contour>
  </outline>
</glyph>
<glyph name="k" format="1">
  <advance width="500"/>
  <unicode hex="006B"/>
  <outline>
    <contour>
      <point x="60" y="0" type="line"/>
      <point x="60" y="714" type="line"/>
      <point x="123" y="714" type="line"/>
      <point x="123" y="266" type="line"/>
      <point x="409" y="516" type="line"/>
      <point x="493" y="516" type="line"/>
      <point x="273" y="325" type="line"/>
      <point x="508" y="0" type="line"/>
      <point x="429" y="0" type="line"/>
      <point x="225" y="281" type="line"/>
      <point x="123" y="196" type="line"/>
      <point x="123" y="0" type="line"/>
    </contour>
  </outline>
</glyph>
<glyph name="m" format="1">
  <advance width="833"/>
  <unicode hex="006D"/>
  <outline>
    <contour>
      <point x="60" y="0" type="line"/>
      <point x="60" y="516" type="line"/>
      <point x="118" y="516" type="line"/>
      <point x="118" y="429" type="line"/>
      <point x="121" y="429" type="line"/>
      <point x="154" y="492"/>
      <point x="207" y="531"/>
      <point x="290" y="531" type="curve" smooth="yes"/>
      <point x="358" y="531"/>
      <point x="419" y="498"/>
      <point x="438" y="430" type="curve"/>
      <point x="469" y="498"/>
      <point x="534" y="531"/>
      <point x="602" y="531" type="curve" smooth="yes"/>
      <point x="716" y="531"/>
      <point x="773" y="471"/>
      <point x="773" y="350" type="curve" smooth="yes"/>
      <point x="773" y="0" type="line"/>
      <point x="710" y="0" type="line"/>
      <point x="710" y="347" type="line" smooth="yes"/>
      <point x="710" y="432"/>
      <point x="679" y="478"/>
      <point x="588" y="478" type="curve" smooth="yes"/>
      <point x="479" y="478"/>
      <point x="448" y="388"/>
      <point x="448" y="292" type="curve" smooth="yes"/>
      <point x="448" y="0" type="line"/>
      <point x="385" y="0" type="line"/>
      <point x="385" y="350" type="line" smooth="yes"/>
      <point x="385" y="420"/>
      <point x="358" y="478"/>
      <point x="277" y="478" type="curve" smooth="yes"/>
      <point x="169" y="478"/>
      <point x="123" y="396"/>
      <point x="123" y="288" type="curve" smooth="yes"/>
      <point x="123" y="0" type="line"/>
    </contour>
  </outline>
</glyph>
<glyph name="r" format="1">
  <advance width="315"/>
  <unicode hex="0072"/>
  <outline>
    <contour>
      <point x="60" y="0" type="line"/>
      <point x="60" y="516" type="line"/>
      <point x="118" y="516" type="line"/>
      <point x="118" y="395" type="line"/>
      <point x="120" y="395" type="line"/>
      <point x="152" y="479"/>
      <point x="222" y="527"/>
      <point x="315" y="523" type="curve"/>
      <point x="315" y="460" type="line"/>
      <point x="201" y="465"/>
      <point x="123" y="383"/>
      <point x="123" y="275" type="curve" smooth="yes"/>
      <point x="123" y="0" type="line"/>
    </contour>
  </outline>
</glyph>
<glyph name="v" format="1">
  <advance width="463"/>
  <unicode hex="0076"/>
  <outline>
    <contour>
      <point x="201" y="0" type="line"/>
      <point x="2" y="516" type="line"/>
      <point x="72" y="516" type="line"/>
      <point x="234" y="63" type="line"/>
      <point x="236" y="63" type="line"/>
      <point x="396" y="516" type="line"/>
      <point x="461" y="516" type="line"/>
      <point x="268" y="0" type="line"/>
    </contour>
  </outline>
</glyph>
<glyph name="w" format="1">
  <advance width="741"/>
  <unicode hex="0077"/>
  <outline>
    <contour>
      <point x="174" y="0" type="line"/>
      <point x="8" y="516" type="line"/>
      <point x="75" y="516" type="line"/>
      <point x="207" y="74" type="line"/>
      <point x="209" y="74" type="line"/>
      <point x="335" y="516" type="line"/>
      <point x="406" y="516" type="line"/>
      <point x="532" y="74" type="line"/>
      <point x="534" y="74" type="line"/>
      <point x="666" y="516" type="line"/>
      <point x="733" y="516" type="line"/>
      <point x="567" y="0" type="line"/>
      <point x="498" y="0" type="line"/>
      <point x="371" y="434" type="line"/>
      <point x="369" y="434" type="line"/>
      <point x="243" y="0" type="line"/>
    </contour>
  </outline>
</glyph>
<glyph name="x" format="1">
  <advance width="481"/>
  <unicode hex="0078"/>
  <outline>
    <contour>
      <point x="1" y="0" type="line"/>
      <point x="201" y="268" type="line"/>
      <point x="16" y="516" type="line"/>
      <point x="95" y="516" type="line"/>
      <point x="242" y="320" type="line"/>
      <point x="386" y="516" type="line"/>
      <point x="465" y="516" type="line"/>
      <point x="279" y="269" type="line"/>
      <point x="480" y="0" type="line"/>
      <point x="400" y="0" type="line"/>
      <point x="238" y="217" type="line"/>
      <point x="79" y="0" type="line"/>
    </contour>
  </outline>
</glyph>
<glyph name="y" format="1">
  <advance width="463"/>
  <unicode hex="0079"/>
  <outline>
    <contour>
      <point x="208" y="2" type="line"/>
      <point x="2" y="516" type="line"/>
      <point x="69" y="516" type="line"/>
      <point x="239" y="76" type="line"/>
      <point x="398" y="516" type="line"/>
      <point x="461" y="516" type="line"/>
      <point x="237" y="-79" type="line" smooth="yes"/>
      <point x="200" y="-166"/>
      <point x="180" y="-191"/>
      <point x="101" y="-191" type="curve" smooth="yes"/>
      <point x="76" y="-190"/>
      <point x="64" y="-190"/>
      <point x="53" y="-186" type="curve"/>
      <point x="53" y="-133" type="line"/>
      <point x="68" y="-136"/>
      <point x="81" y="-138"/>
      <point x="96" y="-138" type="curve" smooth="yes"/>
      <point x="152" y="-138"/>
      <point x="165" y="-105"/>
      <point x="186" y="-57" type="curve" smooth="yes"/>
    </contour>
  </outline>
</glyph>
<glyph name="z" format="1">
  <advance width="463"/>
  <unicode hex="007A"/>
  <outline>
    <contour>
      <point x="432" y="471" type="line"/>
      <point x="91" y="53" type="line"/>
      <point x="446" y="53" type="line"/>
      <point x="446" y="0" type="line"/>
      <point x="15" y="0" type="line"/>
      <point x="15" y="51" type="line"/>
      <point x="352" y="463" type="line"/>
      <point x="38" y="463" type="line"/>
      <point x="38" y="516" type="line"/>
      <point x="432" y="516" type="line"/>
    </contour>
  </outline>
</glyph>
<glyph name="braceleft" format="1">
  <advance width="333"/>
  <unicode hex="007B"/>
  <outline>
    <contour>
      <point x="293" y="-191" type="line"/>
      <point x="243" y="-191" type="line" smooth="yes"/>
      <point x="187" y="-191"/>
      <point x="155" y="-142"/>
      <point x="155" y="-66" type="curve" smooth="yes"/>
      <point x="155" y="82" type="line" smooth="yes"/>
      <point x="155" y="163"/>
      <point x="142" y="242"/>
      <point x="83" y="242" type="curve"/>
      <point x="83" y="295" type="line"/>
      <point x="142" y="295"/>
      <point x="155" y="374"/>
      <point x="155" y="455" type="curve" smooth="yes"/>
      <point x="155" y="604" type="line" smooth="yes"/>
      <point x="155" y="680"/>
      <point x="187" y="729"/>
      <point x="243" y="729" type="curve" smooth="yes"/>
      <point x="293" y="729" type="line"/>
      <point x="293" y="676" type="line"/>
      <point x="273" y="676" type="line" smooth="yes"/>
      <point x="233" y="676"/>
      <point x="218" y="626"/>
      <point x="218" y="573" type="curve" smooth="yes"/>
      <point x="218" y="432" type="line" smooth="yes"/>
      <point x="218" y="322"/>
      <point x="161" y="278"/>
      <point x="148" y="270" type="curve"/>
      <point x="148" y="268" type="line"/>
      <point x="161" y="260"/>
      <point x="218" y="216"/>
      <point x="218" y="106" type="curve" smooth="yes"/>
      <point x="218" y="-35" type="line" smooth="yes"/>
      <point x="218" y="-89"/>
      <point x="233" y="-138"/>
      <point x="273" y="-138" type="curve" smooth="yes"/>
      <point x="293" y="-138" type="line"/>
    </contour>
  </outline>
</glyph>
<glyph name="bar" format="1">
  <advance width="222"/>
  <unicode hex="007C"/>
  <outline>
    <contour>
      <point x="85" y="-214" type="line"/>
      <point x="85" y="786" type="line"/>
      <point x="138" y="786" type="line"/>
      <point x="138" y="-214" type="line"/>
    </contour>
  </outline>
</glyph>
<glyph name="braceright" format="1">
  <advance width="333"/>
  <unicode hex="007D"/>
  <outline>
    <contour>
      <point x="40" y="729" type="line"/>
      <point x="90" y="729" type="line" smooth="yes"/>
      <point x="146" y="729"/>
      <point x="178" y="680"/>
      <point x="178" y="604" type="curve" smooth="yes"/>
      <point x="178" y="456" type="line" smooth="yes"/>
      <point x="178" y="375"/>
      <point x="191" y="296"/>
      <point x="250" y="296" type="curve"/>
      <point x="250" y="243" type="line"/>
      <point x="191" y="243"/>
      <point x="178" y="164"/>
      <point x="178" y="83" type="curve" smooth="yes"/>
      <point x="178" y="-66" type="line" smooth="yes"/>
      <point x="178" y="-142"/>
      <point x="146" y="-191"/>
      <point x="90" y="-191" type="curve" smooth="yes"/>
      <point x="40" y="-191" type="line"/>
      <point x="40" y="-138" type="line"/>
      <point x="60" y="-138" type="line" smooth="yes"/>
      <point x="100" y="-138"/>
      <point x="115" y="-89"/>
      <point x="115" y="-35" type="curve" smooth="yes"/>
      <point x="115" y="106" type="line" smooth="yes"/>
      <point x="115" y="216"/>
      <point x="172" y="260"/>
      <point x="185" y="268" type="curve"/>
      <point x="185" y="270" type="line"/>
      <point x="172" y="278"/>
      <point x="115" y="322"/>
      <point x="115" y="432" type="curve" smooth="yes"/>
      <point x="115" y="573" type="line" smooth="yes"/>
      <point x="115" y="626"/>
      <point x="100" y="676"/>
      <point x="60" y="676" type="curve" smooth="yes"/>
      <point x="40" y="676" type="line"/>
    </contour>
  </outline>
</glyph>
<glyph name="asciitilde" format="1">
  <advance width="600"/>
  <unicode hex="007E"/>
  <outline>
    <contour>
      <point x="495" y="315" type="curve"/>
      <point x="531" y="279" type="line"/>
      <point x="502" y="236"/>
      <point x="468" y="193"/>
      <point x="406" y="193" type="curve" smooth="yes"/>
      <point x="366" y="193"/>
      <point x="331" y="209"/>
      <point x="296" y="226" type="curve" smooth="yes"/>
      <point x="261" y="242"/>
      <point x="228" y="258"/>
      <point x="189" y="258" type="curve" smooth="yes"/>
      <point x="145" y="258"/>
      <point x="121" y="224"/>
      <point x="105" y="189" type="curve"/>
      <point x="69" y="225" type="line"/>
      <point x="90" y="268"/>
      <point x="128" y="311"/>
      <point x="194" y="311" type="curve" smooth="yes"/>
      <point x="231" y="311"/>
      <point x="272" y="295"/>
      <point x="309" y="279" type="curve" smooth="yes"/>
      <point x="348" y="262"/>
      <point x="382" y="246"/>
      <point x="407" y="246" type="curve" smooth="yes"/>
      <point x="447" y="246"/>
      <point x="472" y="280"/>
    </contour>
  </outline>
</glyph>
<glyph name="exclamdown" format="1">
  <advance width="241"/>
  <unicode hex="00A1"/>
  <outline>
    <contour>
      <point x="79" y="516" type="line"/>
      <point x="163" y="516" type="line"/>
      <point x="163" y="410" type="line"/>
      <point x="79" y="410" type="line"/>
    </contour>
    <contour>
      <point x="140" y="338" type="line"/>
      <point x="155" y="15" type="line"/>
      <point x="155" y="-191" type="line"/>
      <point x="87" y="-191" type="line"/>
      <point x="87" y="15" type="line"/>
      <point x="102" y="338" type="line"/>
    </contour>
  </outline>
</glyph>
<glyph name="cent" format="1">
  <advance width="556"/>
  <unicode hex="00A2"/>
  <outline>
    <contour>
      <point x="507" y="354" type="curve"/>
      <point x="444" y="354" type="line"/>
      <point x="428" y="429"/>
      <point x="385" y="475"/>
      <point x="309" y="478" type="curve"/>
      <point x="309" y="38" type="line"/>
      <point x="381" y="41"/>
      <point x="440" y="104"/>
      <point x="448" y="185" type="curve"/>
      <point x="511" y="185" type="line"/>
      <point x="495" y="64"/>
      <point x="418" y="-11"/>
      <point x="309" y="-15" type="curve"/>
      <point x="309" y="-116" type="line"/>
      <point x="270" y="-116" type="line"/>
      <point x="270" y="-14" type="line"/>
      <point x="130" y="-1"/>
      <point x="54" y="120"/>
      <point x="54" y="258" type="curve" smooth="yes"/>
      <point x="54" y="397"/>
      <point x="130" y="516"/>
      <point x="270" y="529" type="curve"/>
      <point x="270" y="618" type="line"/>
      <point x="309" y="618" type="line"/>
      <point x="309" y="531" type="line"/>
      <point x="413" y="528"/>
      <point x="494" y="468"/>
    </contour>
    <contour>
      <point x="270" y="39" type="curve"/>
      <point x="270" y="476" type="line"/>
      <point x="167" y="460"/>
      <point x="117" y="359"/>
      <point x="117" y="258" type="curve" smooth="yes"/>
      <point x="117" y="158"/>
      <point x="167" y="55"/>
    </contour>
  </outline>
</glyph>
<glyph name="sterling" format="1">
  <advance width="556"/>
  <unicode hex="00A3"/>
  <outline>
    <contour>
      <point x="46" y="330" type="line"/>
      <point x="46" y="362" type="line"/>
      <point x="109" y="362" type="line"/>
      <point x="78" y="411"/>
      <point x="54" y="463"/>
      <point x="54" y="523" type="curve" smooth="yes"/>
      <point x="54" y="666"/>
      <point x="167" y="729"/>
      <point x="282" y="729" type="curve" smooth="yes"/>
      <point x="430" y="729"/>
      <point x="517" y="640"/>
      <point x="514" y="492" type="curve"/>
      <point x="451" y="492" type="line"/>
      <point x="451" y="600"/>
      <point x="394" y="676"/>
      <point x="282" y="676" type="curve" smooth="yes"/>
      <point x="198" y="676"/>
      <point x="117" y="626"/>
      <point x="117" y="519" type="curve" smooth="yes"/>
      <point x="117" y="449"/>
      <point x="152" y="421"/>
      <point x="176" y="362" type="curve"/>
      <point x="336" y="362" type="line"/>
      <point x="336" y="330" type="line"/>
      <point x="194" y="330" type="line"/>
      <point x="209" y="306"/>
      <point x="218" y="261"/>
      <point x="218" y="233" type="curve" smooth="yes"/>
      <point x="218" y="159"/>
      <point x="163" y="93"/>
      <point x="108" y="51" type="curve"/>
      <point x="110" y="49" type="line"/>
      <point x="139" y="64"/>
      <point x="172" y="79"/>
      <point x="207" y="79" type="curve" smooth="yes"/>
      <point x="251" y="79"/>
      <point x="282" y="70"/>
      <point x="309" y="59" type="curve" smooth="yes"/>
      <point x="337" y="48"/>
      <point x="362" y="38"/>
      <point x="395" y="38" type="curve" smooth="yes"/>
      <point x="438" y="38"/>
      <point x="482" y="63"/>
      <point x="510" y="94" type="curve"/>
      <point x="542" y="46" type="line"/>
      <point x="498" y="7"/>
      <point x="456" y="-15"/>
      <point x="396" y="-15" type="curve" smooth="yes"/>
      <point x="309" y="-15"/>
      <point x="270" y="26"/>
      <point x="189" y="26" type="curve" smooth="yes"/>
      <point x="138" y="26"/>
      <point x="119" y="9"/>
      <point x="79" y="-15" type="curve"/>
      <point x="43" y="39" type="line"/>
      <point x="102" y="88"/>
      <point x="155" y="145"/>
      <point x="155" y="225" type="curve" smooth="yes"/>
      <point x="155" y="256"/>
      <point x="143" y="303"/>
      <point x="127" y="330" type="curve"/>
    </contour>
  </outline>
</glyph>
<glyph name="currency" format="1">
  <advance width="556"/>
  <unicode hex="00A4"/>
  <outline>
    <contour>
      <point x="94" y="346" type="curve" smooth="yes"/>
      <point x="94" y="238"/>
      <point x="177" y="156"/>
      <point x="279" y="156" type="curve" smooth="yes"/>
      <point x="381" y="156"/>
      <point x="464" y="238"/>
      <point x="464" y="346" type="curve" smooth="yes"/>
      <point x="464" y="454"/>
      <point x="381" y="536"/>
      <point x="279" y="536" type="curve" smooth="yes"/>
      <point x="177" y="536"/>
      <point x="94" y="454"/>
    </contour>
    <contour>
      <point x="29" y="136" type="line"/>
      <point x="86" y="193" type="line"/>
      <point x="51" y="236"/>
      <point x="31" y="287"/>
      <point x="31" y="346" type="curve" smooth="yes"/>
      <point x="31" y="405"/>
      <point x="50" y="457"/>
      <point x="85" y="500" type="curve"/>
      <point x="29" y="556" type="line"/>
      <point x="67" y="594" type="line"/>
      <point x="123" y="538" type="line"/>
      <point x="164" y="573"/>
      <point x="219" y="594"/>
      <point x="279" y="594" type="curve" smooth="yes"/>
      <point x="338" y="594"/>
      <point x="389" y="574"/>
      <point x="432" y="539" type="curve"/>
      <point x="487" y="594" type="line"/>
      <point x="525" y="556" type="line"/>
      <point x="471" y="502" type="line"/>
      <point x="506" y="459"/>
      <point x="527" y="406"/>
      <point x="527" y="346" type="curve" smooth="yes"/>
      <point x="527" y="286"/>
      <point x="506" y="233"/>
      <point x="471" y="190" type="curve"/>
      <point x="525" y="136" type="line"/>
      <point x="487" y="98" type="line"/>
      <point x="432" y="153" type="line"/>
      <point x="391" y="118"/>
      <point x="339" y="98"/>
      <point x="279" y="98" type="curve" smooth="yes"/>
      <point x="219" y="98"/>
      <point x="166" y="119"/>
      <point x="123" y="154" type="curve"/>
      <point x="67" y="98" type="line"/>
    </contour>
  </outline>
</glyph>
<glyph name="yen" format="1">
  <advance width="556"/>
  <unicode hex="00A5"/>
  <outline>
    <contour>
      <point x="110" y="304" type="line"/>
      <point x="110" y="349" type="line"/>
      <point x="216" y="349" type="line"/>
      <point x="6" y="714" type="line"/>
      <point x="78" y="714" type="line"/>
      <point x="277" y="349" type="line"/>
      <point x="478" y="714" type="line"/>
      <point x="547" y="714" type="line"/>
      <point x="336" y="349" type="line"/>
      <point x="445" y="349" type="line"/>
      <point x="445" y="304" type="line"/>
      <point x="314" y="304" type="line"/>
      <point x="308" y="294" type="line"/>
      <point x="308" y="221" type="line"/>
      <point x="445" y="221" type="line"/>
      <point x="445" y="176" type="line"/>
      <point x="308" y="176" type="line"/>
      <point x="308" y="0" type="line"/>
      <point x="245" y="0" type="line"/>
      <point x="245" y="176" type="line"/>
      <point x="110" y="176" type="line"/>
      <point x="110" y="221" type="line"/>
      <point x="245" y="221" type="line"/>
      <point x="245" y="294" type="line"/>
      <point x="239" y="304" type="line"/>
    </contour>
  </outline>
</glyph>
<glyph name="brokenbar" format="1">
  <advance width="222"/>
  <unicode hex="00A6"/>
  <outline>
    <contour>
      <point x="85" y="411" type="line"/>
      <point x="85" y="661" type="line"/>
      <point x="138" y="661" type="line"/>
      <point x="138" y="411" type="line"/>
    </contour>
    <contour>
      <point x="85" y="-89" type="line"/>
      <point x="85" y="161" type="line"/>
      <point x="138" y="161" type="line"/>
      <point x="138" y="-89" type="line"/>
    </contour>
  </outline>
</glyph>
<glyph name="section" format="1">
  <advance width="556"/>
  <unicode hex="00A7"/>
  <outline>
    <contour>
      <point x="511" y="231" type="curve" smooth="yes"/>
      <point x="511" y="164"/>
      <point x="461" y="115"/>
      <point x="402" y="91" type="curve"/>
      <point x="435" y="62"/>
      <point x="452" y="25"/>
      <point x="452" y="-18" type="curve" smooth="yes"/>
      <point x="452" y="-110"/>
      <point x="367" y="-161"/>
      <point x="283" y="-161" type="curve" smooth="yes"/>
      <point x="170" y="-161"/>
      <point x="98" y="-99"/>
      <point x="98" y="16" type="curve"/>
      <point x="161" y="16" type="line"/>
      <point x="158" y="-52"/>
      <point x="207" y="-108"/>
      <point x="277" y="-108" type="curve" smooth="yes"/>
      <point x="333" y="-108"/>
      <point x="389" y="-82"/>
      <point x="389" y="-19" type="curve" smooth="yes"/>
      <point x="389" y="131"/>
      <point x="45" y="141"/>
      <point x="45" y="337" type="curve" smooth="yes"/>
      <point x="45" y="404"/>
      <point x="95" y="453"/>
      <point x="154" y="477" type="curve"/>
      <point x="121" y="506"/>
      <point x="104" y="543"/>
      <point x="104" y="586" type="curve" smooth="yes"/>
      <point x="104" y="678"/>
      <point x="189" y="729"/>
      <point x="273" y="729" type="curve" smooth="yes"/>
      <point x="386" y="729"/>
      <point x="458" y="667"/>
      <point x="458" y="552" type="curve"/>
      <point x="395" y="552" type="line"/>
      <point x="398" y="620"/>
      <point x="349" y="676"/>
      <point x="279" y="676" type="curve" smooth="yes"/>
      <point x="223" y="676"/>
      <point x="167" y="650"/>
      <point x="167" y="587" type="curve" smooth="yes"/>
      <point x="167" y="437"/>
      <point x="511" y="427"/>
    </contour>
    <contour>
      <point x="448" y="230" type="curve" smooth="yes"/>
      <point x="448" y="335"/>
      <point x="275" y="389"/>
      <point x="190" y="447" type="curve"/>
      <point x="142" y="427"/>
      <point x="108" y="395"/>
      <point x="108" y="339" type="curve" smooth="yes"/>
      <point x="108" y="238"/>
      <point x="279" y="181"/>
      <point x="364" y="122" type="curve"/>
      <point x="412" y="142"/>
      <point x="448" y="174"/>
    </contour>
  </outline>
</glyph>
<glyph name="dieresis" format="1">
  <advance width="185"/>
  <unicode hex="00A8"/>
  <outline>
    <contour>
      <point x="38" y="610" type="line"/>
      <point x="-30" y="610" type="line"/>
      <point x="-30" y="711" type="line"/>
      <point x="38" y="711" type="line"/>
    </contour>
    <contour>
      <point x="215" y="610" type="line"/>
      <point x="147" y="610" type="line"/>
      <point x="147" y="711" type="line"/>
      <point x="215" y="711" type="line"/>
    </contour>
  </outline>
</glyph>
<glyph name="copyright" format="1">
  <advance width="800"/>
  <unicode hex="00A9"/>
  <outline>
    <contour>
      <point x="594" y="435" type="curve"/>
      <point x="543" y="435" type="line"/>
      <point x="531" y="495"/>
      <point x="483" y="540"/>
      <point x="410" y="541" type="curve" smooth="yes"/>
      <point x="302" y="541"/>
      <point x="245" y="461"/>
      <point x="245" y="357" type="curve" smooth="yes"/>
      <point x="245" y="253"/>
      <point x="302" y="173"/>
      <point x="410" y="173" type="curve" smooth="yes"/>
      <point x="483" y="173"/>
      <point x="531" y="219"/>
      <point x="543" y="279" type="curve"/>
      <point x="594" y="279" type="line"/>
      <point x="581" y="182"/>
      <point x="503" y="128"/>
      <point x="409" y="128" type="curve" smooth="yes"/>
      <point x="273" y="128"/>
      <point x="192" y="225"/>
      <point x="192" y="357" type="curve" smooth="yes"/>
      <point x="192" y="489"/>
      <point x="273" y="586"/>
      <point x="409" y="586" type="curve" smooth="yes"/>
      <point x="503" y="586"/>
      <point x="581" y="532"/>
    </contour>
    <contour>
      <point x="714" y="357" type="curve" smooth="yes"/>
      <point x="714" y="535"/>
      <point x="579" y="676"/>
      <point x="400" y="676" type="curve" smooth="yes"/>
      <point x="219" y="676"/>
      <point x="86" y="535"/>
      <point x="86" y="357" type="curve" smooth="yes"/>
      <point x="86" y="179"/>
      <point x="219" y="38"/>
      <point x="400" y="38" type="curve" smooth="yes"/>
      <point x="579" y="38"/>
      <point x="714" y="179"/>
    </contour>
    <contour>
      <point x="772" y="357" type="curve" smooth="yes"/>
      <point x="772" y="148"/>
      <point x="611" y="-15"/>
      <point x="400" y="-15" type="curve" smooth="yes"/>
      <point x="189" y="-15"/>
      <point x="28" y="148"/>
      <point x="28" y="357" type="curve" smooth="yes"/>
      <point x="28" y="566"/>
      <point x="189" y="729"/>
      <point x="400" y="729" type="curve" smooth="yes"/>
      <point x="611" y="729"/>
      <point x="772" y="566"/>
    </contour>
  </outline>
</glyph>
<glyph name="ordfeminine" format="1">
  <advance width="311"/>
  <unicode hex="00AA"/>
  <outline>
    <contour>
      <point x="54" y="597" type="curve"/>
      <point x="7" y="597" type="line"/>
      <point x="11" y="674"/>
      <point x="66" y="706"/>
      <point x="147" y="706" type="curve" smooth="yes"/>
      <point x="213" y="706"/>
      <point x="275" y="689"/>
      <point x="275" y="606" type="curve" smooth="yes"/>
      <point x="275" y="434" type="line" smooth="yes"/>
      <point x="276" y="419"/>
      <point x="285" y="411"/>
      <point x="300" y="411" type="curve" smooth="yes"/>
      <point x="305" y="411"/>
      <point x="309" y="412"/>
      <point x="313" y="414" type="curve"/>
      <point x="313" y="380" type="line"/>
      <point x="306" y="379"/>
      <point x="297" y="377"/>
      <point x="286" y="377" type="curve" smooth="yes"/>
      <point x="245" y="377"/>
      <point x="238" y="397"/>
      <point x="238" y="433" type="curve"/>
      <point x="236" y="433" type="line"/>
      <point x="209" y="390"/>
      <point x="168" y="368"/>
      <point x="113" y="368" type="curve" smooth="yes"/>
      <point x="45" y="368"/>
      <point x="-5" y="396"/>
      <point x="-5" y="464" type="curve" smooth="yes"/>
      <point x="-5" y="557"/>
      <point x="86" y="561"/>
      <point x="175" y="569" type="curve" smooth="yes"/>
      <point x="210" y="573"/>
      <point x="228" y="577"/>
      <point x="228" y="600" type="curve" smooth="yes"/>
      <point x="228" y="653"/>
      <point x="188" y="667"/>
      <point x="140" y="667" type="curve" smooth="yes"/>
      <point x="93" y="667"/>
      <point x="55" y="645"/>
    </contour>
    <contour>
      <point x="228" y="502" type="curve" smooth="yes"/>
      <point x="228" y="549" type="line"/>
      <point x="226" y="549" type="line"/>
      <point x="222" y="540"/>
      <point x="203" y="538"/>
      <point x="192" y="535" type="curve" smooth="yes"/>
      <point x="111" y="521"/>
      <point x="42" y="522"/>
      <point x="42" y="466" type="curve" smooth="yes"/>
      <point x="42" y="430"/>
      <point x="80" y="407"/>
      <point x="111" y="407" type="curve" smooth="yes"/>
      <point x="173" y="407"/>
      <point x="228" y="443"/>
    </contour>
  </outline>
</glyph>
<glyph name="guillemotleft" format="1">
  <advance width="426"/>
  <unicode hex="00AB"/>
  <outline>
    <contour>
      <point x="193" y="119" type="line"/>
      <point x="60" y="244" type="line"/>
      <point x="60" y="306" type="line"/>
      <point x="193" y="431" type="line"/>
      <point x="193" y="364" type="line"/>
      <point x="99" y="275" type="line"/>
      <point x="193" y="186" type="line"/>
    </contour>
    <contour>
      <point x="354" y="119" type="line"/>
      <point x="221" y="244" type="line"/>
      <point x="221" y="306" type="line"/>
      <point x="354" y="431" type="line"/>
      <point x="354" y="364" type="line"/>
      <point x="260" y="275" type="line"/>
      <point x="354" y="186" type="line"/>
    </contour>
  </outline>
</glyph>
<glyph name="logicalnot" format="1">
  <advance width="600"/>
  <unicode hex="00AC"/>
  <outline>
    <contour>
      <point x="499" y="111" type="line"/>
      <point x="499" y="325" type="line"/>
      <point x="49" y="325" type="line"/>
      <point x="49" y="378" type="line"/>
      <point x="552" y="378" type="line"/>
      <point x="552" y="111" type="line"/>
    </contour>
  </outline>
</glyph>
<glyph name="uni00AD" format="1">
  <advance width="370"/>
  <unicode hex="00AD"/>
  <outline>
    <contour>
      <point x="310" y="246" type="line"/>
      <point x="60" y="246" type="line"/>
      <point x="60" y="304" type="line"/>
      <point x="310" y="304" type="line"/>
    </contour>
  </outline>
</glyph>
<glyph name="registered" format="1">
  <advance width="800"/>
  <unicode hex="00AE"/>
  <outline>
    <contour>
      <point x="318" y="378" type="line"/>
      <point x="388" y="378" type="line" smooth="yes"/>
      <point x="453" y="378"/>
      <point x="517" y="380"/>
      <point x="517" y="453" type="curve" smooth="yes"/>
      <point x="517" y="513"/>
      <point x="467" y="527"/>
      <point x="415" y="527" type="curve" smooth="yes"/>
      <point x="318" y="527" type="line"/>
    </contour>
    <contour>
      <point x="318" y="333" type="line"/>
      <point x="318" y="142" type="line"/>
      <point x="265" y="142" type="line"/>
      <point x="265" y="572" type="line"/>
      <point x="430" y="572" type="line" smooth="yes"/>
      <point x="527" y="572"/>
      <point x="570" y="530"/>
      <point x="570" y="453" type="curve" smooth="yes"/>
      <point x="570" y="377"/>
      <point x="521" y="344"/>
      <point x="462" y="333" type="curve"/>
      <point x="590" y="142" type="line"/>
      <point x="528" y="142" type="line"/>
      <point x="407" y="333" type="line"/>
    </contour>
    <contour>
      <point x="400" y="676" type="curve" smooth="yes"/>
      <point x="219" y="676"/>
      <point x="86" y="535"/>
      <point x="86" y="357" type="curve" smooth="yes"/>
      <point x="86" y="179"/>
      <point x="219" y="38"/>
      <point x="400" y="38" type="curve" smooth="yes"/>
      <point x="579" y="38"/>
      <point x="714" y="179"/>
      <point x="714" y="357" type="curve" smooth="yes"/>
      <point x="714" y="535"/>
      <point x="579" y="676"/>
    </contour>
    <contour>
      <point x="400" y="729" type="curve" smooth="yes"/>
      <point x="611" y="729"/>
      <point x="772" y="566"/>
      <point x="772" y="357" type="curve" smooth="yes"/>
      <point x="772" y="148"/>
      <point x="611" y="-15"/>
      <point x="400" y="-15" type="curve" smooth="yes"/>
      <point x="189" y="-15"/>
      <point x="28" y="148"/>
      <point x="28" y="357" type="curve" smooth="yes"/>
      <point x="28" y="566"/>
      <point x="189" y="729"/>
    </contour>
  </outline>
</glyph>
<glyph name="macron" format="1">
  <advance width="185"/>
  <unicode hex="00AF"/>
  <outline>
    <contour>
      <point x="257" y="638" type="line"/>
      <point x="-72" y="638" type="line"/>
      <point x="-72" y="683" type="line"/>
      <point x="257" y="683" type="line"/>
    </contour>
  </outline>
</glyph>
<glyph name="degree" format="1">
  <advance width="400"/>
  <unicode hex="00B0"/>
  <outline>
    <contour>
      <point x="95" y="562" type="curve" smooth="yes"/>
      <point x="95" y="503"/>
      <point x="141" y="457"/>
      <point x="200" y="457" type="curve" smooth="yes"/>
      <point x="258" y="457"/>
      <point x="305" y="503"/>
      <point x="305" y="562" type="curve" smooth="yes"/>
      <point x="305" y="620"/>
      <point x="258" y="667"/>
      <point x="200" y="667" type="curve" smooth="yes"/>
      <point x="141" y="667"/>
      <point x="95" y="620"/>
    </contour>
    <contour>
      <point x="56" y="562" type="curve" smooth="yes"/>
      <point x="56" y="641"/>
      <point x="119" y="706"/>
      <point x="200" y="706" type="curve" smooth="yes"/>
      <point x="279" y="706"/>
      <point x="344" y="641"/>
      <point x="344" y="562" type="curve" smooth="yes"/>
      <point x="344" y="481"/>
      <point x="279" y="418"/>
      <point x="200" y="418" type="curve" smooth="yes"/>
      <point x="119" y="418"/>
      <point x="56" y="481"/>
    </contour>
  </outline>
</glyph>
<glyph name="plusminus" format="1">
  <advance width="600"/>
  <unicode hex="00B1"/>
  <outline>
    <contour>
      <point x="49" y="0" type="line"/>
      <point x="49" y="53" type="line"/>
      <point x="552" y="53" type="line"/>
      <point x="552" y="0" type="line"/>
    </contour>
    <contour>
      <point x="274" y="323" type="line"/>
      <point x="274" y="503" type="line"/>
      <point x="327" y="503" type="line"/>
      <point x="327" y="323" type="line"/>
      <point x="552" y="323" type="line"/>
      <point x="552" y="270" type="line"/>
      <point x="327" y="270" type="line"/>
      <point x="327" y="90" type="line"/>
      <point x="274" y="90" type="line"/>
      <point x="274" y="270" type="line"/>
      <point x="50" y="270" type="line"/>
      <point x="50" y="323" type="line"/>
    </contour>
  </outline>
</glyph>
<glyph name="twosuperior" format="1">
  <advance width="333"/>
  <unicode hex="00B2"/>
  <outline>
    <contour>
      <point x="71" y="553" type="curve"/>
      <point x="24" y="553" type="line"/>
      <point x="21" y="645"/>
      <point x="70" y="706"/>
      <point x="174" y="706" type="curve" smooth="yes"/>
      <point x="258" y="706"/>
      <point x="320" y="666"/>
      <point x="320" y="581" type="curve" smooth="yes"/>
      <point x="320" y="510"/>
      <point x="264" y="467"/>
      <point x="205" y="432" type="curve" smooth="yes"/>
      <point x="162" y="404"/>
      <point x="85" y="374"/>
      <point x="69" y="313" type="curve"/>
      <point x="317" y="313" type="line"/>
      <point x="317" y="274" type="line"/>
      <point x="15" y="274" type="line"/>
      <point x="18" y="404"/>
      <point x="157" y="433"/>
      <point x="234" y="505" type="curve" smooth="yes"/>
      <point x="259" y="529"/>
      <point x="273" y="550"/>
      <point x="273" y="585" type="curve" smooth="yes"/>
      <point x="273" y="637"/>
      <point x="225" y="667"/>
      <point x="170" y="667" type="curve" smooth="yes"/>
      <point x="97" y="667"/>
      <point x="71" y="612"/>
    </contour>
  </outline>
</glyph>
<glyph name="threesuperior" format="1">
  <advance width="333"/>
  <unicode hex="00B3"/>
  <outline>
    <contour>
      <point x="135" y="478" type="line"/>
      <point x="135" y="517" type="line"/>
      <point x="170" y="517" type="line" smooth="yes"/>
      <point x="213" y="517"/>
      <point x="263" y="540"/>
      <point x="263" y="591" type="curve" smooth="yes"/>
      <point x="263" y="643"/>
      <point x="217" y="667"/>
      <point x="165" y="667" type="curve" smooth="yes"/>
      <point x="100" y="667"/>
      <point x="64" y="624"/>
      <point x="65" y="564" type="curve"/>
      <point x="18" y="564" type="line"/>
      <point x="19" y="648"/>
      <point x="72" y="706"/>
      <point x="165" y="706" type="curve" smooth="yes"/>
      <point x="240" y="706"/>
      <point x="310" y="672"/>
      <point x="310" y="595" type="curve" smooth="yes"/>
      <point x="310" y="548"/>
      <point x="282" y="513"/>
      <point x="233" y="502" type="curve"/>
      <point x="233" y="500" type="line"/>
      <point x="293" y="492"/>
      <point x="327" y="453"/>
      <point x="327" y="397" type="curve" smooth="yes"/>
      <point x="327" y="311"/>
      <point x="254" y="265"/>
      <point x="166" y="265" type="curve" smooth="yes"/>
      <point x="67" y="265"/>
      <point x="1" y="317"/>
      <point x="8" y="412" type="curve"/>
      <point x="55" y="412" type="line"/>
      <point x="52" y="348"/>
      <point x="94" y="304"/>
      <point x="165" y="304" type="curve" smooth="yes"/>
      <point x="222" y="304"/>
      <point x="280" y="337"/>
      <point x="280" y="394" type="curve" smooth="yes"/>
      <point x="280" y="450"/>
      <point x="230" y="478"/>
      <point x="170" y="478" type="curve" smooth="yes"/>
    </contour>
  </outline>
</glyph>
<glyph name="acute" format="1">
  <advance width="185"/>
  <unicode hex="00B4"/>
  <outline>
    <contour>
      <point x="216" y="731" type="line"/>
      <point x="84" y="590" type="line"/>
      <point x="33" y="590" type="line"/>
      <point x="138" y="731" type="line"/>
    </contour>
  </outline>
</glyph>
<glyph name="paragraph" format="1">
  <advance width="600"/>
  <unicode hex="00B6"/>
  <outline>
    <contour>
      <point x="273" y="-177" type="line"/>
      <point x="273" y="328" type="line"/>
      <point x="156" y="328"/>
      <point x="66" y="414"/>
      <point x="66" y="518" type="curve" smooth="yes"/>
      <point x="66" y="645"/>
      <point x="148" y="714"/>
      <point x="289" y="714" type="curve" smooth="yes"/>
      <point x="519" y="714" type="line"/>
      <point x="519" y="-177" type="line"/>
      <point x="456" y="-177" type="line"/>
      <point x="456" y="661" type="line"/>
      <point x="336" y="661" type="line"/>
      <point x="336" y="-177" type="line"/>
    </contour>
  </outline>
</glyph>
<glyph name="periodcentered" format="1">
  <advance width="278"/>
  <unicode hex="00B7"/>
  <outline>
    <contour>
      <point x="139" y="375" type="curve" smooth="yes"/>
      <point x="171" y="375"/>
      <point x="198" y="347"/>
      <point x="198" y="315" type="curve" smooth="yes"/>
      <point x="198" y="284"/>
      <point x="170" y="257"/>
      <point x="139" y="257" type="curve" smooth="yes"/>
      <point x="107" y="257"/>
      <point x="80" y="285"/>
      <point x="80" y="317" type="curve" smooth="yes"/>
      <point x="80" y="348"/>
      <point x="108" y="375"/>
    </contour>
  </outline>
</glyph>
<glyph name="cedilla" format="1">
  <advance width="185"/>
  <unicode hex="00B8"/>
  <outline>
    <contour>
      <point x="91" y="0" type="line"/>
      <point x="126" y="0" type="line"/>
      <point x="82" y="-54" type="line"/>
      <point x="101" y="-50"/>
      <point x="115" y="-50"/>
      <point x="132" y="-51" type="curve" smooth="yes"/>
      <point x="157" y="-55"/>
      <point x="198" y="-70"/>
      <point x="198" y="-117" type="curve" smooth="yes"/>
      <point x="198" y="-177"/>
      <point x="139" y="-203"/>
      <point x="88" y="-203" type="curve" smooth="yes"/>
      <point x="56" y="-203"/>
      <point x="23" y="-197"/>
      <point x="-6" y="-182" type="curve"/>
      <point x="8" y="-150" type="line"/>
      <point x="25" y="-157"/>
      <point x="58" y="-164"/>
      <point x="87" y="-164" type="curve" smooth="yes"/>
      <point x="115" y="-164"/>
      <point x="140" y="-152"/>
      <point x="140" y="-121" type="curve" smooth="yes"/>
      <point x="140" y="-97"/>
      <point x="120" y="-83"/>
      <point x="97" y="-83" type="curve" smooth="yes"/>
      <point x="74" y="-83"/>
      <point x="57" y="-86"/>
      <point x="46" y="-91" type="curve"/>
      <point x="30" y="-76" type="line"/>
    </contour>
  </outline>
</glyph>
<glyph name="onesuperior" format="1">
  <advance width="333"/>
  <unicode hex="00B9"/>
  <outline>
    <contour>
      <point x="35" y="584" type="line"/>
      <point x="35" y="623" type="line"/>
      <point x="107" y="626"/>
      <point x="150" y="628"/>
      <point x="163" y="697" type="curve"/>
      <point x="203" y="697" type="line"/>
      <point x="203" y="274" type="line"/>
      <point x="156" y="274" type="line"/>
      <point x="156" y="584" type="line"/>
    </contour>
  </outline>
</glyph>
<glyph name="ordmasculine" format="1">
  <advance width="334"/>
  <unicode hex="00BA"/>
  <outline>
    <contour>
      <point x="167" y="407" type="curve" smooth="yes"/>
      <point x="244" y="407"/>
      <point x="284" y="473"/>
      <point x="284" y="537" type="curve" smooth="yes"/>
      <point x="284" y="601"/>
      <point x="244" y="667"/>
      <point x="167" y="667" type="curve" smooth="yes"/>
      <point x="90" y="667"/>
      <point x="50" y="601"/>
      <point x="50" y="537" type="curve" smooth="yes"/>
      <point x="50" y="473"/>
      <point x="90" y="407"/>
    </contour>
    <contour>
      <point x="162" y="368" type="curve" smooth="yes"/>
      <point x="59" y="368"/>
      <point x="3" y="443"/>
      <point x="3" y="537" type="curve" smooth="yes"/>
      <point x="3" y="631"/>
      <point x="59" y="706"/>
      <point x="162" y="706" type="curve" smooth="yes"/>
      <point x="275" y="706"/>
      <point x="331" y="631"/>
      <point x="331" y="537" type="curve" smooth="yes"/>
      <point x="331" y="443"/>
      <point x="275" y="368"/>
    </contour>
  </outline>
</glyph>
<glyph name="guillemotright" format="1">
  <advance width="426"/>
  <unicode hex="00BB"/>
  <outline>
    <contour>
      <point x="72" y="119" type="line"/>
      <point x="72" y="186" type="line"/>
      <point x="166" y="275" type="line"/>
      <point x="72" y="364" type="line"/>
      <point x="72" y="431" type="line"/>
      <point x="205" y="306" type="line"/>
      <point x="205" y="244" type="line"/>
    </contour>
    <contour>
      <point x="233" y="119" type="line"/>
      <point x="233" y="186" type="line"/>
      <point x="327" y="275" type="line"/>
      <point x="233" y="364" type="line"/>
      <point x="233" y="431" type="line"/>
      <point x="366" y="306" type="line"/>
      <point x="366" y="244" type="line"/>
    </contour>
  </outline>
</glyph>
<glyph name="onequarter" format="1">
  <advance width="834"/>
  <unicode hex="00BC"/>
  <outline>
    <contour>
      <point x="640" y="355" type="line"/>
      <point x="478" y="139" type="line"/>
      <point x="642" y="139" type="line"/>
      <point x="642" y="355" type="line"/>
    </contour>
    <contour>
      <point x="642" y="0" type="line"/>
      <point x="642" y="100" type="line"/>
      <point x="432" y="100" type="line"/>
      <point x="432" y="139" type="line"/>
      <point x="645" y="423" type="line"/>
      <point x="689" y="423" type="line"/>
      <point x="689" y="139" type="line"/>
      <point x="757" y="139" type="line"/>
      <point x="757" y="100" type="line"/>
      <point x="689" y="100" type="line"/>
      <point x="689" y="0" type="line"/>
    </contour>
    <contour>
      <point x="48" y="584" type="line"/>
      <point x="48" y="623" type="line"/>
      <point x="120" y="626"/>
      <point x="163" y="628"/>
      <point x="176" y="697" type="curve"/>
      <point x="216" y="697" type="line"/>
      <point x="216" y="274" type="line"/>
      <point x="169" y="274" type="line"/>
      <point x="169" y="584" type="line"/>
    </contour>
    <contour>
      <point x="133" y="-34" type="line"/>
      <point x="586" y="725" type="line"/>
      <point x="633" y="725" type="line"/>
      <point x="181" y="-34" type="line"/>
    </contour>
  </outline>
</glyph>
<glyph name="onehalf" format="1">
  <advance width="834"/>
  <unicode hex="00BD"/>
  <outline>
    <contour>
      <point x="536" y="279" type="curve"/>
      <point x="489" y="279" type="line"/>
      <point x="486" y="371"/>
      <point x="535" y="432"/>
      <point x="639" y="432" type="curve" smooth="yes"/>
      <point x="723" y="432"/>
      <point x="785" y="392"/>
      <point x="785" y="307" type="curve" smooth="yes"/>
      <point x="785" y="236"/>
      <point x="729" y="193"/>
      <point x="670" y="158" type="curve" smooth="yes"/>
      <point x="627" y="130"/>
      <point x="550" y="100"/>
      <point x="534" y="39" type="curve"/>
      <point x="782" y="39" type="line"/>
      <point x="782" y="0" type="line"/>
      <point x="480" y="0" type="line"/>
      <point x="483" y="130"/>
      <point x="622" y="159"/>
      <point x="699" y="231" type="curve" smooth="yes"/>
      <point x="724" y="255"/>
      <point x="738" y="276"/>
      <point x="738" y="311" type="curve" smooth="yes"/>
      <point x="738" y="363"/>
      <point x="690" y="393"/>
      <point x="635" y="393" type="curve" smooth="yes"/>
      <point x="562" y="393"/>
      <point x="536" y="338"/>
    </contour>
    <contour>
      <point x="48" y="584" type="line"/>
      <point x="48" y="623" type="line"/>
      <point x="120" y="626"/>
      <point x="163" y="628"/>
      <point x="176" y="697" type="curve"/>
      <point x="216" y="697" type="line"/>
      <point x="216" y="274" type="line"/>
      <point x="169" y="274" type="line"/>
      <point x="169" y="584" type="line"/>
    </contour>
    <contour>
      <point x="133" y="-34" type="line"/>
      <point x="586" y="725" type="line"/>
      <point x="633" y="725" type="line"/>
      <point x="181" y="-34" type="line"/>
    </contour>
  </outline>
</glyph>
<glyph name="threequarters" format="1">
  <advance width="834"/>
  <unicode hex="00BE"/>
  <outline>
    <contour>
      <point x="640" y="355" type="line"/>
      <point x="478" y="139" type="line"/>
      <point x="642" y="139" type="line"/>
      <point x="642" y="355" type="line"/>
    </contour>
    <contour>
      <point x="642" y="0" type="line"/>
      <point x="642" y="100" type="line"/>
      <point x="432" y="100" type="line"/>
      <point x="432" y="139" type="line"/>
      <point x="645" y="423" type="line"/>
      <point x="689" y="423" type="line"/>
      <point x="689" y="139" type="line"/>
      <point x="757" y="139" type="line"/>
      <point x="757" y="100" type="line"/>
      <point x="689" y="100" type="line"/>
      <point x="689" y="0" type="line"/>
    </contour>
    <contour>
      <point x="173" y="-34" type="line"/>
      <point x="626" y="725" type="line"/>
      <point x="673" y="725" type="line"/>
      <point x="221" y="-34" type="line"/>
    </contour>
    <contour>
      <point x="135" y="478" type="line"/>
      <point x="135" y="517" type="line"/>
      <point x="170" y="517" type="line" smooth="yes"/>
      <point x="213" y="517"/>
      <point x="263" y="540"/>
      <point x="263" y="591" type="curve" smooth="yes"/>
      <point x="263" y="643"/>
      <point x="217" y="667"/>
      <point x="165" y="667" type="curve" smooth="yes"/>
      <point x="100" y="667"/>
      <point x="64" y="624"/>
      <point x="65" y="564" type="curve"/>
      <point x="18" y="564" type="line"/>
      <point x="19" y="648"/>
      <point x="72" y="706"/>
      <point x="165" y="706" type="curve" smooth="yes"/>
      <point x="240" y="706"/>
      <point x="310" y="672"/>
      <point x="310" y="595" type="curve" smooth="yes"/>
      <point x="310" y="548"/>
      <point x="282" y="513"/>
      <point x="233" y="502" type="curve"/>
      <point x="233" y="500" type="line"/>
      <point x="293" y="492"/>
      <point x="327" y="453"/>
      <point x="327" y="397" type="curve" smooth="yes"/>
      <point x="327" y="311"/>
      <point x="254" y="265"/>
      <point x="166" y="265" type="curve" smooth="yes"/>
      <point x="67" y="265"/>
      <point x="1" y="317"/>
      <point x="8" y="412" type="curve"/>
      <point x="55" y="412" type="line"/>
      <point x="52" y="348"/>
      <point x="94" y="304"/>
      <point x="165" y="304" type="curve" smooth="yes"/>
      <point x="222" y="304"/>
      <point x="280" y="337"/>
      <point x="280" y="394" type="curve" smooth="yes"/>
      <point x="280" y="450"/>
      <point x="230" y="478"/>
      <point x="170" y="478" type="curve" smooth="yes"/>
    </contour>
  </outline>
</glyph>
<glyph name="questiondown" format="1">
  <advance width="537"/>
  <unicode hex="00BF"/>
  <outline>
    <contour>
      <point x="307" y="516" type="line"/>
      <point x="307" y="410" type="line"/>
      <point x="223" y="410" type="line"/>
      <point x="223" y="516" type="line"/>
    </contour>
    <contour>
      <point x="421" y="29" type="curve"/>
      <point x="484" y="29" type="line"/>
      <point x="484" y="-113"/>
      <point x="401" y="-206"/>
      <point x="257" y="-206" type="curve" smooth="yes"/>
      <point x="146" y="-206"/>
      <point x="54" y="-137"/>
      <point x="54" y="-21" type="curve" smooth="yes"/>
      <point x="54" y="54"/>
      <point x="90" y="101"/>
      <point x="141" y="149" type="curve" smooth="yes"/>
      <point x="225" y="233"/>
      <point x="231" y="222"/>
      <point x="234" y="344" type="curve"/>
      <point x="297" y="344" type="line"/>
      <point x="300" y="220"/>
      <point x="266" y="189"/>
      <point x="182" y="111" type="curve" smooth="yes"/>
      <point x="145" y="76"/>
      <point x="117" y="34"/>
      <point x="117" y="-18" type="curve" smooth="yes"/>
      <point x="117" y="-98"/>
      <point x="183" y="-153"/>
      <point x="260" y="-153" type="curve" smooth="yes"/>
      <point x="368" y="-153"/>
      <point x="424" y="-74"/>
    </contour>
  </outline>
</glyph>
<glyph name="Acircumflex" format="1">
  <advance width="630"/>
  <unicode hex="00C2"/>
  <outline>
    <contour>
      <point x="316" y="646" type="line"/>
      <point x="173" y="280" type="line"/>
      <point x="454" y="280" type="line"/>
    </contour>
    <contour>
      <point x="-7" y="0" type="line"/>
      <point x="281" y="714" type="line"/>
      <point x="357" y="714" type="line"/>
      <point x="637" y="0" type="line"/>
      <point x="564" y="0" type="line"/>
      <point x="477" y="222" type="line"/>
      <point x="152" y="222" type="line"/>
      <point x="66" y="0" type="line"/>
    </contour>
    <contour>
      <point x="351" y="920" type="line"/>
      <point x="465" y="779" type="line"/>
      <point x="400" y="779" type="line"/>
      <point x="314" y="881" type="line"/>
      <point x="226" y="779" type="line"/>
      <point x="168" y="779" type="line"/>
      <point x="282" y="920" type="line"/>
    </contour>
  </outline>
</glyph>
<glyph name="Atilde" format="1">
  <advance width="630"/>
  <unicode hex="00C3"/>
  <outline>
    <contour>
      <point x="316" y="646" type="line"/>
      <point x="173" y="280" type="line"/>
      <point x="454" y="280" type="line"/>
    </contour>
    <contour>
      <point x="-7" y="0" type="line"/>
      <point x="281" y="714" type="line"/>
      <point x="357" y="714" type="line"/>
      <point x="637" y="0" type="line"/>
      <point x="564" y="0" type="line"/>
      <point x="477" y="222" type="line"/>
      <point x="152" y="222" type="line"/>
      <point x="66" y="0" type="line"/>
    </contour>
    <contour>
      <point x="436" y="900" type="curve"/>
      <point x="474" y="900" type="line"/>
      <point x="466" y="855"/>
      <point x="440" y="805"/>
      <point x="387" y="805" type="curve" smooth="yes"/>
      <point x="332" y="805"/>
      <point x="288" y="851"/>
      <point x="249" y="851" type="curve" smooth="yes"/>
      <point x="222" y="851"/>
      <point x="207" y="833"/>
      <point x="199" y="800" type="curve"/>
      <point x="160" y="800" type="line"/>
      <point x="165" y="847"/>
      <point x="197" y="896"/>
      <point x="249" y="896" type="curve" smooth="yes"/>
      <point x="306" y="896"/>
      <point x="347" y="852"/>
      <point x="384" y="852" type="curve" smooth="yes"/>
      <point x="415" y="852"/>
      <point x="428" y="873"/>
    </contour>
  </outline>
</glyph>
<glyph name="Adieresis" format="1">
  <advance width="630"/>
  <unicode hex="00C4"/>
  <outline>
    <contour>
      <point x="316" y="646" type="line"/>
      <point x="173" y="280" type="line"/>
      <point x="454" y="280" type="line"/>
    </contour>
    <contour>
      <point x="-7" y="0" type="line"/>
      <point x="281" y="714" type="line"/>
      <point x="357" y="714" type="line"/>
      <point x="637" y="0" type="line"/>
      <point x="564" y="0" type="line"/>
      <point x="477" y="222" type="line"/>
      <point x="152" y="222" type="line"/>
      <point x="66" y="0" type="line"/>
    </contour>
    <contour>
      <point x="262" y="800" type="line"/>
      <point x="194" y="800" type="line"/>
      <point x="194" y="901" type="line"/>
      <point x="262" y="901" type="line"/>
    </contour>
    <contour>
      <point x="439" y="800" type="line"/>
      <point x="371" y="800" type="line"/>
      <point x="371" y="901" type="line"/>
      <point x="439" y="901" type="line"/>
    </contour>
  </outline>
</glyph>
<glyph name="Aring" format="1">
  <advance width="630"/>
  <unicode hex="00C5"/>
  <outline>
    <contour>
      <point x="316" y="646" type="line"/>
      <point x="173" y="280" type="line"/>
      <point x="454" y="280" type="line"/>
    </contour>
    <contour>
      <point x="-7" y="0" type="line"/>
      <point x="281" y="714" type="line"/>
      <point x="357" y="714" type="line"/>
      <point x="637" y="0" type="line"/>
      <point x="564" y="0" type="line"/>
      <point x="477" y="222" type="line"/>
      <point x="152" y="222" type="line"/>
      <point x="66" y="0" type="line"/>
    </contour>
    <contour>
      <point x="250" y="860" type="curve" smooth="yes"/>
      <point x="250" y="821"/>
      <point x="279" y="792"/>
      <point x="318" y="792" type="curve" smooth="yes"/>
      <point x="357" y="792"/>
      <point x="386" y="821"/>
      <point x="386" y="860" type="curve" smooth="yes"/>
      <point x="386" y="899"/>
      <point x="357" y="928"/>
      <point x="318" y="928" type="curve" smooth="yes"/>
      <point x="279" y="928"/>
      <point x="250" y="899"/>
    </contour>
    <contour>
      <point x="211" y="860" type="curve" smooth="yes"/>
      <point x="211" y="919"/>
      <point x="259" y="967"/>
      <point x="318" y="967" type="curve" smooth="yes"/>
      <point x="377" y="967"/>
      <point x="425" y="919"/>
      <point x="425" y="860" type="curve" smooth="yes"/>
      <point x="425" y="801"/>
      <point x="377" y="753"/>
      <point x="318" y="753" type="curve" smooth="yes"/>
      <point x="259" y="753"/>
      <point x="211" y="801"/>
    </contour>
  </outline>
</glyph>
<glyph name="AE" format="1">
  <advance width="907"/>
  <unicode hex="00C6"/>
  <outline>
    <contour>
      <point x="216" y="284" type="line"/>
      <point x="445" y="284" type="line"/>
      <point x="445" y="656" type="line"/>
      <point x="405" y="656" type="line"/>
    </contour>
    <contour>
      <point x="513" y="340" type="line"/>
      <point x="513" y="58" type="line"/>
      <point x="884" y="58" type="line"/>
      <point x="884" y="0" type="line"/>
      <point x="445" y="0" type="line"/>
      <point x="445" y="226" type="line"/>
      <point x="186" y="226" type="line"/>
      <point x="70" y="0" type="line"/>
      <point x="-7" y="0" type="line"/>
      <point x="367" y="714" type="line"/>
      <point x="880" y="714" type="line"/>
      <point x="880" y="656" type="line"/>
      <point x="513" y="656" type="line"/>
      <point x="513" y="398" type="line"/>
      <point x="857" y="398" type="line"/>
      <point x="857" y="340" type="line"/>
    </contour>
  </outline>
</glyph>
<glyph name="Ccedilla" format="1">
  <advance width="704"/>
  <unicode hex="00C7"/>
  <outline>
    <contour>
      <point x="662" y="498" type="curve"/>
      <point x="594" y="498" type="line"/>
      <point x="570" y="608"/>
      <point x="479" y="671"/>
      <point x="375" y="671" type="curve" smooth="yes"/>
      <point x="186" y="671"/>
      <point x="106" y="513"/>
      <point x="106" y="357" type="curve" smooth="yes"/>
      <point x="106" y="201"/>
      <point x="186" y="43"/>
      <point x="375" y="43" type="curve" smooth="yes"/>
      <point x="507" y="43"/>
      <point x="591" y="145"/>
      <point x="604" y="272" type="curve"/>
      <point x="672" y="272" type="line"/>
      <point x="653" y="96"/>
      <point x="542" y="-15"/>
      <point x="375" y="-15" type="curve" smooth="yes"/>
      <point x="374" y="-15" type="line"/>
      <point x="342" y="-54" type="line"/>
      <point x="361" y="-50"/>
      <point x="375" y="-50"/>
      <point x="392" y="-51" type="curve" smooth="yes"/>
      <point x="417" y="-55"/>
      <point x="458" y="-70"/>
      <point x="458" y="-117" type="curve" smooth="yes"/>
      <point x="458" y="-177"/>
      <point x="399" y="-203"/>
      <point x="348" y="-203" type="curve" smooth="yes"/>
      <point x="316" y="-203"/>
      <point x="283" y="-197"/>
      <point x="254" y="-182" type="curve"/>
      <point x="268" y="-150" type="line"/>
      <point x="285" y="-157"/>
      <point x="318" y="-164"/>
      <point x="347" y="-164" type="curve" smooth="yes"/>
      <point x="375" y="-164"/>
      <point x="400" y="-152"/>
      <point x="400" y="-121" type="curve" smooth="yes"/>
      <point x="400" y="-97"/>
      <point x="380" y="-83"/>
      <point x="357" y="-83" type="curve" smooth="yes"/>
      <point x="334" y="-83"/>
      <point x="317" y="-86"/>
      <point x="306" y="-91" type="curve"/>
      <point x="290" y="-76" type="line"/>
      <point x="340" y="-13" type="line"/>
      <point x="298" y="-10"/>
      <point x="260" y="0"/>
      <point x="227" y="15" type="curve" smooth="yes"/>
      <point x="101" y="77"/>
      <point x="38" y="209"/>
      <point x="38" y="357" type="curve" smooth="yes"/>
      <point x="38" y="553"/>
      <point x="150" y="729"/>
      <point x="375" y="729" type="curve" smooth="yes"/>
      <point x="511" y="729"/>
      <point x="643" y="647"/>
    </contour>
  </outline>
</glyph>
<glyph name="Ecircumflex" format="1">
  <advance width="593"/>
  <unicode hex="00CA"/>
  <outline>
    <contour>
      <point x="72" y="0" type="line"/>
      <point x="72" y="714" type="line"/>
      <point x="565" y="714" type="line"/>
      <point x="565" y="656" type="line"/>
      <point x="140" y="656" type="line"/>
      <point x="140" y="398" type="line"/>
      <point x="538" y="398" type="line"/>
      <point x="538" y="340" type="line"/>
      <point x="140" y="340" type="line"/>
      <point x="140" y="58" type="line"/>
      <point x="570" y="58" type="line"/>
      <point x="570" y="0" type="line"/>
    </contour>
    <contour>
      <point x="355" y="920" type="line"/>
      <point x="469" y="779" type="line"/>
      <point x="404" y="779" type="line"/>
      <point x="318" y="881" type="line"/>
      <point x="230" y="779" type="line"/>
      <point x="172" y="779" type="line"/>
      <point x="286" y="920" type="line"/>
    </contour>
  </outline>
</glyph>
<glyph name="Edieresis" format="1">
  <advance width="593"/>
  <unicode hex="00CB"/>
  <outline>
    <contour>
      <point x="72" y="0" type="line"/>
      <point x="72" y="714" type="line"/>
      <point x="565" y="714" type="line"/>
      <point x="565" y="656" type="line"/>
      <point x="140" y="656" type="line"/>
      <point x="140" y="398" type="line"/>
      <point x="538" y="398" type="line"/>
      <point x="538" y="340" type="line"/>
      <point x="140" y="340" type="line"/>
      <point x="140" y="58" type="line"/>
      <point x="570" y="58" type="line"/>
      <point x="570" y="0" type="line"/>
    </contour>
    <contour>
      <point x="263" y="800" type="line"/>
      <point x="195" y="800" type="line"/>
      <point x="195" y="901" type="line"/>
      <point x="263" y="901" type="line"/>
    </contour>
    <contour>
      <point x="440" y="800" type="line"/>
      <point x="372" y="800" type="line"/>
      <point x="372" y="901" type="line"/>
      <point x="440" y="901" type="line"/>
    </contour>
  </outline>
</glyph>
<glyph name="Igrave" format="1">
  <advance width="222"/>
  <unicode hex="00CC"/>
  <outline>
    <contour>
      <point x="77" y="0" type="line"/>
      <point x="77" y="714" type="line"/>
      <point x="145" y="714" type="line"/>
      <point x="145" y="0" type="line"/>
    </contour>
    <contour>
      <point x="94" y="778" type="line"/>
      <point x="-38" y="919" type="line"/>
      <point x="40" y="919" type="line"/>
      <point x="145" y="778" type="line"/>
    </contour>
  </outline>
</glyph>
<glyph name="Iacute" format="1">
  <advance width="222"/>
  <unicode hex="00CD"/>
  <outline>
    <contour>
      <point x="77" y="0" type="line"/>
      <point x="77" y="714" type="line"/>
      <point x="145" y="714" type="line"/>
      <point x="145" y="0" type="line"/>
    </contour>
    <contour>
      <point x="260" y="921" type="line"/>
      <point x="128" y="780" type="line"/>
      <point x="77" y="780" type="line"/>
      <point x="182" y="921" type="line"/>
    </contour>
  </outline>
</glyph>
<glyph name="Icircumflex" format="1">
  <advance width="222"/>
  <unicode hex="00CE"/>
  <outline>
    <contour>
      <point x="77" y="0" type="line"/>
      <point x="77" y="714" type="line"/>
      <point x="145" y="714" type="line"/>
      <point x="145" y="0" type="line"/>
    </contour>
    <contour>
      <point x="146" y="920" type="line"/>
      <point x="260" y="779" type="line"/>
      <point x="195" y="779" type="line"/>
      <point x="109" y="881" type="line"/>
      <point x="21" y="779" type="line"/>
      <point x="-37" y="779" type="line"/>
      <point x="77" y="920" type="line"/>
    </contour>
  </outline>
</glyph>
<glyph name="Idieresis" format="1">
  <advance width="222"/>
  <unicode hex="00CF"/>
  <outline>
    <contour>
      <point x="77" y="0" type="line"/>
      <point x="77" y="714" type="line"/>
      <point x="145" y="714" type="line"/>
      <point x="145" y="0" type="line"/>
    </contour>
    <contour>
      <point x="57" y="800" type="line"/>
      <point x="-11" y="800" type="line"/>
      <point x="-11" y="901" type="line"/>
      <point x="57" y="901" type="line"/>
    </contour>
    <contour>
      <point x="234" y="800" type="line"/>
      <point x="166" y="800" type="line"/>
      <point x="166" y="901" type="line"/>
      <point x="234" y="901" type="line"/>
    </contour>
  </outline>
</glyph>
<glyph name="Eth" format="1">
  <advance width="685"/>
  <unicode hex="00D0"/>
  <outline>
    <contour>
      <point x="72" y="393" type="line"/>
      <point x="72" y="714" type="line"/>
      <point x="319" y="714" type="line"/>
      <point x="535" y="709"/>
      <point x="647" y="593"/>
      <point x="647" y="357" type="curve" smooth="yes"/>
      <point x="647" y="121"/>
      <point x="535" y="5"/>
      <point x="319" y="0" type="curve"/>
      <point x="72" y="0" type="line"/>
      <point x="72" y="348" type="line"/>
      <point x="0" y="348" type="line"/>
      <point x="0" y="393" type="line"/>
    </contour>
    <contour>
      <point x="140" y="656" type="line"/>
      <point x="140" y="393" type="line"/>
      <point x="376" y="393" type="line"/>
      <point x="376" y="348" type="line"/>
      <point x="140" y="348" type="line"/>
      <point x="140" y="58" type="line"/>
      <point x="285" y="58" type="line" smooth="yes"/>
      <point x="490" y="58"/>
      <point x="579" y="143"/>
      <point x="579" y="357" type="curve" smooth="yes"/>
      <point x="579" y="571"/>
      <point x="490" y="656"/>
      <point x="285" y="656" type="curve" smooth="yes"/>
    </contour>
  </outline>
</glyph>
<glyph name="Ntilde" format="1">
  <advance width="704"/>
  <unicode hex="00D1"/>
  <outline>
    <contour>
      <point x="71" y="0" type="line"/>
      <point x="71" y="714" type="line"/>
      <point x="147" y="714" type="line"/>
      <point x="563" y="110" type="line"/>
      <point x="565" y="110" type="line"/>
      <point x="565" y="714" type="line"/>
      <point x="633" y="714" type="line"/>
      <point x="633" y="0" type="line"/>
      <point x="557" y="0" type="line"/>
      <point x="141" y="604" type="line"/>
      <point x="139" y="604" type="line"/>
      <point x="139" y="0" type="line"/>
    </contour>
    <contour>
      <point x="478" y="900" type="curve"/>
      <point x="516" y="900" type="line"/>
      <point x="508" y="855"/>
      <point x="482" y="805"/>
      <point x="429" y="805" type="curve" smooth="yes"/>
      <point x="374" y="805"/>
      <point x="330" y="851"/>
      <point x="291" y="851" type="curve" smooth="yes"/>
      <point x="264" y="851"/>
      <point x="249" y="833"/>
      <point x="241" y="800" type="curve"/>
      <point x="202" y="800" type="line"/>
      <point x="207" y="847"/>
      <point x="239" y="896"/>
      <point x="291" y="896" type="curve" smooth="yes"/>
      <point x="348" y="896"/>
      <point x="389" y="852"/>
      <point x="426" y="852" type="curve" smooth="yes"/>
      <point x="457" y="852"/>
      <point x="470" y="873"/>
    </contour>
  </outline>
</glyph>
<glyph name="Ocircumflex" format="1">
  <advance width="741"/>
  <unicode hex="00D4"/>
  <outline>
    <contour>
      <point x="102" y="357" type="curve" smooth="yes"/>
      <point x="102" y="201"/>
      <point x="182" y="43"/>
      <point x="371" y="43" type="curve" smooth="yes"/>
      <point x="559" y="43"/>
      <point x="639" y="201"/>
      <point x="639" y="357" type="curve" smooth="yes"/>
      <point x="639" y="513"/>
      <point x="559" y="671"/>
      <point x="371" y="671" type="curve" smooth="yes"/>
      <point x="182" y="671"/>
      <point x="102" y="513"/>
    </contour>
    <contour>
      <point x="34" y="357" type="curve" smooth="yes"/>
      <point x="34" y="553"/>
      <point x="146" y="729"/>
      <point x="371" y="729" type="curve" smooth="yes"/>
      <point x="595" y="729"/>
      <point x="707" y="553"/>
      <point x="707" y="357" type="curve" smooth="yes"/>
      <point x="707" y="161"/>
      <point x="595" y="-15"/>
      <point x="371" y="-15" type="curve" smooth="yes"/>
      <point x="146" y="-15"/>
      <point x="34" y="161"/>
    </contour>
    <contour>
      <point x="407" y="920" type="line"/>
      <point x="521" y="779" type="line"/>
      <point x="456" y="779" type="line"/>
      <point x="370" y="881" type="line"/>
      <point x="282" y="779" type="line"/>
      <point x="224" y="779" type="line"/>
      <point x="338" y="920" type="line"/>
    </contour>
  </outline>
</glyph>
<glyph name="Otilde" format="1">
  <advance width="741"/>
  <unicode hex="00D5"/>
  <outline>
    <contour>
      <point x="102" y="357" type="curve" smooth="yes"/>
      <point x="102" y="201"/>
      <point x="182" y="43"/>
      <point x="371" y="43" type="curve" smooth="yes"/>
      <point x="559" y="43"/>
      <point x="639" y="201"/>
      <point x="639" y="357" type="curve" smooth="yes"/>
      <point x="639" y="513"/>
      <point x="559" y="671"/>
      <point x="371" y="671" type="curve" smooth="yes"/>
      <point x="182" y="671"/>
      <point x="102" y="513"/>
    </contour>
    <contour>
      <point x="34" y="357" type="curve" smooth="yes"/>
      <point x="34" y="553"/>
      <point x="146" y="729"/>
      <point x="371" y="729" type="curve" smooth="yes"/>
      <point x="595" y="729"/>
      <point x="707" y="553"/>
      <point x="707" y="357" type="curve" smooth="yes"/>
      <point x="707" y="161"/>
      <point x="595" y="-15"/>
      <point x="371" y="-15" type="curve" smooth="yes"/>
      <point x="146" y="-15"/>
      <point x="34" y="161"/>
    </contour>
    <contour>
      <point x="491" y="900" type="curve"/>
      <point x="529" y="900" type="line"/>
      <point x="521" y="855"/>
      <point x="495" y="805"/>
      <point x="442" y="805" type="curve" smooth="yes"/>
      <point x="387" y="805"/>
      <point x="343" y="851"/>
      <point x="304" y="851" type="curve" smooth="yes"/>
      <point x="277" y="851"/>
      <point x="262" y="833"/>
      <point x="254" y="800" type="curve"/>
      <point x="215" y="800" type="line"/>
      <point x="220" y="847"/>
      <point x="252" y="896"/>
      <point x="304" y="896" type="curve" smooth="yes"/>
      <point x="361" y="896"/>
      <point x="402" y="852"/>
      <point x="439" y="852" type="curve" smooth="yes"/>
      <point x="470" y="852"/>
      <point x="483" y="873"/>
    </contour>
  </outline>
</glyph>
<glyph name="multiply" format="1">
  <advance width="600"/>
  <unicode hex="00D7"/>
  <outline>
    <contour>
      <point x="262" y="251" type="line"/>
      <point x="74" y="440" type="line"/>
      <point x="111" y="477" type="line"/>
      <point x="300" y="288" type="line"/>
      <point x="489" y="477" type="line"/>
      <point x="526" y="440" type="line"/>
      <point x="337" y="251" type="line"/>
      <point x="526" y="62" type="line"/>
      <point x="489" y="25" type="line"/>
      <point x="300" y="213" type="line"/>
      <point x="111" y="25" type="line"/>
      <point x="74" y="62" type="line"/>
    </contour>
  </outline>
</glyph>
<glyph name="Oslash" format="1">
  <advance width="741"/>
  <unicode hex="00D8"/>
  <outline>
    <contour>
      <point x="672" y="719" type="line"/>
      <point x="698" y="696" type="line"/>
      <point x="625" y="615" type="line"/>
      <point x="681" y="547"/>
      <point x="707" y="454"/>
      <point x="707" y="357" type="curve" smooth="yes"/>
      <point x="707" y="161"/>
      <point x="595" y="-15"/>
      <point x="371" y="-15" type="curve" smooth="yes"/>
      <point x="271" y="-15"/>
      <point x="196" y="18"/>
      <point x="140" y="74" type="curve"/>
      <point x="64" y="-12" type="line"/>
      <point x="37" y="13" type="line"/>
      <point x="116" y="101" type="line"/>
      <point x="60" y="170"/>
      <point x="34" y="261"/>
      <point x="34" y="357" type="curve" smooth="yes"/>
      <point x="34" y="553"/>
      <point x="146" y="729"/>
      <point x="371" y="729" type="curve" smooth="yes"/>
      <point x="470" y="729"/>
      <point x="545" y="696"/>
      <point x="601" y="641" type="curve"/>
    </contour>
    <contour>
      <point x="160" y="150" type="curve"/>
      <point x="558" y="593" type="line"/>
      <point x="515" y="640"/>
      <point x="454" y="671"/>
      <point x="371" y="671" type="curve" smooth="yes"/>
      <point x="182" y="671"/>
      <point x="102" y="513"/>
      <point x="102" y="357" type="curve" smooth="yes"/>
      <point x="102" y="281"/>
      <point x="120" y="207"/>
    </contour>
    <contour>
      <point x="580" y="565" type="curve"/>
      <point x="183" y="122" type="line"/>
      <point x="227" y="73"/>
      <point x="288" y="43"/>
      <point x="371" y="43" type="curve" smooth="yes"/>
      <point x="559" y="43"/>
      <point x="639" y="201"/>
      <point x="639" y="357" type="curve" smooth="yes"/>
      <point x="639" y="433"/>
      <point x="621" y="508"/>
    </contour>
  </outline>
</glyph>
<glyph name="Ugrave" format="1">
  <advance width="685"/>
  <unicode hex="00D9"/>
  <outline>
    <contour>
      <point x="65" y="257" type="curve" smooth="yes"/>
      <point x="65" y="714" type="line"/>
      <point x="133" y="714" type="line"/>
      <point x="133" y="272" type="line" smooth="yes"/>
      <point x="133" y="107"/>
      <point x="210" y="43"/>
      <point x="342" y="43" type="curve" smooth="yes"/>
      <point x="475" y="43"/>
      <point x="552" y="107"/>
      <point x="552" y="272" type="curve" smooth="yes"/>
      <point x="552" y="714" type="line"/>
      <point x="620" y="714" type="line"/>
      <point x="620" y="257" type="line" smooth="yes"/>
      <point x="620" y="110"/>
      <point x="541" y="-15"/>
      <point x="342" y="-15" type="curve" smooth="yes"/>
      <point x="145" y="-15"/>
      <point x="65" y="110"/>
    </contour>
    <contour>
      <point x="346" y="778" type="line"/>
      <point x="214" y="919" type="line"/>
      <point x="292" y="919" type="line"/>
      <point x="397" y="778" type="line"/>
    </contour>
  </outline>
</glyph>
<glyph name="Udieresis" format="1">
  <advance width="685"/>
  <unicode hex="00DC"/>
  <outline>
    <contour>
      <point x="65" y="257" type="curve" smooth="yes"/>
      <point x="65" y="714" type="line"/>
      <point x="133" y="714" type="line"/>
      <point x="133" y="272" type="line" smooth="yes"/>
      <point x="133" y="107"/>
      <point x="210" y="43"/>
      <point x="342" y="43" type="curve" smooth="yes"/>
      <point x="475" y="43"/>
      <point x="552" y="107"/>
      <point x="552" y="272" type="curve" smooth="yes"/>
      <point x="552" y="714" type="line"/>
      <point x="620" y="714" type="line"/>
      <point x="620" y="257" type="line" smooth="yes"/>
      <point x="620" y="110"/>
      <point x="541" y="-15"/>
      <point x="342" y="-15" type="curve" smooth="yes"/>
      <point x="145" y="-15"/>
      <point x="65" y="110"/>
    </contour>
    <contour>
      <point x="288" y="800" type="line"/>
      <point x="220" y="800" type="line"/>
      <point x="220" y="901" type="line"/>
      <point x="288" y="901" type="line"/>
    </contour>
    <contour>
      <point x="465" y="800" type="line"/>
      <point x="397" y="800" type="line"/>
      <point x="397" y="901" type="line"/>
      <point x="465" y="901" type="line"/>
    </contour>
  </outline>
</glyph>
<glyph name="Thorn" format="1">
  <advance width="630"/>
  <unicode hex="00DE"/>
  <outline>
    <contour>
      <point x="140" y="539" type="line"/>
      <point x="140" y="247" type="line"/>
      <point x="374" y="247" type="line" smooth="yes"/>
      <point x="469" y="247"/>
      <point x="533" y="294"/>
      <point x="533" y="393" type="curve" smooth="yes"/>
      <point x="533" y="492"/>
      <point x="469" y="539"/>
      <point x="374" y="539" type="curve" smooth="yes"/>
    </contour>
    <contour>
      <point x="72" y="0" type="line"/>
      <point x="72" y="714" type="line"/>
      <point x="140" y="714" type="line"/>
      <point x="140" y="597" type="line"/>
      <point x="389" y="597" type="line" smooth="yes"/>
      <point x="517" y="597"/>
      <point x="601" y="522"/>
      <point x="601" y="393" type="curve" smooth="yes"/>
      <point x="601" y="264"/>
      <point x="517" y="189"/>
      <point x="389" y="189" type="curve" smooth="yes"/>
      <point x="140" y="189" type="line"/>
      <point x="140" y="0" type="line"/>
    </contour>
  </outline>
</glyph>
<glyph name="germandbls" format="1">
  <advance width="537"/>
  <unicode hex="00DF"/>
  <outline>
    <contour>
      <point x="61" y="0" type="line"/>
      <point x="61" y="535" type="line" smooth="yes"/>
      <point x="61" y="666"/>
      <point x="141" y="729"/>
      <point x="260" y="729" type="curve" smooth="yes"/>
      <point x="367" y="729"/>
      <point x="456" y="667"/>
      <point x="456" y="553" type="curve" smooth="yes"/>
      <point x="456" y="481"/>
      <point x="415" y="419"/>
      <point x="343" y="403" type="curve"/>
      <point x="343" y="401" type="line"/>
      <point x="440" y="393"/>
      <point x="492" y="307"/>
      <point x="492" y="216" type="curve" smooth="yes"/>
      <point x="492" y="69"/>
      <point x="397" y="-5"/>
      <point x="270" y="-8" type="curve" smooth="yes"/>
      <point x="245" y="-8" type="line" smooth="yes"/>
      <point x="237" y="-8"/>
      <point x="229" y="-7"/>
      <point x="220" y="-6" type="curve"/>
      <point x="220" y="49" type="line"/>
      <point x="236" y="46"/>
      <point x="251" y="45"/>
      <point x="267" y="45" type="curve" smooth="yes"/>
      <point x="349" y="45"/>
      <point x="429" y="89"/>
      <point x="429" y="205" type="curve" smooth="yes"/>
      <point x="429" y="344"/>
      <point x="343" y="368"/>
      <point x="220" y="368" type="curve"/>
      <point x="220" y="421" type="line"/>
      <point x="308" y="421"/>
      <point x="393" y="448"/>
      <point x="393" y="551" type="curve" smooth="yes"/>
      <point x="393" y="626"/>
      <point x="333" y="676"/>
      <point x="261" y="676" type="curve" smooth="yes"/>
      <point x="161" y="676"/>
      <point x="124" y="625"/>
      <point x="124" y="530" type="curve" smooth="yes"/>
      <point x="124" y="0" type="line"/>
    </contour>
  </outline>
</glyph>
<glyph name="aacute" format="1">
  <advance width="519"/>
  <unicode hex="00E1"/>
  <outline>
    <contour>
      <point x="117" y="358" type="curve"/>
      <point x="54" y="358" type="line"/>
      <point x="61" y="479"/>
      <point x="144" y="531"/>
      <point x="263" y="531" type="curve" smooth="yes"/>
      <point x="354" y="531"/>
      <point x="453" y="504"/>
      <point x="453" y="365" type="curve" smooth="yes"/>
      <point x="453" y="91" type="line" smooth="yes"/>
      <point x="453" y="66"/>
      <point x="465" y="53"/>
      <point x="490" y="53" type="curve" smooth="yes"/>
      <point x="497" y="53"/>
      <point x="503" y="54"/>
      <point x="510" y="57" type="curve"/>
      <point x="510" y="4" type="line"/>
      <point x="495" y="1"/>
      <point x="486" y="0"/>
      <point x="469" y="0" type="curve" smooth="yes"/>
      <point x="405" y="0"/>
      <point x="395" y="37"/>
      <point x="395" y="90" type="curve"/>
      <point x="393" y="90" type="line"/>
      <point x="348" y="23"/>
      <point x="305" y="-15"/>
      <point x="205" y="-15" type="curve" smooth="yes"/>
      <point x="109" y="-15"/>
      <point x="32" y="32"/>
      <point x="32" y="136" type="curve" smooth="yes"/>
      <point x="32" y="280"/>
      <point x="173" y="286"/>
      <point x="309" y="302" type="curve" smooth="yes"/>
      <point x="361" y="307"/>
      <point x="390" y="316"/>
      <point x="390" y="372" type="curve" smooth="yes"/>
      <point x="390" y="457"/>
      <point x="330" y="478"/>
      <point x="255" y="478" type="curve" smooth="yes"/>
      <point x="176" y="478"/>
      <point x="120" y="442"/>
    </contour>
    <contour>
      <point x="390" y="200" type="curve" smooth="yes"/>
      <point x="390" y="282" type="line"/>
      <point x="388" y="282" type="line"/>
      <point x="380" y="267"/>
      <point x="352" y="262"/>
      <point x="335" y="259" type="curve" smooth="yes"/>
      <point x="228" y="240"/>
      <point x="95" y="240"/>
      <point x="95" y="140" type="curve" smooth="yes"/>
      <point x="95" y="77"/>
      <point x="150" y="38"/>
      <point x="210" y="38" type="curve" smooth="yes"/>
      <point x="307" y="38"/>
      <point x="390" y="99"/>
    </contour>
    <contour>
      <point x="410" y="731" type="line"/>
      <point x="278" y="590" type="line"/>
      <point x="227" y="590" type="line"/>
      <point x="332" y="731" type="line"/>
    </contour>
  </outline>
</glyph>
<glyph name="ae" format="1">
  <advance width="870"/>
  <unicode hex="00E6"/>
  <outline>
    <contour>
      <point x="841" y="241" type="curve"/>
      <point x="453" y="241" type="line"/>
      <point x="445" y="131"/>
      <point x="501" y="38"/>
      <point x="621" y="38" type="curve" smooth="yes"/>
      <point x="706" y="38"/>
      <point x="755" y="86"/>
      <point x="774" y="167" type="curve"/>
      <point x="837" y="167" type="line"/>
      <point x="810" y="51"/>
      <point x="732" y="-15"/>
      <point x="612" y="-15" type="curve" smooth="yes"/>
      <point x="520" y="-15"/>
      <point x="454" y="28"/>
      <point x="423" y="115" type="curve"/>
      <point x="421" y="115" type="line"/>
      <point x="405" y="29"/>
      <point x="296" y="-15"/>
      <point x="205" y="-15" type="curve" smooth="yes"/>
      <point x="109" y="-15"/>
      <point x="32" y="32"/>
      <point x="32" y="136" type="curve" smooth="yes"/>
      <point x="32" y="280"/>
      <point x="173" y="286"/>
      <point x="309" y="302" type="curve" smooth="yes"/>
      <point x="361" y="307"/>
      <point x="390" y="316"/>
      <point x="390" y="372" type="curve" smooth="yes"/>
      <point x="390" y="457"/>
      <point x="330" y="478"/>
      <point x="255" y="478" type="curve" smooth="yes"/>
      <point x="176" y="478"/>
      <point x="120" y="442"/>
      <point x="117" y="358" type="curve"/>
      <point x="54" y="358" type="line"/>
      <point x="61" y="479"/>
      <point x="144" y="531"/>
      <point x="263" y="531" type="curve" smooth="yes"/>
      <point x="333" y="531"/>
      <point x="422" y="512"/>
      <point x="435" y="424" type="curve"/>
      <point x="437" y="424" type="line"/>
      <point x="464" y="496"/>
      <point x="544" y="531"/>
      <point x="618" y="531" type="curve" smooth="yes"/>
      <point x="788" y="531"/>
      <point x="841" y="391"/>
    </contour>
    <contour>
      <point x="390" y="200" type="curve" smooth="yes"/>
      <point x="390" y="282" type="line"/>
      <point x="388" y="282" type="line"/>
      <point x="380" y="267"/>
      <point x="352" y="262"/>
      <point x="335" y="259" type="curve" smooth="yes"/>
      <point x="228" y="240"/>
      <point x="95" y="240"/>
      <point x="95" y="140" type="curve" smooth="yes"/>
      <point x="95" y="77"/>
      <point x="150" y="38"/>
      <point x="210" y="38" type="curve" smooth="yes"/>
      <point x="307" y="38"/>
      <point x="390" y="99"/>
    </contour>
    <contour>
      <point x="453" y="294" type="curve"/>
      <point x="778" y="294" type="line"/>
      <point x="778" y="389"/>
      <point x="715" y="478"/>
      <point x="615" y="478" type="curve" smooth="yes"/>
      <point x="511" y="478"/>
      <point x="450" y="391"/>
    </contour>
  </outline>
</glyph>
<glyph name="ccedilla" format="1">
  <advance width="519"/>
  <unicode hex="00E7"/>
  <outline>
    <contour>
      <point x="487" y="354" type="curve"/>
      <point x="424" y="354" type="line"/>
      <point x="407" y="431"/>
      <point x="361" y="478"/>
      <point x="278" y="478" type="curve" smooth="yes"/>
      <point x="158" y="478"/>
      <point x="97" y="367"/>
      <point x="97" y="258" type="curve" smooth="yes"/>
      <point x="97" y="149"/>
      <point x="158" y="38"/>
      <point x="278" y="38" type="curve" smooth="yes"/>
      <point x="355" y="38"/>
      <point x="420" y="100"/>
      <point x="428" y="185" type="curve"/>
      <point x="491" y="185" type="line"/>
      <point x="482" y="122"/>
      <point x="459" y="73"/>
      <point x="421" y="38" type="curve" smooth="yes"/>
      <point x="384" y="4"/>
      <point x="338" y="-14"/>
      <point x="283" y="-15" type="curve"/>
      <point x="251" y="-54" type="line"/>
      <point x="270" y="-50"/>
      <point x="284" y="-50"/>
      <point x="301" y="-51" type="curve" smooth="yes"/>
      <point x="326" y="-55"/>
      <point x="367" y="-70"/>
      <point x="367" y="-117" type="curve" smooth="yes"/>
      <point x="367" y="-177"/>
      <point x="308" y="-203"/>
      <point x="257" y="-203" type="curve" smooth="yes"/>
      <point x="225" y="-203"/>
      <point x="192" y="-197"/>
      <point x="163" y="-182" type="curve"/>
      <point x="177" y="-150" type="line"/>
      <point x="194" y="-157"/>
      <point x="227" y="-164"/>
      <point x="256" y="-164" type="curve" smooth="yes"/>
      <point x="284" y="-164"/>
      <point x="309" y="-152"/>
      <point x="309" y="-121" type="curve" smooth="yes"/>
      <point x="309" y="-97"/>
      <point x="289" y="-83"/>
      <point x="266" y="-83" type="curve" smooth="yes"/>
      <point x="243" y="-83"/>
      <point x="226" y="-86"/>
      <point x="215" y="-91" type="curve"/>
      <point x="199" y="-76" type="line"/>
      <point x="249" y="-13" type="line"/>
      <point x="221" y="-10"/>
      <point x="196" y="-4"/>
      <point x="173" y="7" type="curve" smooth="yes"/>
      <point x="83" y="51"/>
      <point x="34" y="145"/>
      <point x="34" y="258" type="curve" smooth="yes"/>
      <point x="34" y="406"/>
      <point x="121" y="531"/>
      <point x="278" y="531" type="curve" smooth="yes"/>
      <point x="389" y="531"/>
      <point x="472" y="473"/>
    </contour>
  </outline>
</glyph>
<glyph name="eacute" format="1">
  <advance width="519"/>
  <unicode hex="00E9"/>
  <outline>
    <contour>
      <point x="97" y="294" type="curve"/>
      <point x="431" y="294" type="line"/>
      <point x="428" y="389"/>
      <point x="368" y="478"/>
      <point x="267" y="478" type="curve" smooth="yes"/>
      <point x="163" y="478"/>
      <point x="108" y="388"/>
    </contour>
    <contour>
      <point x="494" y="241" type="curve"/>
      <point x="97" y="241" type="line"/>
      <point x="97" y="149"/>
      <point x="147" y="38"/>
      <point x="267" y="38" type="curve" smooth="yes"/>
      <point x="359" y="38"/>
      <point x="409" y="91"/>
      <point x="429" y="170" type="curve"/>
      <point x="492" y="170" type="line"/>
      <point x="465" y="53"/>
      <point x="398" y="-15"/>
      <point x="267" y="-15" type="curve" smooth="yes"/>
      <point x="103" y="-15"/>
      <point x="34" y="111"/>
      <point x="34" y="258" type="curve" smooth="yes"/>
      <point x="34" y="394"/>
      <point x="103" y="531"/>
      <point x="267" y="531" type="curve" smooth="yes"/>
      <point x="432" y="531"/>
      <point x="499" y="386"/>
    </contour>
    <contour>
      <point x="417" y="731" type="line"/>
      <point x="285" y="590" type="line"/>
      <point x="234" y="590" type="line"/>
      <point x="339" y="731" type="line"/>
    </contour>
  </outline>
</glyph>
<glyph name="igrave" format="1">
  <advance width="185"/>
  <unicode hex="00EC"/>
  <outline>
    <contour>
      <point x="124" y="0" type="line"/>
      <point x="61" y="0" type="line"/>
      <point x="61" y="516" type="line"/>
      <point x="124" y="516" type="line"/>
    </contour>
    <contour>
      <point x="74" y="588" type="line"/>
      <point x="-58" y="729" type="line"/>
      <point x="20" y="729" type="line"/>
      <point x="125" y="588" type="line"/>
    </contour>
  </outline>
</glyph>
<glyph name="icircumflex" format="1">
  <advance width="185"/>
  <unicode hex="00EE"/>
  <outline>
    <contour>
      <point x="124" y="0" type="line"/>
      <point x="61" y="0" type="line"/>
      <point x="61" y="516" type="line"/>
      <point x="124" y="516" type="line"/>
    </contour>
    <contour>
      <point x="128" y="730" type="line"/>
      <point x="242" y="589" type="line"/>
      <point x="177" y="589" type="line"/>
      <point x="91" y="691" type="line"/>
      <point x="3" y="589" type="line"/>
      <point x="-55" y="589" type="line"/>
      <point x="59" y="730" type="line"/>
    </contour>
  </outline>
</glyph>
<glyph name="idieresis" format="1">
  <advance width="185"/>
  <unicode hex="00EF"/>
  <outline>
    <contour>
      <point x="124" y="0" type="line"/>
      <point x="61" y="0" type="line"/>
      <point x="61" y="516" type="line"/>
      <point x="124" y="516" type="line"/>
    </contour>
    <contour>
      <point x="39" y="610" type="line"/>
      <point x="-29" y="610" type="line"/>
      <point x="-29" y="711" type="line"/>
      <point x="39" y="711" type="line"/>
    </contour>
    <contour>
      <point x="216" y="610" type="line"/>
      <point x="148" y="610" type="line"/>
      <point x="148" y="711" type="line"/>
      <point x="216" y="711" type="line"/>
    </contour>
  </outline>
</glyph>
<glyph name="eth" format="1">
  <advance width="556"/>
  <unicode hex="00F0"/>
  <outline>
    <contour>
      <point x="135" y="596" type="line"/>
      <point x="235" y="652" type="line"/>
      <point x="204" y="672"/>
      <point x="174" y="691"/>
      <point x="142" y="707" type="curve"/>
      <point x="178" y="742" type="line"/>
      <point x="213" y="723"/>
      <point x="249" y="703"/>
      <point x="282" y="678" type="curve"/>
      <point x="396" y="742" type="line"/>
      <point x="429" y="710" type="line"/>
      <point x="320" y="649" type="line"/>
      <point x="431" y="559"/>
      <point x="516" y="431"/>
      <point x="516" y="258" type="curve" smooth="yes"/>
      <point x="516" y="108"/>
      <point x="438" y="-15"/>
      <point x="271" y="-15" type="curve" smooth="yes"/>
      <point x="110" y="-15"/>
      <point x="34" y="101"/>
      <point x="34" y="249" type="curve" smooth="yes"/>
      <point x="34" y="388"/>
      <point x="119" y="506"/>
      <point x="271" y="506" type="curve" smooth="yes"/>
      <point x="320" y="506"/>
      <point x="375" y="497"/>
      <point x="404" y="466" type="curve"/>
      <point x="406" y="466" type="line"/>
      <point x="373" y="529"/>
      <point x="328" y="579"/>
      <point x="273" y="623" type="curve"/>
      <point x="168" y="564" type="line"/>
    </contour>
    <contour>
      <point x="276" y="453" type="curve" smooth="yes"/>
      <point x="148" y="453"/>
      <point x="97" y="358"/>
      <point x="97" y="248" type="curve" smooth="yes"/>
      <point x="97" y="139"/>
      <point x="149" y="38"/>
      <point x="274" y="38" type="curve" smooth="yes"/>
      <point x="391" y="38"/>
      <point x="453" y="126"/>
      <point x="453" y="250" type="curve" smooth="yes"/>
      <point x="453" y="350"/>
      <point x="403" y="453"/>
    </contour>
  </outline>
</glyph>
<glyph name="ntilde" format="1">
  <advance width="537"/>
  <unicode hex="00F1"/>
  <outline>
    <contour>
      <point x="59" y="0" type="line"/>
      <point x="59" y="516" type="line"/>
      <point x="122" y="516" type="line"/>
      <point x="122" y="427" type="line"/>
      <point x="124" y="427" type="line"/>
      <point x="148" y="489"/>
      <point x="216" y="531"/>
      <point x="289" y="531" type="curve" smooth="yes"/>
      <point x="434" y="531"/>
      <point x="478" y="455"/>
      <point x="478" y="332" type="curve" smooth="yes"/>
      <point x="478" y="0" type="line"/>
      <point x="415" y="0" type="line"/>
      <point x="415" y="322" type="line" smooth="yes"/>
      <point x="415" y="410"/>
      <point x="386" y="478"/>
      <point x="284" y="478" type="curve" smooth="yes"/>
      <point x="183" y="478"/>
      <point x="125" y="402"/>
      <point x="122" y="301" type="curve" smooth="yes"/>
      <point x="122" y="0" type="line"/>
    </contour>
    <contour>
      <point x="387" y="710" type="curve"/>
      <point x="425" y="710" type="line"/>
      <point x="417" y="665"/>
      <point x="391" y="615"/>
      <point x="338" y="615" type="curve" smooth="yes"/>
      <point x="283" y="615"/>
      <point x="239" y="661"/>
      <point x="200" y="661" type="curve" smooth="yes"/>
      <point x="173" y="661"/>
      <point x="158" y="643"/>
      <point x="150" y="610" type="curve"/>
      <point x="111" y="610" type="line"/>
      <point x="116" y="657"/>
      <point x="148" y="706"/>
      <point x="200" y="706" type="curve" smooth="yes"/>
      <point x="257" y="706"/>
      <point x="298" y="662"/>
      <point x="335" y="662" type="curve" smooth="yes"/>
      <point x="366" y="662"/>
      <point x="379" y="683"/>
    </contour>
  </outline>
</glyph>
<glyph name="otilde" format="1">
  <advance width="556"/>
  <unicode hex="00F5"/>
  <outline>
    <contour>
      <point x="278" y="478" type="curve" smooth="yes"/>
      <point x="158" y="478"/>
      <point x="97" y="367"/>
      <point x="97" y="258" type="curve" smooth="yes"/>
      <point x="97" y="149"/>
      <point x="158" y="38"/>
      <point x="278" y="38" type="curve" smooth="yes"/>
      <point x="398" y="38"/>
      <point x="459" y="149"/>
      <point x="459" y="258" type="curve" smooth="yes"/>
      <point x="459" y="367"/>
      <point x="398" y="478"/>
    </contour>
    <contour>
      <point x="278" y="531" type="curve" smooth="yes"/>
      <point x="435" y="531"/>
      <point x="522" y="406"/>
      <point x="522" y="258" type="curve" smooth="yes"/>
      <point x="522" y="110"/>
      <point x="435" y="-15"/>
      <point x="278" y="-15" type="curve" smooth="yes"/>
      <point x="121" y="-15"/>
      <point x="34" y="110"/>
      <point x="34" y="258" type="curve" smooth="yes"/>
      <point x="34" y="406"/>
      <point x="121" y="531"/>
    </contour>
    <contour>
      <point x="399" y="710" type="curve"/>
      <point x="437" y="710" type="line"/>
      <point x="429" y="665"/>
      <point x="403" y="615"/>
      <point x="350" y="615" type="curve" smooth="yes"/>
      <point x="295" y="615"/>
      <point x="251" y="661"/>
      <point x="212" y="661" type="curve" smooth="yes"/>
      <point x="185" y="661"/>
      <point x="170" y="643"/>
      <point x="162" y="610" type="curve"/>
      <point x="123" y="610" type="line"/>
      <point x="128" y="657"/>
      <point x="160" y="706"/>
      <point x="212" y="706" type="curve" smooth="yes"/>
      <point x="269" y="706"/>
      <point x="310" y="662"/>
      <point x="347" y="662" type="curve" smooth="yes"/>
      <point x="378" y="662"/>
      <point x="391" y="683"/>
    </contour>
  </outline>
</glyph>
<glyph name="divide" format="1">
  <advance width="600"/>
  <unicode hex="00F7"/>
  <outline>
    <contour>
      <point x="244" y="50" type="curve" smooth="yes"/>
      <point x="244" y="81"/>
      <point x="269" y="106"/>
      <point x="300" y="106" type="curve" smooth="yes"/>
      <point x="331" y="106"/>
      <point x="356" y="81"/>
      <point x="356" y="50" type="curve" smooth="yes"/>
      <point x="356" y="22"/>
      <point x="330" y="-6"/>
      <point x="301" y="-6" type="curve" smooth="yes"/>
      <point x="270" y="-6"/>
      <point x="244" y="19"/>
    </contour>
    <contour>
      <point x="244" y="453" type="curve" smooth="yes"/>
      <point x="244" y="484"/>
      <point x="269" y="509"/>
      <point x="300" y="509" type="curve" smooth="yes"/>
      <point x="331" y="509"/>
      <point x="356" y="484"/>
      <point x="356" y="453" type="curve" smooth="yes"/>
      <point x="356" y="425"/>
      <point x="330" y="397"/>
      <point x="301" y="397" type="curve" smooth="yes"/>
      <point x="270" y="397"/>
      <point x="244" y="422"/>
    </contour>
    <contour>
      <point x="552" y="225" type="line"/>
      <point x="49" y="225" type="line"/>
      <point x="49" y="278" type="line"/>
      <point x="552" y="278" type="line"/>
    </contour>
  </outline>
</glyph>
<glyph name="oslash" format="1">
  <advance width="556"/>
  <unicode hex="00F8"/>
  <outline>
    <contour>
      <point x="500" y="519" type="line"/>
      <point x="522" y="499" type="line"/>
      <point x="468" y="440" type="line"/>
      <point x="504" y="389"/>
      <point x="522" y="326"/>
      <point x="522" y="258" type="curve" smooth="yes"/>
      <point x="522" y="110"/>
      <point x="435" y="-15"/>
      <point x="278" y="-15" type="curve" smooth="yes"/>
      <point x="206" y="-15"/>
      <point x="150" y="10"/>
      <point x="110" y="53" type="curve"/>
      <point x="51" y="-11" type="line"/>
      <point x="29" y="9" type="line"/>
      <point x="90" y="76" type="line"/>
      <point x="53" y="124"/>
      <point x="34" y="189"/>
      <point x="34" y="258" type="curve" smooth="yes"/>
      <point x="34" y="406"/>
      <point x="121" y="531"/>
      <point x="278" y="531" type="curve" smooth="yes"/>
      <point x="350" y="531"/>
      <point x="408" y="506"/>
      <point x="448" y="463" type="curve"/>
    </contour>
    <contour>
      <point x="424" y="392" type="curve"/>
      <point x="151" y="97" type="line"/>
      <point x="179" y="62"/>
      <point x="222" y="38"/>
      <point x="278" y="38" type="curve" smooth="yes"/>
      <point x="398" y="38"/>
      <point x="459" y="149"/>
      <point x="459" y="258" type="curve" smooth="yes"/>
      <point x="459" y="306"/>
      <point x="448" y="353"/>
    </contour>
    <contour>
      <point x="133" y="123" type="curve"/>
      <point x="406" y="418" type="line"/>
      <point x="377" y="454"/>
      <point x="334" y="478"/>
      <point x="278" y="478" type="curve" smooth="yes"/>
      <point x="158" y="478"/>
      <point x="97" y="367"/>
      <point x="97" y="258" type="curve" smooth="yes"/>
      <point x="97" y="210"/>
      <point x="108" y="163"/>
    </contour>
  </outline>
</glyph>
<glyph name="thorn" format="1">
  <advance width="574"/>
  <unicode hex="00FE"/>
  <outline>
    <contour>
      <point x="60" y="-191" type="line"/>
      <point x="60" y="714" type="line"/>
      <point x="123" y="714" type="line"/>
      <point x="123" y="418" type="line"/>
      <point x="125" y="418" type="line"/>
      <point x="151" y="492"/>
      <point x="228" y="531"/>
      <point x="304" y="531" type="curve" smooth="yes"/>
      <point x="461" y="531"/>
      <point x="536" y="405"/>
      <point x="536" y="258" type="curve" smooth="yes"/>
      <point x="536" y="111"/>
      <point x="461" y="-15"/>
      <point x="304" y="-15" type="curve" smooth="yes"/>
      <point x="228" y="-15"/>
      <point x="152" y="23"/>
      <point x="125" y="98" type="curve"/>
      <point x="123" y="98" type="line"/>
      <point x="123" y="-191" type="line"/>
    </contour>
    <contour>
      <point x="473" y="258" type="curve" smooth="yes"/>
      <point x="473" y="365"/>
      <point x="424" y="478"/>
      <point x="304" y="478" type="curve" smooth="yes"/>
      <point x="171" y="478"/>
      <point x="123" y="365"/>
      <point x="123" y="258" type="curve" smooth="yes"/>
      <point x="123" y="151"/>
      <point x="171" y="38"/>
      <point x="304" y="38" type="curve" smooth="yes"/>
      <point x="424" y="38"/>
      <point x="473" y="151"/>
    </contour>
  </outline>
</glyph>
<glyph name="Amacron" format="1">
  <advance width="630"/>
  <unicode hex="0100"/>
  <outline>
    <contour>
      <point x="316" y="646" type="line"/>
      <point x="173" y="280" type="line"/>
      <point x="454" y="280" type="line"/>
    </contour>
    <contour>
      <point x="-7" y="0" type="line"/>
      <point x="281" y="714" type="line"/>
      <point x="357" y="714" type="line"/>
      <point x="637" y="0" type="line"/>
      <point x="564" y="0" type="line"/>
      <point x="477" y="222" type="line"/>
      <point x="152" y="222" type="line"/>
      <point x="66" y="0" type="line"/>
    </contour>
    <contour>
      <point x="480" y="828" type="line"/>
      <point x="151" y="828" type="line"/>
      <point x="151" y="873" type="line"/>
      <point x="480" y="873" type="line"/>
    </contour>
  </outline>
</glyph>
<glyph name="Abreve" format="1">
  <advance width="630"/>
  <unicode hex="0102"/>
  <outline>
    <contour>
      <point x="316" y="646" type="line"/>
      <point x="173" y="280" type="line"/>
      <point x="454" y="280" type="line"/>
    </contour>
    <contour>
      <point x="-7" y="0" type="line"/>
      <point x="281" y="714" type="line"/>
      <point x="357" y="714" type="line"/>
      <point x="637" y="0" type="line"/>
      <point x="564" y="0" type="line"/>
      <point x="477" y="222" type="line"/>
      <point x="152" y="222" type="line"/>
      <point x="66" y="0" type="line"/>
    </contour>
    <contour>
      <point x="175" y="914" type="curve"/>
      <point x="214" y="914" type="line"/>
      <point x="217" y="860"/>
      <point x="267" y="832"/>
      <point x="317" y="832" type="curve" smooth="yes"/>
      <point x="368" y="832"/>
      <point x="415" y="862"/>
      <point x="423" y="914" type="curve"/>
      <point x="462" y="914" type="line"/>
      <point x="451" y="835"/>
      <point x="397" y="787"/>
      <point x="317" y="787" type="curve" smooth="yes"/>
      <point x="236" y="787"/>
      <point x="182" y="833"/>
    </contour>
  </outline>
</glyph>
<glyph name="abreve" format="1">
  <advance width="519"/>
  <unicode hex="0103"/>
  <outline>
    <contour>
      <point x="117" y="358" type="curve"/>
      <point x="54" y="358" type="line"/>
      <point x="61" y="479"/>
      <point x="144" y="531"/>
      <point x="263" y="531" type="curve" smooth="yes"/>
      <point x="354" y="531"/>
      <point x="453" y="504"/>
      <point x="453" y="365" type="curve" smooth="yes"/>
      <point x="453" y="91" type="line" smooth="yes"/>
      <point x="453" y="66"/>
      <point x="465" y="53"/>
      <point x="490" y="53" type="curve" smooth="yes"/>
      <point x="497" y="53"/>
      <point x="503" y="54"/>
      <point x="510" y="57" type="curve"/>
      <point x="510" y="4" type="line"/>
      <point x="495" y="1"/>
      <point x="486" y="0"/>
      <point x="469" y="0" type="curve" smooth="yes"/>
      <point x="405" y="0"/>
      <point x="395" y="37"/>
      <point x="395" y="90" type="curve"/>
      <point x="393" y="90" type="line"/>
      <point x="348" y="23"/>
      <point x="305" y="-15"/>
      <point x="205" y="-15" type="curve" smooth="yes"/>
      <point x="109" y="-15"/>
      <point x="32" y="32"/>
      <point x="32" y="136" type="curve" smooth="yes"/>
      <point x="32" y="280"/>
      <point x="173" y="286"/>
      <point x="309" y="302" type="curve" smooth="yes"/>
      <point x="361" y="307"/>
      <point x="390" y="316"/>
      <point x="390" y="372" type="curve" smooth="yes"/>
      <point x="390" y="457"/>
      <point x="330" y="478"/>
      <point x="255" y="478" type="curve" smooth="yes"/>
      <point x="176" y="478"/>
      <point x="120" y="442"/>
    </contour>
    <contour>
      <point x="390" y="200" type="curve" smooth="yes"/>
      <point x="390" y="282" type="line"/>
      <point x="388" y="282" type="line"/>
      <point x="380" y="267"/>
      <point x="352" y="262"/>
      <point x="335" y="259" type="curve" smooth="yes"/>
      <point x="228" y="240"/>
      <point x="95" y="240"/>
      <point x="95" y="140" type="curve" smooth="yes"/>
      <point x="95" y="77"/>
      <point x="150" y="38"/>
      <point x="210" y="38" type="curve" smooth="yes"/>
      <point x="307" y="38"/>
      <point x="390" y="99"/>
    </contour>
    <contour>
      <point x="118" y="724" type="curve"/>
      <point x="157" y="724" type="line"/>
      <point x="160" y="670"/>
      <point x="210" y="642"/>
      <point x="260" y="642" type="curve" smooth="yes"/>
      <point x="311" y="642"/>
      <point x="358" y="672"/>
      <point x="366" y="724" type="curve"/>
      <point x="405" y="724" type="line"/>
      <point x="394" y="645"/>
      <point x="340" y="597"/>
      <point x="260" y="597" type="curve" smooth="yes"/>
      <point x="179" y="597"/>
      <point x="125" y="643"/>
    </contour>
  </outline>
</glyph>
<glyph name="Aogonek" format="1">
  <advance width="630"/>
  <unicode hex="0104"/>
  <outline>
    <contour>
      <point x="637" y="0" type="line"/>
      <point x="602" y="0" type="line"/>
      <point x="526" y="-62"/>
      <point x="520" y="-87"/>
      <point x="520" y="-117" type="curve" smooth="yes"/>
      <point x="520" y="-149"/>
      <point x="541" y="-164"/>
      <point x="564" y="-164" type="curve" smooth="yes"/>
      <point x="589" y="-164"/>
      <point x="608" y="-144"/>
      <point x="619" y="-123" type="curve"/>
      <point x="648" y="-136" type="line"/>
      <point x="625" y="-187"/>
      <point x="593" y="-203"/>
      <point x="550" y="-203" type="curve" smooth="yes"/>
      <point x="491" y="-203"/>
      <point x="459" y="-169"/>
      <point x="459" y="-121" type="curve" smooth="yes"/>
      <point x="459" y="-101"/>
      <point x="462" y="-62"/>
      <point x="564" y="0" type="curve"/>
      <point x="477" y="222" type="line"/>
      <point x="152" y="222" type="line"/>
      <point x="66" y="0" type="line"/>
      <point x="-7" y="0" type="line"/>
      <point x="281" y="714" type="line"/>
      <point x="357" y="714" type="line"/>
    </contour>
    <contour>
      <point x="316" y="646" type="line"/>
      <point x="173" y="280" type="line"/>
      <point x="454" y="280" type="line"/>
    </contour>
  </outline>
</glyph>
<glyph name="aogonek" format="1">
  <advance width="519"/>
  <unicode hex="0105"/>
  <outline>
    <contour>
      <point x="117" y="358" type="curve"/>
      <point x="54" y="358" type="line"/>
      <point x="61" y="479"/>
      <point x="144" y="531"/>
      <point x="263" y="531" type="curve" smooth="yes"/>
      <point x="354" y="531"/>
      <point x="453" y="504"/>
      <point x="453" y="365" type="curve" smooth="yes"/>
      <point x="453" y="91" type="line" smooth="yes"/>
      <point x="453" y="66"/>
      <point x="465" y="53"/>
      <point x="490" y="53" type="curve" smooth="yes"/>
      <point x="497" y="53"/>
      <point x="503" y="54"/>
      <point x="510" y="57" type="curve"/>
      <point x="510" y="4" type="line"/>
      <point x="495" y="1"/>
      <point x="486" y="0"/>
      <point x="469" y="0" type="curve" smooth="yes"/>
      <point x="465" y="0" type="line"/>
      <point x="389" y="-62"/>
      <point x="383" y="-87"/>
      <point x="383" y="-117" type="curve" smooth="yes"/>
      <point x="383" y="-149"/>
      <point x="404" y="-164"/>
      <point x="427" y="-164" type="curve" smooth="yes"/>
      <point x="452" y="-164"/>
      <point x="471" y="-144"/>
      <point x="482" y="-123" type="curve"/>
      <point x="511" y="-136" type="line"/>
      <point x="488" y="-187"/>
      <point x="456" y="-203"/>
      <point x="413" y="-203" type="curve" smooth="yes"/>
      <point x="354" y="-203"/>
      <point x="322" y="-169"/>
      <point x="322" y="-121" type="curve" smooth="yes"/>
      <point x="322" y="-103"/>
      <point x="326" y="-82"/>
      <point x="367" y="-43" type="curve" smooth="yes"/>
      <point x="380" y="-30"/>
      <point x="402" y="-14"/>
      <point x="433" y="5" type="curve"/>
      <point x="432" y="6"/>
      <point x="431" y="6"/>
      <point x="430" y="6" type="curve" smooth="yes"/>
      <point x="401" y="21"/>
      <point x="395" y="49"/>
      <point x="395" y="90" type="curve"/>
      <point x="393" y="90" type="line"/>
      <point x="348" y="23"/>
      <point x="305" y="-15"/>
      <point x="205" y="-15" type="curve" smooth="yes"/>
      <point x="109" y="-15"/>
      <point x="32" y="32"/>
      <point x="32" y="136" type="curve" smooth="yes"/>
      <point x="32" y="280"/>
      <point x="173" y="286"/>
      <point x="309" y="302" type="curve" smooth="yes"/>
      <point x="361" y="307"/>
      <point x="390" y="316"/>
      <point x="390" y="372" type="curve" smooth="yes"/>
      <point x="390" y="457"/>
      <point x="330" y="478"/>
      <point x="255" y="478" type="curve" smooth="yes"/>
      <point x="176" y="478"/>
      <point x="120" y="442"/>
    </contour>
    <contour>
      <point x="390" y="200" type="curve" smooth="yes"/>
      <point x="390" y="282" type="line"/>
      <point x="388" y="282" type="line"/>
      <point x="380" y="267"/>
      <point x="352" y="262"/>
      <point x="335" y="259" type="curve" smooth="yes"/>
      <point x="228" y="240"/>
      <point x="95" y="240"/>
      <point x="95" y="140" type="curve" smooth="yes"/>
      <point x="95" y="77"/>
      <point x="150" y="38"/>
      <point x="210" y="38" type="curve" smooth="yes"/>
      <point x="307" y="38"/>
      <point x="390" y="99"/>
    </contour>
  </outline>
</glyph>
<glyph name="Ccaron" format="1">
  <advance width="704"/>
  <unicode hex="010C"/>
  <outline>
    <contour>
      <point x="662" y="498" type="curve"/>
      <point x="594" y="498" type="line"/>
      <point x="570" y="608"/>
      <point x="479" y="671"/>
      <point x="375" y="671" type="curve" smooth="yes"/>
      <point x="186" y="671"/>
      <point x="106" y="513"/>
      <point x="106" y="357" type="curve" smooth="yes"/>
      <point x="106" y="201"/>
      <point x="186" y="43"/>
      <point x="375" y="43" type="curve" smooth="yes"/>
      <point x="507" y="43"/>
      <point x="591" y="145"/>
      <point x="604" y="272" type="curve"/>
      <point x="672" y="272" type="line"/>
      <point x="653" y="96"/>
      <point x="542" y="-15"/>
      <point x="375" y="-15" type="curve" smooth="yes"/>
      <point x="150" y="-15"/>
      <point x="38" y="161"/>
      <point x="38" y="357" type="curve" smooth="yes"/>
      <point x="38" y="553"/>
      <point x="150" y="729"/>
      <point x="375" y="729" type="curve" smooth="yes"/>
      <point x="511" y="729"/>
      <point x="643" y="647"/>
    </contour>
    <contour>
      <point x="334" y="780" type="line"/>
      <point x="220" y="921" type="line"/>
      <point x="285" y="921" type="line"/>
      <point x="371" y="819" type="line"/>
      <point x="459" y="921" type="line"/>
      <point x="517" y="921" type="line"/>
      <point x="403" y="780" type="line"/>
    </contour>
  </outline>
</glyph>
<glyph name="ccaron" format="1">
  <advance width="519"/>
  <unicode hex="010D"/>
  <outline>
    <contour>
      <point x="487" y="354" type="curve"/>
      <point x="424" y="354" type="line"/>
      <point x="407" y="431"/>
      <point x="361" y="478"/>
      <point x="278" y="478" type="curve" smooth="yes"/>
      <point x="158" y="478"/>
      <point x="97" y="367"/>
      <point x="97" y="258" type="curve" smooth="yes"/>
      <point x="97" y="149"/>
      <point x="158" y="38"/>
      <point x="278" y="38" type="curve" smooth="yes"/>
      <point x="355" y="38"/>
      <point x="420" y="100"/>
      <point x="428" y="185" type="curve"/>
      <point x="491" y="185" type="line"/>
      <point x="474" y="60"/>
      <point x="394" y="-15"/>
      <point x="278" y="-15" type="curve" smooth="yes"/>
      <point x="121" y="-15"/>
      <point x="34" y="110"/>
      <point x="34" y="258" type="curve" smooth="yes"/>
      <point x="34" y="406"/>
      <point x="121" y="531"/>
      <point x="278" y="531" type="curve" smooth="yes"/>
      <point x="389" y="531"/>
      <point x="472" y="473"/>
    </contour>
    <contour>
      <point x="242" y="590" type="line"/>
      <point x="128" y="731" type="line"/>
      <point x="193" y="731" type="line"/>
      <point x="279" y="629" type="line"/>
      <point x="367" y="731" type="line"/>
      <point x="425" y="731" type="line"/>
      <point x="311" y="590" type="line"/>
    </contour>
  </outline>
</glyph>
<glyph name="dcaron" format="1">
  <advance width="645"/>
  <unicode hex="010F"/>
  <outline>
    <contour>
      <point x="514" y="714" type="line"/>
      <point x="514" y="0" type="line"/>
      <point x="456" y="0" type="line"/>
      <point x="456" y="98" type="line"/>
      <point x="454" y="98" type="line"/>
      <point x="427" y="30"/>
      <point x="345" y="-15"/>
      <point x="270" y="-15" type="curve" smooth="yes"/>
      <point x="113" y="-15"/>
      <point x="38" y="111"/>
      <point x="38" y="258" type="curve" smooth="yes"/>
      <point x="38" y="405"/>
      <point x="113" y="531"/>
      <point x="270" y="531" type="curve" smooth="yes"/>
      <point x="346" y="531"/>
      <point x="423" y="492"/>
      <point x="449" y="418" type="curve"/>
      <point x="451" y="418" type="line"/>
      <point x="451" y="714" type="line"/>
    </contour>
    <contour>
      <point x="101" y="258" type="curve" smooth="yes"/>
      <point x="101" y="151"/>
      <point x="150" y="38"/>
      <point x="270" y="38" type="curve" smooth="yes"/>
      <point x="403" y="38"/>
      <point x="451" y="151"/>
      <point x="451" y="258" type="curve" smooth="yes"/>
      <point x="451" y="365"/>
      <point x="403" y="478"/>
      <point x="270" y="478" type="curve" smooth="yes"/>
      <point x="150" y="478"/>
      <point x="101" y="365"/>
    </contour>
    <contour>
      <point x="697" y="714" type="line"/>
      <point x="611" y="573" type="line"/>
      <point x="564" y="573" type="line"/>
      <point x="619" y="714" type="line"/>
    </contour>
  </outline>
</glyph>
<glyph name="Emacron" format="1">
  <advance width="593"/>
  <unicode hex="0112"/>
  <outline>
    <contour>
      <point x="72" y="0" type="line"/>
      <point x="72" y="714" type="line"/>
      <point x="565" y="714" type="line"/>
      <point x="565" y="656" type="line"/>
      <point x="140" y="656" type="line"/>
      <point x="140" y="398" type="line"/>
      <point x="538" y="398" type="line"/>
      <point x="538" y="340" type="line"/>
      <point x="140" y="340" type="line"/>
      <point x="140" y="58" type="line"/>
      <point x="570" y="58" type="line"/>
      <point x="570" y="0" type="line"/>
    </contour>
    <contour>
      <point x="485" y="828" type="line"/>
      <point x="156" y="828" type="line"/>
      <point x="156" y="873" type="line"/>
      <point x="485" y="873" type="line"/>
    </contour>
  </outline>
</glyph>
<glyph name="Ebreve" format="1">
  <advance width="593"/>
  <unicode hex="0114"/>
  <outline>
    <contour>
      <point x="72" y="0" type="line"/>
      <point x="72" y="714" type="line"/>
      <point x="565" y="714" type="line"/>
      <point x="565" y="656" type="line"/>
      <point x="140" y="656" type="line"/>
      <point x="140" y="398" type="line"/>
      <point x="538" y="398" type="line"/>
      <point x="538" y="340" type="line"/>
      <point x="140" y="340" type="line"/>
      <point x="140" y="58" type="line"/>
      <point x="570" y="58" type="line"/>
      <point x="570" y="0" type="line"/>
    </contour>
    <contour>
      <point x="174" y="914" type="curve"/>
      <point x="213" y="914" type="line"/>
      <point x="216" y="860"/>
      <point x="266" y="832"/>
      <point x="316" y="832" type="curve" smooth="yes"/>
      <point x="367" y="832"/>
      <point x="414" y="862"/>
      <point x="422" y="914" type="curve"/>
      <point x="461" y="914" type="line"/>
      <point x="450" y="835"/>
      <point x="396" y="787"/>
      <point x="316" y="787" type="curve" smooth="yes"/>
      <point x="235" y="787"/>
      <point x="181" y="833"/>
    </contour>
  </outline>
</glyph>
<glyph name="Eogonek" format="1">
  <advance width="593"/>
  <unicode hex="0118"/>
  <outline>
    <contour>
      <point x="570" y="0" type="line"/>
      <point x="524" y="0" type="line"/>
      <point x="448" y="-62"/>
      <point x="442" y="-87"/>
      <point x="442" y="-117" type="curve" smooth="yes"/>
      <point x="442" y="-149"/>
      <point x="463" y="-164"/>
      <point x="486" y="-164" type="curve" smooth="yes"/>
      <point x="511" y="-164"/>
      <point x="530" y="-144"/>
      <point x="541" y="-123" type="curve"/>
      <point x="570" y="-136" type="line"/>
      <point x="547" y="-187"/>
      <point x="515" y="-203"/>
      <point x="472" y="-203" type="curve" smooth="yes"/>
      <point x="413" y="-203"/>
      <point x="381" y="-169"/>
      <point x="381" y="-121" type="curve" smooth="yes"/>
      <point x="381" y="-101"/>
      <point x="384" y="-62"/>
      <point x="486" y="0" type="curve"/>
      <point x="72" y="0" type="line"/>
      <point x="72" y="714" type="line"/>
      <point x="565" y="714" type="line"/>
      <point x="565" y="656" type="line"/>
      <point x="140" y="656" type="line"/>
      <point x="140" y="398" type="line"/>
      <point x="538" y="398" type="line"/>
      <point x="538" y="340" type="line"/>
      <point x="140" y="340" type="line"/>
      <point x="140" y="58" type="line"/>
      <point x="570" y="58" type="line"/>
    </contour>
  </outline>
</glyph>
<glyph name="eogonek" format="1">
  <advance width="519"/>
  <unicode hex="0119"/>
  <outline>
    <contour>
      <point x="494" y="241" type="curve"/>
      <point x="97" y="241" type="line"/>
      <point x="97" y="149"/>
      <point x="147" y="38"/>
      <point x="267" y="38" type="curve" smooth="yes"/>
      <point x="359" y="38"/>
      <point x="409" y="91"/>
      <point x="429" y="170" type="curve"/>
      <point x="492" y="170" type="line"/>
      <point x="479" y="111"/>
      <point x="454" y="66"/>
      <point x="418" y="33" type="curve" smooth="yes"/>
      <point x="389" y="7"/>
      <point x="350" y="-8"/>
      <point x="301" y="-13" type="curve"/>
      <point x="290" y="-22"/>
      <point x="281" y="-31"/>
      <point x="273" y="-39" type="curve" smooth="yes"/>
      <point x="238" y="-76"/>
      <point x="236" y="-94"/>
      <point x="236" y="-117" type="curve" smooth="yes"/>
      <point x="236" y="-149"/>
      <point x="257" y="-164"/>
      <point x="280" y="-164" type="curve" smooth="yes"/>
      <point x="305" y="-164"/>
      <point x="324" y="-144"/>
      <point x="335" y="-123" type="curve"/>
      <point x="364" y="-136" type="line"/>
      <point x="341" y="-187"/>
      <point x="309" y="-203"/>
      <point x="266" y="-203" type="curve" smooth="yes"/>
      <point x="207" y="-203"/>
      <point x="175" y="-169"/>
      <point x="175" y="-121" type="curve" smooth="yes"/>
      <point x="175" y="-103"/>
      <point x="179" y="-82"/>
      <point x="220" y="-43" type="curve" smooth="yes"/>
      <point x="229" y="-34"/>
      <point x="241" y="-25"/>
      <point x="256" y="-15" type="curve"/>
      <point x="219" y="-14"/>
      <point x="188" y="-6"/>
      <point x="161" y="7" type="curve" smooth="yes"/>
      <point x="73" y="51"/>
      <point x="34" y="147"/>
      <point x="34" y="258" type="curve" smooth="yes"/>
      <point x="34" y="394"/>
      <point x="103" y="531"/>
      <point x="267" y="531" type="curve" smooth="yes"/>
      <point x="432" y="531"/>
      <point x="499" y="386"/>
    </contour>
    <contour>
      <point x="97" y="294" type="curve"/>
      <point x="431" y="294" type="line"/>
      <point x="428" y="389"/>
      <point x="368" y="478"/>
      <point x="267" y="478" type="curve" smooth="yes"/>
      <point x="163" y="478"/>
      <point x="108" y="388"/>
    </contour>
  </outline>
</glyph>
<glyph name="Ecaron" format="1">
  <advance width="593"/>
  <unicode hex="011A"/>
  <outline>
    <contour>
      <point x="72" y="0" type="line"/>
      <point x="72" y="714" type="line"/>
      <point x="565" y="714" type="line"/>
      <point x="565" y="656" type="line"/>
      <point x="140" y="656" type="line"/>
      <point x="140" y="398" type="line"/>
      <point x="538" y="398" type="line"/>
      <point x="538" y="340" type="line"/>
      <point x="140" y="340" type="line"/>
      <point x="140" y="58" type="line"/>
      <point x="570" y="58" type="line"/>
      <point x="570" y="0" type="line"/>
    </contour>
    <contour>
      <point x="280" y="780" type="line"/>
      <point x="166" y="921" type="line"/>
      <point x="231" y="921" type="line"/>
      <point x="317" y="819" type="line"/>
      <point x="405" y="921" type="line"/>
      <point x="463" y="921" type="line"/>
      <point x="349" y="780" type="line"/>
    </contour>
  </outline>
</glyph>
<glyph name="Gbreve" format="1">
  <advance width="741"/>
  <unicode hex="011E"/>
  <outline>
    <contour>
      <point x="682" y="363" type="line"/>
      <point x="682" y="0" type="line"/>
      <point x="633" y="0" type="line"/>
      <point x="624" y="130" type="line"/>
      <point x="622" y="130" type="line"/>
      <point x="574" y="28"/>
      <point x="478" y="-15"/>
      <point x="375" y="-15" type="curve" smooth="yes"/>
      <point x="150" y="-15"/>
      <point x="38" y="161"/>
      <point x="38" y="357" type="curve" smooth="yes"/>
      <point x="38" y="553"/>
      <point x="150" y="729"/>
      <point x="375" y="729" type="curve" smooth="yes"/>
      <point x="525" y="729"/>
      <point x="646" y="648"/>
      <point x="673" y="492" type="curve"/>
      <point x="605" y="492" type="line"/>
      <point x="597" y="574"/>
      <point x="510" y="671"/>
      <point x="375" y="671" type="curve" smooth="yes"/>
      <point x="186" y="671"/>
      <point x="106" y="513"/>
      <point x="106" y="357" type="curve" smooth="yes"/>
      <point x="106" y="201"/>
      <point x="186" y="43"/>
      <point x="375" y="43" type="curve" smooth="yes"/>
      <point x="533" y="43"/>
      <point x="625" y="153"/>
      <point x="622" y="305" type="curve"/>
      <point x="379" y="305" type="line"/>
      <point x="379" y="363" type="line"/>
    </contour>
    <contour>
      <point x="231" y="914" type="curve"/>
      <point x="270" y="914" type="line"/>
      <point x="273" y="860"/>
      <point x="323" y="832"/>
      <point x="373" y="832" type="curve" smooth="yes"/>
      <point x="424" y="832"/>
      <point x="471" y="862"/>
      <point x="479" y="914" type="curve"/>
      <point x="518" y="914" type="line"/>
      <point x="507" y="835"/>
      <point x="453" y="787"/>
      <point x="373" y="787" type="curve" smooth="yes"/>
      <point x="292" y="787"/>
      <point x="238" y="833"/>
    </contour>
  </outline>
</glyph>
<glyph name="Gdotaccent" format="1">
  <advance width="741"/>
  <unicode hex="0120"/>
  <outline>
    <contour>
      <point x="682" y="363" type="line"/>
      <point x="682" y="0" type="line"/>
      <point x="633" y="0" type="line"/>
      <point x="624" y="130" type="line"/>
      <point x="622" y="130" type="line"/>
      <point x="574" y="28"/>
      <point x="478" y="-15"/>
      <point x="375" y="-15" type="curve" smooth="yes"/>
      <point x="150" y="-15"/>
      <point x="38" y="161"/>
      <point x="38" y="357" type="curve" smooth="yes"/>
      <point x="38" y="553"/>
      <point x="150" y="729"/>
      <point x="375" y="729" type="curve" smooth="yes"/>
      <point x="525" y="729"/>
      <point x="646" y="648"/>
      <point x="673" y="492" type="curve"/>
      <point x="605" y="492" type="line"/>
      <point x="597" y="574"/>
      <point x="510" y="671"/>
      <point x="375" y="671" type="curve" smooth="yes"/>
      <point x="186" y="671"/>
      <point x="106" y="513"/>
      <point x="106" y="357" type="curve" smooth="yes"/>
      <point x="106" y="201"/>
      <point x="186" y="43"/>
      <point x="375" y="43" type="curve" smooth="yes"/>
      <point x="533" y="43"/>
      <point x="625" y="153"/>
      <point x="622" y="305" type="curve"/>
      <point x="379" y="305" type="line"/>
      <point x="379" y="363" type="line"/>
    </contour>
    <contour>
      <point x="410" y="800" type="line"/>
      <point x="342" y="800" type="line"/>
      <point x="342" y="901" type="line"/>
      <point x="410" y="901" type="line"/>
    </contour>
  </outline>
</glyph>
<glyph name="gdotaccent" format="1">
  <advance width="556"/>
  <unicode hex="0121"/>
  <outline>
    <contour>
      <point x="496" y="516" type="line"/>
      <point x="496" y="42" type="line" smooth="yes"/>
      <point x="496" y="-113"/>
      <point x="434" y="-206"/>
      <point x="267" y="-206" type="curve" smooth="yes"/>
      <point x="164" y="-206"/>
      <point x="61" y="-159"/>
      <point x="53" y="-50" type="curve"/>
      <point x="116" y="-50" type="line"/>
      <point x="129" y="-126"/>
      <point x="198" y="-153"/>
      <point x="267" y="-153" type="curve" smooth="yes"/>
      <point x="384" y="-153"/>
      <point x="433" y="-85"/>
      <point x="433" y="42" type="curve" smooth="yes"/>
      <point x="433" y="112" type="line"/>
      <point x="431" y="112" type="line"/>
      <point x="402" y="48"/>
      <point x="342" y="6"/>
      <point x="267" y="6" type="curve" smooth="yes"/>
      <point x="102" y="6"/>
      <point x="34" y="123"/>
      <point x="34" y="271" type="curve" smooth="yes"/>
      <point x="34" y="413"/>
      <point x="118" y="531"/>
      <point x="267" y="531" type="curve" smooth="yes"/>
      <point x="343" y="531"/>
      <point x="406" y="484"/>
      <point x="431" y="427" type="curve"/>
      <point x="433" y="427" type="line"/>
      <point x="433" y="516" type="line"/>
    </contour>
    <contour>
      <point x="267" y="59" type="curve" smooth="yes"/>
      <point x="376" y="59"/>
      <point x="433" y="160"/>
      <point x="433" y="264" type="curve" smooth="yes"/>
      <point x="433" y="365"/>
      <point x="387" y="478"/>
      <point x="267" y="478" type="curve" smooth="yes"/>
      <point x="147" y="478"/>
      <point x="97" y="371"/>
      <point x="97" y="264" type="curve" smooth="yes"/>
      <point x="97" y="160"/>
      <point x="150" y="59"/>
    </contour>
    <contour>
      <point x="311" y="610" type="line"/>
      <point x="243" y="610" type="line"/>
      <point x="243" y="711" type="line"/>
      <point x="311" y="711" type="line"/>
    </contour>
  </outline>
</glyph>
<glyph name="Hcircumflex" format="1">
  <advance width="704"/>
  <unicode hex="0124"/>
  <outline>
    <contour>
      <point x="72" y="0" type="line"/>
      <point x="72" y="714" type="line"/>
      <point x="140" y="714" type="line"/>
      <point x="140" y="404" type="line"/>
      <point x="564" y="404" type="line"/>
      <point x="564" y="714" type="line"/>
      <point x="632" y="714" type="line"/>
      <point x="632" y="0" type="line"/>
      <point x="564" y="0" type="line"/>
      <point x="564" y="346" type="line"/>
      <point x="140" y="346" type="line"/>
      <point x="140" y="0" type="line"/>
    </contour>
    <contour>
      <point x="388" y="920" type="line"/>
      <point x="502" y="779" type="line"/>
      <point x="437" y="779" type="line"/>
      <point x="351" y="881" type="line"/>
      <point x="263" y="779" type="line"/>
      <point x="205" y="779" type="line"/>
      <point x="319" y="920" type="line"/>
    </contour>
  </outline>
</glyph>
<glyph name="Hbar" format="1">
  <advance width="704"/>
  <unicode hex="0126"/>
  <outline>
    <contour>
      <point x="72" y="0" type="line"/>
      <point x="72" y="714" type="line"/>
      <point x="140" y="714" type="line"/>
      <point x="140" y="516" type="line"/>
      <point x="564" y="516" type="line"/>
      <point x="564" y="714" type="line"/>
      <point x="632" y="714" type="line"/>
      <point x="632" y="0" type="line"/>
      <point x="564" y="0" type="line"/>
      <point x="564" y="336" type="line"/>
      <point x="140" y="336" type="line"/>
      <point x="140" y="0" type="line"/>
    </contour>
    <contour>
      <point x="564" y="471" type="line"/>
      <point x="140" y="471" type="line"/>
      <point x="140" y="394" type="line"/>
      <point x="564" y="394" type="line"/>
    </contour>
  </outline>
</glyph>
<glyph name="hbar" format="1">
  <advance width="560"/>
  <unicode hex="0127"/>
  <outline>
    <contour>
      <point x="82" y="629" type="line"/>
      <point x="82" y="714" type="line"/>
      <point x="145" y="714" type="line"/>
      <point x="145" y="629" type="line"/>
      <point x="298" y="629" type="line"/>
      <point x="298" y="584" type="line"/>
      <point x="145" y="584" type="line"/>
      <point x="145" y="427" type="line"/>
      <point x="147" y="427" type="line"/>
      <point x="171" y="489"/>
      <point x="239" y="531"/>
      <point x="312" y="531" type="curve" smooth="yes"/>
      <point x="457" y="531"/>
      <point x="501" y="455"/>
      <point x="501" y="332" type="curve" smooth="yes"/>
      <point x="501" y="0" type="line"/>
      <point x="438" y="0" type="line"/>
      <point x="438" y="322" type="line" smooth="yes"/>
      <point x="438" y="410"/>
      <point x="409" y="478"/>
      <point x="307" y="478" type="curve" smooth="yes"/>
      <point x="206" y="478"/>
      <point x="148" y="402"/>
      <point x="145" y="301" type="curve" smooth="yes"/>
      <point x="145" y="0" type="line"/>
      <point x="82" y="0" type="line"/>
      <point x="82" y="584" type="line"/>
      <point x="0" y="584" type="line"/>
      <point x="0" y="629" type="line"/>
    </contour>
  </outline>
</glyph>
<glyph name="Itilde" format="1">
  <advance width="222"/>
  <unicode hex="0128"/>
  <outline>
    <contour>
      <point x="77" y="0" type="line"/>
      <point x="77" y="714" type="line"/>
      <point x="145" y="714" type="line"/>
      <point x="145" y="0" type="line"/>
    </contour>
    <contour>
      <point x="230" y="900" type="curve"/>
      <point x="268" y="900" type="line"/>
      <point x="260" y="855"/>
      <point x="234" y="805"/>
      <point x="181" y="805" type="curve" smooth="yes"/>
      <point x="126" y="805"/>
      <point x="82" y="851"/>
      <point x="43" y="851" type="curve" smooth="yes"/>
      <point x="16" y="851"/>
      <point x="1" y="833"/>
      <point x="-7" y="800" type="curve"/>
      <point x="-46" y="800" type="line"/>
      <point x="-41" y="847"/>
      <point x="-9" y="896"/>
      <point x="43" y="896" type="curve" smooth="yes"/>
      <point x="100" y="896"/>
      <point x="141" y="852"/>
      <point x="178" y="852" type="curve" smooth="yes"/>
      <point x="209" y="852"/>
      <point x="222" y="873"/>
    </contour>
  </outline>
</glyph>
<glyph name="itilde" format="1">
  <advance width="185"/>
  <unicode hex="0129"/>
  <outline>
    <contour>
      <point x="124" y="0" type="line"/>
      <point x="61" y="0" type="line"/>
      <point x="61" y="516" type="line"/>
      <point x="124" y="516" type="line"/>
    </contour>
    <contour>
      <point x="212" y="710" type="curve"/>
      <point x="250" y="710" type="line"/>
      <point x="242" y="665"/>
      <point x="216" y="615"/>
      <point x="163" y="615" type="curve" smooth="yes"/>
      <point x="108" y="615"/>
      <point x="64" y="661"/>
      <point x="25" y="661" type="curve" smooth="yes"/>
      <point x="-2" y="661"/>
      <point x="-17" y="643"/>
      <point x="-25" y="610" type="curve"/>
      <point x="-64" y="610" type="line"/>
      <point x="-59" y="657"/>
      <point x="-27" y="706"/>
      <point x="25" y="706" type="curve" smooth="yes"/>
      <point x="82" y="706"/>
      <point x="123" y="662"/>
      <point x="160" y="662" type="curve" smooth="yes"/>
      <point x="191" y="662"/>
      <point x="204" y="683"/>
    </contour>
  </outline>
</glyph>
<glyph name="Imacron" format="1">
  <advance width="222"/>
  <unicode hex="012A"/>
  <outline>
    <contour>
      <point x="77" y="0" type="line"/>
      <point x="77" y="714" type="line"/>
      <point x="145" y="714" type="line"/>
      <point x="145" y="0" type="line"/>
    </contour>
    <contour>
      <point x="276" y="828" type="line"/>
      <point x="-53" y="828" type="line"/>
      <point x="-53" y="873" type="line"/>
      <point x="276" y="873" type="line"/>
    </contour>
  </outline>
</glyph>
<glyph name="imacron" format="1">
  <advance width="185"/>
  <unicode hex="012B"/>
  <outline>
    <contour>
      <point x="124" y="0" type="line"/>
      <point x="61" y="0" type="line"/>
      <point x="61" y="516" type="line"/>
      <point x="124" y="516" type="line"/>
    </contour>
    <contour>
      <point x="258" y="638" type="line"/>
      <point x="-71" y="638" type="line"/>
      <point x="-71" y="683" type="line"/>
      <point x="258" y="683" type="line"/>
    </contour>
  </outline>
</glyph>
<glyph name="Iogonek" format="1">
  <advance width="222"/>
  <unicode hex="012E"/>
  <outline>
    <contour>
      <point x="145" y="714" type="line"/>
      <point x="145" y="0" type="line"/>
      <point x="77" y="-63"/>
      <point x="71" y="-86"/>
      <point x="71" y="-117" type="curve" smooth="yes"/>
      <point x="71" y="-149"/>
      <point x="90" y="-164"/>
      <point x="111" y="-164" type="curve" smooth="yes"/>
      <point x="134" y="-164"/>
      <point x="151" y="-144"/>
      <point x="160" y="-123" type="curve"/>
      <point x="187" y="-136" type="line"/>
      <point x="166" y="-187"/>
      <point x="137" y="-203"/>
      <point x="98" y="-203" type="curve" smooth="yes"/>
      <point x="45" y="-203"/>
      <point x="16" y="-169"/>
      <point x="16" y="-121" type="curve" smooth="yes"/>
      <point x="16" y="-101"/>
      <point x="17" y="-62"/>
      <point x="111" y="0" type="curve"/>
      <point x="77" y="0" type="line"/>
      <point x="77" y="714" type="line"/>
    </contour>
  </outline>
</glyph>
<glyph name="iogonek" format="1">
  <advance width="185"/>
  <unicode hex="012F"/>
  <outline>
    <contour>
      <point x="124" y="516" type="line"/>
      <point x="124" y="0" type="line"/>
      <point x="56" y="-62"/>
      <point x="50" y="-87"/>
      <point x="50" y="-117" type="curve" smooth="yes"/>
      <point x="50" y="-149"/>
      <point x="70" y="-164"/>
      <point x="90" y="-164" type="curve" smooth="yes"/>
      <point x="113" y="-164"/>
      <point x="130" y="-144"/>
      <point x="139" y="-123" type="curve"/>
      <point x="165" y="-136" type="line"/>
      <point x="145" y="-187"/>
      <point x="116" y="-203"/>
      <point x="77" y="-203" type="curve" smooth="yes"/>
      <point x="25" y="-203"/>
      <point x="-5" y="-169"/>
      <point x="-5" y="-121" type="curve" smooth="yes"/>
      <point x="-5" y="-101"/>
      <point x="-1" y="-62"/>
      <point x="90" y="0" type="curve"/>
      <point x="61" y="0" type="line"/>
      <point x="61" y="516" type="line"/>
    </contour>
    <contour>
      <point x="61" y="613" type="line"/>
      <point x="61" y="714" type="line"/>
      <point x="124" y="714" type="line"/>
      <point x="124" y="613" type="line"/>
    </contour>
  </outline>
</glyph>
<glyph name="Idotaccent" format="1">
  <advance width="222"/>
  <unicode hex="0130"/>
  <outline>
    <contour>
      <point x="77" y="0" type="line"/>
      <point x="77" y="714" type="line"/>
      <point x="145" y="714" type="line"/>
      <point x="145" y="0" type="line"/>
    </contour>
    <contour>
      <point x="145" y="800" type="line"/>
      <point x="77" y="800" type="line"/>
      <point x="77" y="901" type="line"/>
      <point x="145" y="901" type="line"/>
    </contour>
  </outline>
</glyph>
<glyph name="dotlessi" format="1">
  <advance width="185"/>
  <unicode hex="0131"/>
  <outline>
    <contour>
      <point x="124" y="0" type="line"/>
      <point x="61" y="0" type="line"/>
      <point x="61" y="516" type="line"/>
      <point x="124" y="516" type="line"/>
    </contour>
  </outline>
</glyph>
<glyph name="IJ" format="1">
  <advance width="727"/>
  <unicode hex="0132"/>
  <outline>
    <contour>
      <point x="77" y="0" type="line"/>
      <point x="77" y="714" type="line"/>
      <point x="145" y="714" type="line"/>
      <point x="145" y="0" type="line"/>
    </contour>
    <contour>
      <point x="587" y="228" type="curve" smooth="yes"/>
      <point x="587" y="714" type="line"/>
      <point x="655" y="714" type="line"/>
      <point x="655" y="199" type="line" smooth="yes"/>
      <point x="655" y="54"/>
      <point x="601" y="-15"/>
      <point x="447" y="-15" type="curve" smooth="yes"/>
      <point x="283" y="-15"/>
      <point x="248" y="105"/>
      <point x="248" y="229" type="curve"/>
      <point x="316" y="229" type="line"/>
      <point x="319" y="168"/>
      <point x="312" y="43"/>
      <point x="453" y="43" type="curve" smooth="yes"/>
      <point x="560" y="43"/>
      <point x="587" y="97"/>
    </contour>
  </outline>
</glyph>
<glyph name="ij" format="1">
  <advance width="373"/>
  <unicode hex="0133"/>
  <outline>
    <contour>
      <point x="61" y="613" type="line"/>
      <point x="61" y="714" type="line"/>
      <point x="124" y="714" type="line"/>
      <point x="124" y="613" type="line"/>
    </contour>
    <contour>
      <point x="61" y="0" type="line"/>
      <point x="61" y="516" type="line"/>
      <point x="124" y="516" type="line"/>
      <point x="124" y="0" type="line"/>
    </contour>
    <contour>
      <point x="249" y="613" type="line"/>
      <point x="249" y="714" type="line"/>
      <point x="312" y="714" type="line"/>
      <point x="312" y="613" type="line"/>
    </contour>
    <contour>
      <point x="249" y="-63" type="curve" smooth="yes"/>
      <point x="249" y="516" type="line"/>
      <point x="312" y="516" type="line"/>
      <point x="312" y="-48" type="line" smooth="yes"/>
      <point x="312" y="-125"/>
      <point x="291" y="-191"/>
      <point x="202" y="-191" type="curve" smooth="yes"/>
      <point x="187" y="-191"/>
      <point x="173" y="-189"/>
      <point x="158" y="-189" type="curve"/>
      <point x="158" y="-137" type="line"/>
      <point x="169" y="-138"/>
      <point x="181" y="-139"/>
      <point x="192" y="-138" type="curve" smooth="yes"/>
      <point x="241" y="-138"/>
      <point x="249" y="-106"/>
    </contour>
  </outline>
</glyph>
<glyph name="Jcircumflex" format="1">
  <advance width="500"/>
  <unicode hex="0134"/>
  <outline>
    <contour>
      <point x="360" y="228" type="curve" smooth="yes"/>
      <point x="360" y="714" type="line"/>
      <point x="428" y="714" type="line"/>
      <point x="428" y="199" type="line" smooth="yes"/>
      <point x="428" y="54"/>
      <point x="374" y="-15"/>
      <point x="220" y="-15" type="curve" smooth="yes"/>
      <point x="56" y="-15"/>
      <point x="21" y="105"/>
      <point x="21" y="229" type="curve"/>
      <point x="89" y="229" type="line"/>
      <point x="92" y="168"/>
      <point x="85" y="43"/>
      <point x="226" y="43" type="curve" smooth="yes"/>
      <point x="333" y="43"/>
      <point x="360" y="97"/>
    </contour>
    <contour>
      <point x="425" y="920" type="line"/>
      <point x="539" y="779" type="line"/>
      <point x="474" y="779" type="line"/>
      <point x="388" y="881" type="line"/>
      <point x="300" y="779" type="line"/>
      <point x="242" y="779" type="line"/>
      <point x="356" y="920" type="line"/>
    </contour>
  </outline>
</glyph>
<glyph name="jcircumflex" format="1">
  <advance width="185"/>
  <unicode hex="0135"/>
  <outline>
    <contour>
      <point x="61" y="-63" type="curve" smooth="yes"/>
      <point x="61" y="516" type="line"/>
      <point x="124" y="516" type="line"/>
      <point x="124" y="-48" type="line" smooth="yes"/>
      <point x="124" y="-125"/>
      <point x="103" y="-191"/>
      <point x="14" y="-191" type="curve" smooth="yes"/>
      <point x="-1" y="-191"/>
      <point x="-15" y="-189"/>
      <point x="-30" y="-189" type="curve"/>
      <point x="-30" y="-137" type="line"/>
      <point x="-19" y="-138"/>
      <point x="-7" y="-139"/>
      <point x="4" y="-138" type="curve" smooth="yes"/>
      <point x="53" y="-138"/>
      <point x="61" y="-106"/>
    </contour>
    <contour>
      <point x="125" y="730" type="line"/>
      <point x="239" y="589" type="line"/>
      <point x="174" y="589" type="line"/>
      <point x="88" y="691" type="line"/>
      <point x="0" y="589" type="line"/>
      <point x="-58" y="589" type="line"/>
      <point x="56" y="730" type="line"/>
    </contour>
  </outline>
</glyph>
<glyph name="Kcommaaccent" format="1">
  <advance width="648"/>
  <unicode hex="0136"/>
  <outline>
    <contour>
      <point x="72" y="0" type="line"/>
      <point x="72" y="714" type="line"/>
      <point x="140" y="714" type="line"/>
      <point x="140" y="330" type="line"/>
      <point x="555" y="714" type="line"/>
      <point x="647" y="714" type="line"/>
      <point x="328" y="419" type="line"/>
      <point x="662" y="0" type="line"/>
      <point x="574" y="0" type="line"/>
      <point x="277" y="372" type="line"/>
      <point x="140" y="245" type="line"/>
      <point x="140" y="0" type="line"/>
    </contour>
    <contour>
      <point x="291" y="-50" type="line"/>
      <point x="377" y="-50" type="line"/>
      <point x="377" y="-130" type="line" smooth="yes"/>
      <point x="377" y="-184"/>
      <point x="338" y="-201"/>
      <point x="291" y="-203" type="curve"/>
      <point x="291" y="-175" type="line"/>
      <point x="318" y="-170"/>
      <point x="328" y="-158"/>
      <point x="330" y="-141" type="curve"/>
      <point x="291" y="-141" type="line"/>
    </contour>
  </outline>
</glyph>
<glyph name="kcommaaccent" format="1">
  <advance width="500"/>
  <unicode hex="0137"/>
  <outline>
    <contour>
      <point x="60" y="0" type="line"/>
      <point x="60" y="714" type="line"/>
      <point x="123" y="714" type="line"/>
      <point x="123" y="266" type="line"/>
      <point x="409" y="516" type="line"/>
      <point x="493" y="516" type="line"/>
      <point x="273" y="325" type="line"/>
      <point x="508" y="0" type="line"/>
      <point x="429" y="0" type="line"/>
      <point x="225" y="281" type="line"/>
      <point x="123" y="196" type="line"/>
      <point x="123" y="0" type="line"/>
    </contour>
    <contour>
      <point x="221" y="-50" type="line"/>
      <point x="307" y="-50" type="line"/>
      <point x="307" y="-130" type="line" smooth="yes"/>
      <point x="307" y="-184"/>
      <point x="268" y="-201"/>
      <point x="221" y="-203" type="curve"/>
      <point x="221" y="-175" type="line"/>
      <point x="248" y="-170"/>
      <point x="258" y="-158"/>
      <point x="260" y="-141" type="curve"/>
      <point x="221" y="-141" type="line"/>
    </contour>
  </outline>
</glyph>
<glyph name="Lacute" format="1">
  <advance width="537"/>
  <unicode hex="0139"/>
  <outline>
    <contour>
      <point x="72" y="0" type="line"/>
      <point x="72" y="714" type="line"/>
      <point x="140" y="714" type="line"/>
      <point x="140" y="58" type="line"/>
      <point x="540" y="58" type="line"/>
      <point x="540" y="0" type="line"/>
    </contour>
    <contour>
      <point x="262" y="921" type="line"/>
      <point x="130" y="780" type="line"/>
      <point x="79" y="780" type="line"/>
      <point x="184" y="921" type="line"/>
    </contour>
  </outline>
</glyph>
<glyph name="lacute" format="1">
  <advance width="185"/>
  <unicode hex="013A"/>
  <outline>
    <contour>
      <point x="61" y="0" type="line"/>
      <point x="61" y="714" type="line"/>
      <point x="124" y="714" type="line"/>
      <point x="124" y="0" type="line"/>
    </contour>
    <contour>
      <point x="244" y="921" type="line"/>
      <point x="112" y="780" type="line"/>
      <point x="61" y="780" type="line"/>
      <point x="166" y="921" type="line"/>
    </contour>
  </outline>
</glyph>
<glyph name="Lcommaaccent" format="1">
  <advance width="537"/>
  <unicode hex="013B"/>
  <outline>
    <contour>
      <point x="72" y="0" type="line"/>
      <point x="72" y="714" type="line"/>
      <point x="140" y="714" type="line"/>
      <point x="140" y="58" type="line"/>
      <point x="540" y="58" type="line"/>
      <point x="540" y="0" type="line"/>
    </contour>
    <contour>
      <point x="250" y="-50" type="line"/>
      <point x="336" y="-50" type="line"/>
      <point x="336" y="-130" type="line" smooth="yes"/>
      <point x="336" y="-184"/>
      <point x="297" y="-201"/>
      <point x="250" y="-203" type="curve"/>
      <point x="250" y="-175" type="line"/>
      <point x="277" y="-170"/>
      <point x="287" y="-158"/>
      <point x="289" y="-141" type="curve"/>
      <point x="250" y="-141" type="line"/>
    </contour>
  </outline>
</glyph>
<glyph name="lcommaaccent" format="1">
  <advance width="185"/>
  <unicode hex="013C"/>
  <outline>
    <contour>
      <point x="61" y="0" type="line"/>
      <point x="61" y="714" type="line"/>
      <point x="124" y="714" type="line"/>
      <point x="124" y="0" type="line"/>
    </contour>
    <contour>
      <point x="50" y="-50" type="line"/>
      <point x="136" y="-50" type="line"/>
      <point x="136" y="-130" type="line" smooth="yes"/>
      <point x="136" y="-184"/>
      <point x="97" y="-201"/>
      <point x="50" y="-203" type="curve"/>
      <point x="50" y="-175" type="line"/>
      <point x="77" y="-170"/>
      <point x="87" y="-158"/>
      <point x="89" y="-141" type="curve"/>
      <point x="50" y="-141" type="line"/>
    </contour>
  </outline>
</glyph>
<glyph name="ldot" format="1">
  <advance width="296"/>
  <unicode hex="0140"/>
  <outline>
    <contour>
      <point x="61" y="0" type="line"/>
      <point x="61" y="714" type="line"/>
      <point x="124" y="714" type="line"/>
      <point x="124" y="0" type="line"/>
    </contour>
    <contour>
      <point x="256" y="415" type="line"/>
      <point x="188" y="415" type="line"/>
      <point x="188" y="516" type="line"/>
      <point x="256" y="516" type="line"/>
    </contour>
  </outline>
</glyph>
<glyph name="Lslash" format="1">
  <advance width="537"/>
  <unicode hex="0141"/>
  <outline>
    <contour>
      <point x="72" y="306" type="line"/>
      <point x="72" y="714" type="line"/>
      <point x="140" y="714" type="line"/>
      <point x="140" y="353" type="line"/>
      <point x="383" y="521" type="line"/>
      <point x="383" y="465" type="line"/>
      <point x="140" y="298" type="line"/>
      <point x="140" y="58" type="line"/>
      <point x="540" y="58" type="line"/>
      <point x="540" y="0" type="line"/>
      <point x="72" y="0" type="line"/>
      <point x="72" y="251" type="line"/>
      <point x="-10" y="194" type="line"/>
      <point x="-10" y="250" type="line"/>
    </contour>
  </outline>
</glyph>
<glyph name="lslash" format="1">
  <advance width="185"/>
  <unicode hex="0142"/>
  <outline>
    <contour>
      <point x="61" y="395" type="line"/>
      <point x="61" y="714" type="line"/>
      <point x="124" y="714" type="line"/>
      <point x="124" y="447" type="line"/>
      <point x="191" y="502" type="line"/>
      <point x="191" y="447" type="line"/>
      <point x="124" y="392" type="line"/>
      <point x="124" y="0" type="line"/>
      <point x="61" y="0" type="line"/>
      <point x="61" y="340" type="line"/>
      <point x="-6" y="285" type="line"/>
      <point x="-6" y="340" type="line"/>
    </contour>
  </outline>
</glyph>
<glyph name="Ncommaaccent" format="1">
  <advance width="704"/>
  <unicode hex="0145"/>
  <outline>
    <contour>
      <point x="71" y="0" type="line"/>
      <point x="71" y="714" type="line"/>
      <point x="147" y="714" type="line"/>
      <point x="563" y="110" type="line"/>
      <point x="565" y="110" type="line"/>
      <point x="565" y="714" type="line"/>
      <point x="633" y="714" type="line"/>
      <point x="633" y="0" type="line"/>
      <point x="557" y="0" type="line"/>
      <point x="141" y="604" type="line"/>
      <point x="139" y="604" type="line"/>
      <point x="139" y="0" type="line"/>
    </contour>
    <contour>
      <point x="303" y="-50" type="line"/>
      <point x="389" y="-50" type="line"/>
      <point x="389" y="-130" type="line" smooth="yes"/>
      <point x="389" y="-184"/>
      <point x="350" y="-201"/>
      <point x="303" y="-203" type="curve"/>
      <point x="303" y="-175" type="line"/>
      <point x="330" y="-170"/>
      <point x="340" y="-158"/>
      <point x="342" y="-141" type="curve"/>
      <point x="303" y="-141" type="line"/>
    </contour>
  </outline>
</glyph>
<glyph name="ncommaaccent" format="1">
  <advance width="537"/>
  <unicode hex="0146"/>
  <outline>
    <contour>
      <point x="59" y="0" type="line"/>
      <point x="59" y="516" type="line"/>
      <point x="122" y="516" type="line"/>
      <point x="122" y="427" type="line"/>
      <point x="124" y="427" type="line"/>
      <point x="148" y="489"/>
      <point x="216" y="531"/>
      <point x="289" y="531" type="curve" smooth="yes"/>
      <point x="434" y="531"/>
      <point x="478" y="455"/>
      <point x="478" y="332" type="curve" smooth="yes"/>
      <point x="478" y="0" type="line"/>
      <point x="415" y="0" type="line"/>
      <point x="415" y="322" type="line" smooth="yes"/>
      <point x="415" y="410"/>
      <point x="386" y="478"/>
      <point x="284" y="478" type="curve" smooth="yes"/>
      <point x="183" y="478"/>
      <point x="125" y="402"/>
      <point x="122" y="301" type="curve" smooth="yes"/>
      <point x="122" y="0" type="line"/>
    </contour>
    <contour>
      <point x="231" y="-50" type="line"/>
      <point x="317" y="-50" type="line"/>
      <point x="317" y="-130" type="line" smooth="yes"/>
      <point x="317" y="-184"/>
      <point x="278" y="-201"/>
      <point x="231" y="-203" type="curve"/>
      <point x="231" y="-175" type="line"/>
      <point x="258" y="-170"/>
      <point x="268" y="-158"/>
      <point x="270" y="-141" type="curve"/>
      <point x="231" y="-141" type="line"/>
    </contour>
  </outline>
</glyph>
<glyph name="ncaron" format="1">
  <advance width="537"/>
  <unicode hex="0148"/>
  <outline>
    <contour>
      <point x="59" y="0" type="line"/>
      <point x="59" y="516" type="line"/>
      <point x="122" y="516" type="line"/>
      <point x="122" y="427" type="line"/>
      <point x="124" y="427" type="line"/>
      <point x="148" y="489"/>
      <point x="216" y="531"/>
      <point x="289" y="531" type="curve" smooth="yes"/>
      <point x="434" y="531"/>
      <point x="478" y="455"/>
      <point x="478" y="332" type="curve" smooth="yes"/>
      <point x="478" y="0" type="line"/>
      <point x="415" y="0" type="line"/>
      <point x="415" y="322" type="line" smooth="yes"/>
      <point x="415" y="410"/>
      <point x="386" y="478"/>
      <point x="284" y="478" type="curve" smooth="yes"/>
      <point x="183" y="478"/>
      <point x="125" y="402"/>
      <point x="122" y="301" type="curve" smooth="yes"/>
      <point x="122" y="0" type="line"/>
    </contour>
    <contour>
      <point x="233" y="590" type="line"/>
      <point x="119" y="731" type="line"/>
      <point x="184" y="731" type="line"/>
      <point x="270" y="629" type="line"/>
      <point x="358" y="731" type="line"/>
      <point x="416" y="731" type="line"/>
      <point x="302" y="590" type="line"/>
    </contour>
  </outline>
</glyph>
<glyph name="napostrophe" format="1">
  <advance width="555"/>
  <unicode hex="0149"/>
  <outline>
    <contour>
      <point x="77" y="0" type="line"/>
      <point x="77" y="516" type="line"/>
      <point x="140" y="516" type="line"/>
      <point x="140" y="427" type="line"/>
      <point x="142" y="427" type="line"/>
      <point x="166" y="489"/>
      <point x="234" y="531"/>
      <point x="307" y="531" type="curve" smooth="yes"/>
      <point x="452" y="531"/>
      <point x="496" y="455"/>
      <point x="496" y="332" type="curve" smooth="yes"/>
      <point x="496" y="0" type="line"/>
      <point x="433" y="0" type="line"/>
      <point x="433" y="322" type="line" smooth="yes"/>
      <point x="433" y="410"/>
      <point x="404" y="478"/>
      <point x="302" y="478" type="curve" smooth="yes"/>
      <point x="201" y="478"/>
      <point x="143" y="402"/>
      <point x="140" y="301" type="curve" smooth="yes"/>
      <point x="140" y="0" type="line"/>
    </contour>
    <contour>
      <point x="22" y="805" type="line"/>
      <point x="108" y="805" type="line"/>
      <point x="108" y="725" type="line" smooth="yes"/>
      <point x="108" y="671"/>
      <point x="69" y="654"/>
      <point x="22" y="652" type="curve"/>
      <point x="22" y="680" type="line"/>
      <point x="49" y="685"/>
      <point x="59" y="697"/>
      <point x="61" y="714" type="curve"/>
      <point x="22" y="714" type="line"/>
    </contour>
  </outline>
</glyph>
<glyph name="Omacron" format="1">
  <advance width="741"/>
  <unicode hex="014C"/>
  <outline>
    <contour>
      <point x="102" y="357" type="curve" smooth="yes"/>
      <point x="102" y="201"/>
      <point x="182" y="43"/>
      <point x="371" y="43" type="curve" smooth="yes"/>
      <point x="559" y="43"/>
      <point x="639" y="201"/>
      <point x="639" y="357" type="curve" smooth="yes"/>
      <point x="639" y="513"/>
      <point x="559" y="671"/>
      <point x="371" y="671" type="curve" smooth="yes"/>
      <point x="182" y="671"/>
      <point x="102" y="513"/>
    </contour>
    <contour>
      <point x="34" y="357" type="curve" smooth="yes"/>
      <point x="34" y="553"/>
      <point x="146" y="729"/>
      <point x="371" y="729" type="curve" smooth="yes"/>
      <point x="595" y="729"/>
      <point x="707" y="553"/>
      <point x="707" y="357" type="curve" smooth="yes"/>
      <point x="707" y="161"/>
      <point x="595" y="-15"/>
      <point x="371" y="-15" type="curve" smooth="yes"/>
      <point x="146" y="-15"/>
      <point x="34" y="161"/>
    </contour>
    <contour>
      <point x="537" y="828" type="line"/>
      <point x="208" y="828" type="line"/>
      <point x="208" y="873" type="line"/>
      <point x="537" y="873" type="line"/>
    </contour>
  </outline>
</glyph>
<glyph name="Obreve" format="1">
  <advance width="741"/>
  <unicode hex="014E"/>
  <outline>
    <contour>
      <point x="102" y="357" type="curve" smooth="yes"/>
      <point x="102" y="201"/>
      <point x="182" y="43"/>
      <point x="371" y="43" type="curve" smooth="yes"/>
      <point x="559" y="43"/>
      <point x="639" y="201"/>
      <point x="639" y="357" type="curve" smooth="yes"/>
      <point x="639" y="513"/>
      <point x="559" y="671"/>
      <point x="371" y="671" type="curve" smooth="yes"/>
      <point x="182" y="671"/>
      <point x="102" y="513"/>
    </contour>
    <contour>
      <point x="34" y="357" type="curve" smooth="yes"/>
      <point x="34" y="553"/>
      <point x="146" y="729"/>
      <point x="371" y="729" type="curve" smooth="yes"/>
      <point x="595" y="729"/>
      <point x="707" y="553"/>
      <point x="707" y="357" type="curve" smooth="yes"/>
      <point x="707" y="161"/>
      <point x="595" y="-15"/>
      <point x="371" y="-15" type="curve" smooth="yes"/>
      <point x="146" y="-15"/>
      <point x="34" y="161"/>
    </contour>
    <contour>
      <point x="229" y="914" type="curve"/>
      <point x="268" y="914" type="line"/>
      <point x="271" y="860"/>
      <point x="321" y="832"/>
      <point x="371" y="832" type="curve" smooth="yes"/>
      <point x="422" y="832"/>
      <point x="469" y="862"/>
      <point x="477" y="914" type="curve"/>
      <point x="516" y="914" type="line"/>
      <point x="505" y="835"/>
      <point x="451" y="787"/>
      <point x="371" y="787" type="curve" smooth="yes"/>
      <point x="290" y="787"/>
      <point x="236" y="833"/>
    </contour>
  </outline>
</glyph>
